<?xml version="1.0" encoding="UTF-8" standalone="no"?>
<!-- Created with Inkscape (http://www.inkscape.org/) -->

<svg
   width="512"
   height="512"
   viewBox="0 0 135.46666 135.46667"
   version="1.1"
   id="svg5"
   inkscape:version="1.1 (c68e22c387, 2021-05-23)"
   sodipodi:docname="albion.svg"
   xmlns:inkscape="http://www.inkscape.org/namespaces/inkscape"
   xmlns:sodipodi="http://sodipodi.sourceforge.net/DTD/sodipodi-0.dtd"
   xmlns="http://www.w3.org/2000/svg"
   xmlns:svg="http://www.w3.org/2000/svg">
  <sodipodi:namedview
     id="namedview7"
     pagecolor="#505050"
     bordercolor="#eeeeee"
     borderopacity="1"
     inkscape:pageshadow="0"
     inkscape:pageopacity="0"
     inkscape:pagecheckerboard="0"
     inkscape:document-units="px"
     showgrid="false"
     fit-margin-top="0"
     fit-margin-left="0"
     fit-margin-right="0"
     fit-margin-bottom="0"
     inkscape:zoom="0.70710678"
     inkscape:cx="458.9123"
     inkscape:cy="103.9447"
     inkscape:window-width="1920"
     inkscape:window-height="1017"
     inkscape:window-x="1912"
     inkscape:window-y="-8"
     inkscape:window-maximized="1"
     inkscape:current-layer="layer1"
     units="px"
     inkscape:snap-to-guides="false"
     inkscape:snap-global="false"
     showguides="false" />
  <defs
     id="defs2" />
  <g
     inkscape:label="Layer 1"
     inkscape:groupmode="layer"
     id="layer1"
     transform="translate(-77.862785,-99.376977)">
    <path
       style="fill:#000000;stroke-width:1.33911"
       d="m 94.715639,232.72698 c 0,0 -0.04452,-3.74991 0.204129,-5.50788 0.412895,-2.92009 1.302049,-4.5483 10.287382,-5.52637 12.06293,-1.31305 22.8025,-5.18337 27.10446,-9.76787 3.09139,-3.29441 3.23074,-2.96878 3.16936,-19.97486 -0.0778,-21.49229 -0.26774,-21.87917 -15.77048,-32.08858 -6.13021,-4.03703 -13.64369,-10.16739 -16.82569,-13.50198 -9.24992,-9.69346 -13.370564,-23.41561 -13.875225,-27.15148 h -5.005549 c 0,0 -0.01488,-1.66237 -0.01488,-9.1003 v -8.61402 h 61.599324 61.59932 v 8.61402 c 0,7.43793 0.0149,9.1003 0.0149,9.1003 h -5.37022 c -2.2456,8.03878 -4.7616,18.40493 -13.53805,27.15148 -3.26476,3.25363 -10.69548,9.46495 -16.82569,13.50198 -15.50277,10.20941 -15.69291,10.59629 -15.77048,32.08858 -0.0615,17.00608 0.078,16.68045 3.16936,19.97486 4.30195,4.5845 15.04155,8.45482 27.10445,9.76787 8.98534,0.97807 9.87451,2.60628 10.2874,5.52637 0.2485,1.75797 0.36238,5.50788 0.36238,5.50788 H 94.717735 Z"
       id="path39"
       sodipodi:nodetypes="cscsscsccscccsccscssscccc" />
  </g>
</svg>
