<?xml version="1.0" encoding="UTF-8" standalone="no"?>
<!-- Created with Inkscape (http://www.inkscape.org/) -->

<svg
   width="512"
   height="512"
   viewBox="0 0 135.46666 135.46667"
   version="1.1"
   id="svg5"
   inkscape:version="1.1 (c68e22c387, 2021-05-23)"
   sodipodi:docname="animist.svg"
   xmlns:inkscape="http://www.inkscape.org/namespaces/inkscape"
   xmlns:sodipodi="http://sodipodi.sourceforge.net/DTD/sodipodi-0.dtd"
   xmlns="http://www.w3.org/2000/svg"
   xmlns:svg="http://www.w3.org/2000/svg">
  <sodipodi:namedview
     id="namedview7"
     pagecolor="#505050"
     bordercolor="#eeeeee"
     borderopacity="1"
     inkscape:pageshadow="0"
     inkscape:pageopacity="0"
     inkscape:pagecheckerboard="0"
     inkscape:document-units="px"
     showgrid="false"
     units="px"
     width="512px"
     inkscape:zoom="1.2484568"
     inkscape:cx="187.0309"
     inkscape:cy="255.11496"
     inkscape:window-width="1920"
     inkscape:window-height="1017"
     inkscape:window-x="1912"
     inkscape:window-y="-8"
     inkscape:window-maximized="1"
     inkscape:current-layer="layer1" />
  <defs
     id="defs2" />
  <g
     inkscape:label="Layer 1"
     inkscape:groupmode="layer"
     id="layer1">
    <path
       style="fill:#000000;stroke:none;stroke-width:0.806815"
       d="M 94.761653,2.3812507 C 85.279962,14.718595 85.898773,21.492701 89.920756,35.460701 77.235193,40.831755 71.380135,55.588334 73.784451,68.540151 H 72.977615 C 67.916463,57.889374 59.778923,55.281746 51.415469,48.519014 c -3.365228,-2.720662 -4.962724,-7.508791 -8.29318,-10.55323 -9.601027,-8.777432 -21.385458,-7.950122 -33.0763,-4.925531 2.696377,8.461885 8.947102,13.803812 17.749947,14.522685 v 0.806815 C 11.791614,48.502066 4.8497715,57.975702 3.5914615,73.381046 15.22639,74.299203 24.91165,73.866748 31.023198,62.085623 h 0.806818 c -2.271186,6.984605 -1.858098,11.968306 1.61363,18.556765 11.218935,-4.841703 15.89266,-14.005515 16.136318,-25.818107 4.246271,1.777415 7.972147,4.059896 11.283319,7.293614 C 88.6008,89.205125 42.742037,114.18172 22.148226,125.01725 v 0.80682 c 4.669688,-1.07065 12.12273,-5.01597 16.867776,-3.47496 2.895581,0.93994 4.430869,4.49881 6.604918,6.43678 3.921124,3.49351 8.578871,4.25757 13.640834,4.29952 v -0.80681 l -5.64771,-4.8409 c 12.245031,-2.79884 19.119102,2.77303 30.659012,3.89127 6.385956,0.61802 13.013117,-1.7758 19.363574,-2.27764 v -0.80681 C 81.788053,125.01806 68.590163,107.37381 73.784451,86.290098 80.723056,95.397436 89.521379,101.52278 101.21619,101.61959 98.647293,93.7241 96.359953,85.304169 90.727592,79.028756 c 6.426271,-2.054961 13.256758,-3.452365 17.749938,-8.874975 -10.925907,-5.757436 -18.240492,-4.498804 -29.045369,0 0.141186,-6.840992 0.797932,-26.458637 11.295431,-26.357867 2.991658,0.02866 5.728391,3.743626 8.068151,5.295939 5.366937,3.562094 11.543097,4.758601 17.749937,2.809335 10.16347,-3.192572 5.31611,-15.02969 -2.42045,-18.05412 v -0.806815 c 9.02425,-0.394453 13.59,-6.250563 17.74997,-13.71587 -8.84272,-3.919591 -17.25539,-6.149227 -25.01131,0.806818 C 106.78979,11.924754 101.2307,6.8051853 94.761653,2.3812507 M 32.367918,61.010136 32.098932,61.547477 Z"
       id="path1178" />
  </g>
</svg>
