<svg width="512" height="512" viewBox="0 0 135.467 135.467" xmlns="http://www.w3.org/2000/svg"><path style="fill:#000;stroke:none;stroke-width:.615648" d="M56.024 2.381v8.634h-5.54V8.552h-5.542v10.452h5.541v-3.078h5.54v8.003h-5.54v-2.448h-5.54v10.466h5.54v-2.463h5.54v4.925h5.527c0 11.028 2.474 25.882-1.52 36.323-5.028 13.145-17.926 22.463-17.556 37.555.2 8.216 3.914 17.903 11.073 22.435 3.599 2.278 7.036 1.97 11.081 2.246 13.855.95 22.989-3.772 27.23-17.909 5.473-18.245-10.164-28.945-16.106-44.327-3.923-10.154-.658-25.46-.658-36.323h4.94v-4.925h6.374v2.463h5.437V21.48h-5.437v2.448h-6.374v-8.003h6.314l.06 3.092h5.437V8.552h-5.437v2.463h-6.374V2.38h-24.01m10.45 89.471c17.011-2.31 20.708 24.208 3.695 26.716-17.317 2.552-21.092-24.353-3.694-26.716m14.223 29.98v4.903l-25.92.022v-4.926z"/></svg>