<?xml version="1.0" encoding="UTF-8" standalone="no"?>
<!-- Created with Inkscape (http://www.inkscape.org/) -->

<svg
   width="512"
   height="512"
   viewBox="0 0 135.46666 135.46666"
   version="1.1"
   id="svg1304"
   inkscape:version="1.1 (c68e22c387, 2021-05-23)"
   sodipodi:docname="berserker.svg"
   xmlns:inkscape="http://www.inkscape.org/namespaces/inkscape"
   xmlns:sodipodi="http://sodipodi.sourceforge.net/DTD/sodipodi-0.dtd"
   xmlns="http://www.w3.org/2000/svg"
   xmlns:svg="http://www.w3.org/2000/svg">
  <sodipodi:namedview
     id="namedview1306"
     pagecolor="#505050"
     bordercolor="#eeeeee"
     borderopacity="1"
     inkscape:pageshadow="0"
     inkscape:pageopacity="0"
     inkscape:pagecheckerboard="0"
     inkscape:document-units="px"
     showgrid="false"
     width="512mm"
     units="px"
     inkscape:zoom="0.68966434"
     inkscape:cx="-109.47354"
     inkscape:cy="200.82233"
     inkscape:window-width="1920"
     inkscape:window-height="1017"
     inkscape:window-x="1912"
     inkscape:window-y="-8"
     inkscape:window-maximized="1"
     inkscape:current-layer="layer1" />
  <defs
     id="defs1301">
    <filter
       style="color-interpolation-filters:sRGB;"
       inkscape:label="Colorize"
       id="filter139057"
       x="0"
       y="0"
       width="1"
       height="1">
      <feColorMatrix
         values="0.21 0.72 0.072 0 0 0.21 0.72 0.072 0 0 0.21 0.72 0.072 0 0 0 0 0 1 0 "
         id="feColorMatrix139055"
         result="fbSourceGraphic" />
      <feColorMatrix
         result="fbSourceGraphicAlpha"
         in="fbSourceGraphic"
         values="0 0 0 -1 0 0 0 0 -1 0 0 0 0 -1 0 0 0 0 1 0"
         id="feColorMatrix139265" />
      <feComposite
         in2="fbSourceGraphic"
         id="feComposite139267"
         operator="arithmetic"
         k1="0"
         k2="1"
         result="composite1"
         in="fbSourceGraphic" />
      <feColorMatrix
         id="feColorMatrix139269"
         in="composite1"
         values="1"
         type="saturate"
         result="colormatrix1" />
      <feFlood
         id="feFlood139271"
         flood-opacity="1"
         flood-color="rgb(0,0,0)"
         result="flood1" />
      <feBlend
         in2="colormatrix1"
         id="feBlend139273"
         in="flood1"
         mode="multiply"
         result="blend1" />
      <feBlend
         in2="blend1"
         id="feBlend139275"
         mode="screen"
         result="blend2" />
      <feColorMatrix
         id="feColorMatrix139277"
         in="blend2"
         values="1"
         type="saturate"
         result="colormatrix2" />
      <feComposite
         in2="fbSourceGraphic"
         id="feComposite139279"
         in="colormatrix2"
         operator="in"
         k2="1"
         result="composite2" />
    </filter>
  </defs>
  <g
     inkscape:label="Layer 1"
     inkscape:groupmode="layer"
     id="layer1">
    <path
       style="fill:#000000;stroke-width:0.730244"
       d="m 53.568037,128.52135 c -9.814249,-4.31983 -10.533491,-4.78066 -13.947484,-8.93617 -3.01413,-3.66882 -3.970826,-5.62857 -5.881971,-12.04901 -1.255304,-4.21715 -3.131859,-11.512355 -4.170121,-16.211579 l -1.887748,-8.544031 2.782512,-4.165509 c 3.933308,-5.888288 12.354378,-10.898504 23.109335,-13.749159 7.165718,-1.89931 8.542426,-2.038223 16.385598,-1.653348 10.996006,0.539591 15.667501,1.63074 28.721399,6.708613 9.860323,3.835605 10.757303,4.341101 11.879763,6.694922 1.11398,2.336024 1.12288,3.098916 0.10785,9.248091 -0.60841,3.686118 -2.47079,12.124085 -4.1386,18.75104 -2.92691,11.62993 -3.17277,12.23546 -7.06844,17.41024 -2.219812,2.94869 -4.798367,5.65109 -5.730083,6.00533 -0.931736,0.35423 -5.556517,0.97899 -10.277313,1.38833 -4.720778,0.40935 -10.876397,1.40381 -13.679146,2.20991 -2.802732,0.80611 -5.267308,1.46147 -5.47681,1.45636 -0.209519,-0.005 -5.037467,-2.05893 -10.728811,-4.56403 z M 27.2074,66.84206 c -1.95888,-1.696236 -4.040696,-12.942147 -3.35349,-18.115439 0.396144,-2.982173 1.002685,-4.112522 3.415218,-6.36459 2.639767,-2.464188 3.328428,-2.73841 6.877078,-2.73841 3.094384,0 4.465407,0.398038 6.367073,1.848504 2.157055,1.645269 2.473005,2.347777 2.873657,6.389625 0.247594,2.497612 0.642069,6.041195 0.876644,7.874628 l 0.426481,3.333522 -4.119476,3.110226 C 34.042898,67.108584 29.389819,68.731877 27.2074,66.84206 Z m 71.025214,-2.882245 c -1.848319,-0.369809 -4.741875,-4.521559 -4.741875,-6.80375 0,-3.454419 3.26449,-11.828936 5.737107,-14.71764 2.357444,-2.754138 2.652144,-2.883996 5.496814,-2.422139 1.72876,0.28068 3.8801,1.309246 5.06365,2.420966 1.95378,1.835203 2.03257,2.154501 1.55783,6.314401 -0.61142,5.357438 -1.71383,7.598174 -5.98444,12.163795 -3.17782,3.397344 -3.87561,3.695326 -7.129086,3.044367 z M 53.463806,58.226462 c -2.777835,-3.155809 -2.937385,-3.607441 -3.546852,-10.040834 -0.588511,-6.211895 -0.517394,-6.935401 0.913312,-9.292249 1.322849,-2.179149 2.272054,-2.750375 6.440161,-3.875672 l 4.888633,-1.319823 2.459193,2.050065 c 3.195518,2.663885 4.04424,5.103904 4.04424,11.626781 0,4.954847 -0.167503,5.533105 -2.307543,7.970596 -1.858083,2.116236 -8.209955,6.185572 -9.655123,6.185572 -0.18003,0 -1.63623,-1.487002 -3.236021,-3.304436 z m 25.787215,1.102695 c -0.803274,-0.356768 -2.271949,-1.295399 -3.263716,-2.085843 -1.731894,-1.380311 -1.797681,-1.742885 -1.663133,-9.165705 0.178534,-9.849949 1.278193,-11.772335 7.154001,-12.50647 3.299099,-0.412194 4.152377,-0.245175 6.098576,1.193703 2.138986,1.581424 2.262779,1.940889 2.262779,6.570397 0,6.919932 -2.241067,13.827924 -5.018216,15.468428 -2.36411,1.396508 -3.391085,1.493398 -5.570291,0.52549 z M 28.047294,33.234 c 0.207237,-0.702858 2.06558,-7.192889 4.129651,-14.422291 2.064071,-7.229401 3.806159,-13.1992086 3.871307,-13.2662416 0.06515,-0.067038 0.06853,5.5087286 0.0076,12.3905806 l -0.110935,12.51246 -2.273876,2.031707 c -2.621649,2.342442 -6.234886,2.826752 -5.623672,0.753785 z m 76.397086,0.309 c -1.40571,-0.471175 -3.25501,-1.321376 -4.10954,-1.889335 -1.54331,-1.025762 -1.54463,-1.052564 -0.19859,-4.016335 1.03859,-2.286784 1.35883,-4.766055 1.37112,-10.614715 0.0106,-4.864871 0.26965,-7.3774205 0.71569,-6.93139 1.0836,1.083607 9.52375,20.104128 9.52375,21.462512 0,2.851813 -2.60884,3.562487 -7.30243,1.989263 z M 51.319244,32.536082 c -2.322622,-0.447354 -2.168597,-3.844224 0.42363,-9.342918 1.138244,-2.414493 2.826573,-8.268214 3.760787,-13.039308 0.980366,-5.0068053 1.924627,-8.2402375 2.239135,-7.6675471 0.299129,0.5446688 1.572413,3.9156907 2.829546,7.4911583 2.461022,6.9996168 3.733445,14.0460118 3.188428,17.6568628 -0.310092,2.054479 -0.767751,2.388313 -5.255767,3.833775 -2.703848,0.870832 -5.057085,1.538582 -5.229409,1.483888 -0.172254,-0.0547 -1.05268,-0.241854 -1.95635,-0.415911 z m 28.314006,-2.36828 c -1.718222,-1.319262 -1.764162,-1.546196 -0.920349,-4.546724 0.488467,-1.736985 1.949013,-7.676532 3.245628,-13.19899 1.296633,-5.5224597 2.568686,-10.0408356 2.826784,-10.0408356 0.258116,0 1.466739,1.889504 2.685867,4.1988947 1.614008,3.057466 2.440417,5.9854779 3.039998,10.7710769 0.45289,3.614701 0.988019,7.393748 1.189195,8.397883 0.336472,1.679438 -0.0299,1.97195 -4.572151,3.651214 -2.715884,1.004031 -5.106369,1.899881 -5.312211,1.990778 -0.20586,0.09089 -1.18809,-0.459587 -2.182761,-1.223297 z"
       id="path139839" />
  </g>
</svg>
