<?xml version="1.0" encoding="UTF-8" standalone="no"?>
<!-- Created with Inkscape (http://www.inkscape.org/) -->

<svg
   width="512"
   height="512"
   viewBox="0 0 135.46666 135.46666"
   version="1.1"
   id="svg1304"
   inkscape:version="1.1 (c68e22c387, 2021-05-23)"
   sodipodi:docname="bonedancer.svg"
   xmlns:inkscape="http://www.inkscape.org/namespaces/inkscape"
   xmlns:sodipodi="http://sodipodi.sourceforge.net/DTD/sodipodi-0.dtd"
   xmlns="http://www.w3.org/2000/svg"
   xmlns:svg="http://www.w3.org/2000/svg">
  <sodipodi:namedview
     id="namedview1306"
     pagecolor="#505050"
     bordercolor="#eeeeee"
     borderopacity="1"
     inkscape:pageshadow="0"
     inkscape:pageopacity="0"
     inkscape:pagecheckerboard="0"
     inkscape:document-units="px"
     showgrid="false"
     width="512mm"
     units="px"
     inkscape:zoom="1"
     inkscape:cx="136.5"
     inkscape:cy="281.5"
     inkscape:window-width="1920"
     inkscape:window-height="1017"
     inkscape:window-x="1912"
     inkscape:window-y="-8"
     inkscape:window-maximized="1"
     inkscape:current-layer="layer1" />
  <defs
     id="defs1301">
    <filter
       style="color-interpolation-filters:sRGB;"
       inkscape:label="Colorize"
       id="filter139057"
       x="0"
       y="0"
       width="1"
       height="1">
      <feColorMatrix
         values="0.21 0.72 0.072 0 0 0.21 0.72 0.072 0 0 0.21 0.72 0.072 0 0 0 0 0 1 0 "
         id="feColorMatrix139055"
         result="fbSourceGraphic" />
      <feColorMatrix
         result="fbSourceGraphicAlpha"
         in="fbSourceGraphic"
         values="0 0 0 -1 0 0 0 0 -1 0 0 0 0 -1 0 0 0 0 1 0"
         id="feColorMatrix139265" />
      <feComposite
         in2="fbSourceGraphic"
         id="feComposite139267"
         operator="arithmetic"
         k1="0"
         k2="1"
         result="composite1"
         in="fbSourceGraphic" />
      <feColorMatrix
         id="feColorMatrix139269"
         in="composite1"
         values="1"
         type="saturate"
         result="colormatrix1" />
      <feFlood
         id="feFlood139271"
         flood-opacity="1"
         flood-color="rgb(0,0,0)"
         result="flood1" />
      <feBlend
         in2="colormatrix1"
         id="feBlend139273"
         in="flood1"
         mode="multiply"
         result="blend1" />
      <feBlend
         in2="blend1"
         id="feBlend139275"
         mode="screen"
         result="blend2" />
      <feColorMatrix
         id="feColorMatrix139277"
         in="blend2"
         values="1"
         type="saturate"
         result="colormatrix2" />
      <feComposite
         in2="fbSourceGraphic"
         id="feComposite139279"
         in="colormatrix2"
         operator="in"
         k2="1"
         result="composite2" />
    </filter>
  </defs>
  <g
     inkscape:label="Layer 1"
     inkscape:groupmode="layer"
     id="layer1">
    <path
       style="fill:#000000;stroke-width:0.667399"
       d="m 80.834276,121.90602 -1.702452,-2.23205 v -3.86802 -3.86803 l 6.465202,-6.58051 6.465215,-6.580499 H 91.34361 90.624966 l -12.587414,2.676879 -12.5874,2.67688 -1.334808,0.58699 -1.334794,0.58699 5.245603,2.51791 5.245617,2.51792 -0.344717,2.57001 -0.344703,2.57001 -1.226915,2.96639 -1.226915,2.9664 -3.455112,0.43168 -3.455112,0.4317 -1.763973,-1.23835 -1.763974,-1.23835 0.331798,-5.80875 0.331812,-5.80875 -3.792187,-1.38872 -3.7922,-1.38872 -0.769191,-0.26486 -0.769191,-0.26485 -3.765438,-4.71928 -3.76544,-4.719283 -2.493637,-1.27216 -2.493638,-1.272156 -6.916565,-10.23889 -6.916563,-10.238883 -3.407534,-3.535985 -3.407534,-3.535985 -7.841934,-4.132319 -7.8419343,-4.132313 v -3.012889 -3.012892 l 3.413781,-4.168432 3.4137796,-4.168426 h 2.2021897 2.202189 l 1.189379,5.045081 1.18938,5.045073 3.236997,2.376173 3.236997,2.376179 0.185158,-0.246717 0.185158,-0.246717 6.429684,-11.178928 6.429685,-11.178927 h -0.267774 -0.267772 l -2.269479,1.339025 -2.269478,1.339026 -2.172854,-0.434571 -2.172854,-0.43457 -2.936782,-3.7409 -2.936781,-3.740899 0.0087,-1.334797 0.0087,-1.334797 0.404368,-1.509077 0.40437,-1.509078 6.577761,-3.72436 6.577759,-3.724359 1.85179,0.610672 1.851789,0.610673 1.545525,2.776312 1.545525,2.776311 12.469847,-0.384128 12.469852,-0.384128 17.088685,-2.247638 17.088703,-2.247637 7.42133,-3.039572 7.42134,-3.039573 3.68501,2.846 3.68503,2.846001 0.003,2.095626 0.003,2.095625 -3.02433,4.108274 -3.02434,4.108272 -1.96097,-1.396333 -1.96098,-1.396333 -0.39326,-0.636325 -0.39352,-0.636324 -2.46337,0.0469 -2.46335,0.04692 -1.13353,0.453639 -1.13351,0.453641 6.46433,12.346875 6.46433,12.346875 0.23954,-1.638222 0.23955,-1.638224 -1.16065,-3.833367 -1.16065,-3.83337 0.8073,-1.948969 0.80728,-1.948969 3.45919,-0.415573 3.45919,-0.415572 1.42772,-0.0058 1.4277,-0.0058 1.43084,1.167947 1.43084,1.167948 1.59334,5.809062 1.59334,5.80906 -0.71416,2.326952 -0.71417,2.326946 -1.81853,0.75326 -1.81855,0.753265 -5.92357,8.129391 -5.92359,8.129407 -5.15498,6.119539 -5.15498,6.119538 -3.74659,6.561036 -3.746593,6.561035 -3.315424,5.339188 -3.315411,5.33919 -2.298925,4.48828 -2.298939,4.48829 v 2.54235 2.54236 l -1.938311,1.145 -1.938324,1.14499 h -0.363606 -0.363619 z m -3.704651,-26.132399 17.018665,-3.670099 0.451617,-3e-4 0.451631,-2.94e-4 1.708817,-3.73256 1.708831,-3.732561 -7.499639,-8.018134 -7.499639,-8.018133 -5.614703,0.380095 -5.614689,0.380098 -0.523583,0.525369 -0.523583,0.525369 -7.415407,13.566453 -7.415421,13.566453 0.787985,0.949464 0.787998,0.94947 1.086221,-2.9e-4 1.086235,-3e-4 z m -18.353472,-14.101627 6.006595,-11.076469 0.220233,-0.585387 0.220247,-0.58539 -14.569309,0.416217 -14.569315,0.416217 -0.870119,0.457948 -0.87012,0.457949 2.976499,3.624089 2.9765,3.624088 2.649964,4.577487 2.649961,4.577494 3.252444,2.543042 3.252435,2.54305 0.333702,0.04305 0.333702,0.04305 6.006581,-11.076468 z m 45.595397,-8.256889 2.88188,-5.338528 -5.21778,0.03844 -5.217772,0.03844 -2.641901,0.468908 -2.641915,0.468907 4.5581,4.831819 4.558108,4.83182 0.4197,-6.61e-4 0.41971,-6.53e-4 2.88187,-5.338535 z m -44.574872,-9.752656 9.029318,-0.392478 1.685645,-3.161166 1.685657,-3.161168 -12.274436,-12.955843 -12.274434,-12.955843 -1.373866,-0.514886 -1.373867,-0.514886 -0.145235,0.181186 -0.145237,0.181187 -9.06938,15.674989 -9.069382,15.674989 1.469579,1.574274 1.469578,1.574279 10.678379,-0.406079 10.678377,-0.406085 z m 18.000338,-0.509645 v -0.251978 l -1.001093,-0.830837 -1.001105,-0.830838 v 1.08282 1.082815 h 1.001105 1.001093 z m 27.226994,-0.997749 6.87133,-0.418765 1.25398,-2.002197 1.25397,-2.002196 -7.7916,-15.350169 -7.791613,-15.350168 h -1.94458 -1.944594 l -4.94341,9.009881 -4.943424,9.009882 -2.965281,5.423675 -2.965282,5.423682 3.074304,3.419351 3.07429,3.419356 6.445293,-0.08178 6.44528,-0.08178 z M 81.854203,39.31885 87.807993,28.419494 v -0.557359 -0.557359 l -2.169042,0.346279 -2.169043,0.346282 -7.007687,0.666837 -7.007686,0.666838 -7.469681,0.44447 -7.469694,0.44447 10.116206,10.575538 10.116205,10.575537 0.576414,-0.576411 0.5764,-0.576406 z"
       id="path148035" />
  </g>
</svg>
