<?xml version="1.0" encoding="UTF-8" standalone="no"?>
<!-- Created with Inkscape (http://www.inkscape.org/) -->

<svg
   width="512"
   height="512"
   viewBox="0 0 135.46666 135.46666"
   version="1.1"
   id="svg1304"
   inkscape:version="1.1 (c68e22c387, 2021-05-23)"
   sodipodi:docname="cabalist.svg"
   xmlns:inkscape="http://www.inkscape.org/namespaces/inkscape"
   xmlns:sodipodi="http://sodipodi.sourceforge.net/DTD/sodipodi-0.dtd"
   xmlns="http://www.w3.org/2000/svg"
   xmlns:svg="http://www.w3.org/2000/svg">
  <sodipodi:namedview
     id="namedview1306"
     pagecolor="#505050"
     bordercolor="#eeeeee"
     borderopacity="1"
     inkscape:pageshadow="0"
     inkscape:pageopacity="0"
     inkscape:pagecheckerboard="0"
     inkscape:document-units="px"
     showgrid="false"
     width="512mm"
     units="px"
     inkscape:zoom="1.4142136"
     inkscape:cx="254.91199"
     inkscape:cy="276.1252"
     inkscape:window-width="1920"
     inkscape:window-height="1017"
     inkscape:window-x="1912"
     inkscape:window-y="-8"
     inkscape:window-maximized="1"
     inkscape:current-layer="layer1" />
  <defs
     id="defs1301">
    <filter
       style="color-interpolation-filters:sRGB;"
       inkscape:label="Colorize"
       id="filter139057"
       x="0"
       y="0"
       width="1"
       height="1">
      <feColorMatrix
         values="0.21 0.72 0.072 0 0 0.21 0.72 0.072 0 0 0.21 0.72 0.072 0 0 0 0 0 1 0 "
         id="feColorMatrix139055"
         result="fbSourceGraphic" />
      <feColorMatrix
         result="fbSourceGraphicAlpha"
         in="fbSourceGraphic"
         values="0 0 0 -1 0 0 0 0 -1 0 0 0 0 -1 0 0 0 0 1 0"
         id="feColorMatrix139265" />
      <feComposite
         in2="fbSourceGraphic"
         id="feComposite139267"
         operator="arithmetic"
         k1="0"
         k2="1"
         result="composite1"
         in="fbSourceGraphic" />
      <feColorMatrix
         id="feColorMatrix139269"
         in="composite1"
         values="1"
         type="saturate"
         result="colormatrix1" />
      <feFlood
         id="feFlood139271"
         flood-opacity="1"
         flood-color="rgb(0,0,0)"
         result="flood1" />
      <feBlend
         in2="colormatrix1"
         id="feBlend139273"
         in="flood1"
         mode="multiply"
         result="blend1" />
      <feBlend
         in2="blend1"
         id="feBlend139275"
         mode="screen"
         result="blend2" />
      <feColorMatrix
         id="feColorMatrix139277"
         in="blend2"
         values="1"
         type="saturate"
         result="colormatrix2" />
      <feComposite
         in2="fbSourceGraphic"
         id="feComposite139279"
         in="colormatrix2"
         operator="in"
         k2="1"
         result="composite2" />
    </filter>
  </defs>
  <g
     inkscape:label="Layer 1"
     inkscape:groupmode="layer"
     id="layer1">
    <path
       style="fill:#000000;stroke-width:0.602303"
       d="m 51.077987,131.13239 c -1.338098,-1.0719 -2.435336,-2.21994 -2.438309,-2.55121 -0.0029,-0.33127 1.048189,-1.80225 2.335915,-3.26885 l 2.34132,-2.66654 -1.242415,-2.43533 c -0.683326,-1.33943 -1.376049,-4.10011 -1.539375,-6.13487 -0.639051,-7.96119 3.964546,-15.102371 11.449057,-17.759991 1.862072,-0.661182 2.25864,-1.090512 2.25864,-2.445181 0,-1.464753 -0.344633,-1.743361 -3.173914,-2.565857 C 48.650487,87.69443 41.89329,74.130435 46.177604,61.412642 c 0.701491,-2.082346 1.03746,-3.947994 0.746599,-4.145882 -0.290862,-0.197886 -1.539222,-0.999072 -2.774136,-1.78041 -2.482182,-1.570509 -2.542493,-0.961755 0.573204,-5.785769 l 0.958792,-1.484495 3.082889,2.076137 c 2.826341,1.903371 3.185111,2.001968 4.311364,1.184876 2.18657,-1.586356 5.987946,-3.484375 8.456136,-4.222133 2.05911,-0.615481 2.409215,-0.963066 2.409215,-2.39186 0,-1.511802 -0.301663,-1.74893 -3.153331,-2.478725 C 51.2989,39.95586 43.563545,32.658788 40.689449,23.4243 c -0.627607,-2.016501 -1.141102,-4.381574 -1.141102,-5.255716 0,-1.176347 -1.20744,-2.803912 -4.64656,-6.263322 L 30.255229,7.2312905 32.6232,4.8062673 34.991172,2.3812464 40.582433,7.9492586 c 5.481387,5.4585944 5.591261,5.6240234 5.591261,8.4182604 0,6.938915 5.211058,14.484853 12.471138,18.058977 3.480535,1.71346 4.530906,1.941897 8.928996,1.941897 4.540568,0 5.389022,-0.199954 9.527593,-2.245346 7.148905,-3.533182 11.471009,-9.68878 12.215213,-17.397068 l 0.36564,-3.787221 5.181207,-5.2650777 5.181209,-5.2650772 2.58337,2.5353871 2.58337,2.5353877 -4.43796,4.5366031 c -4.135155,4.227055 -4.506025,4.824284 -5.435234,8.752733 -1.430913,6.04944 -3.672485,10.22108 -7.605553,14.154149 -3.720628,3.720633 -8.542525,6.415723 -13.46022,7.523281 -2.826553,0.636597 -3.103143,0.848514 -3.103143,2.377577 0,1.520185 0.330978,1.781093 3.505416,2.76328 1.927982,0.596528 4.577392,1.793992 5.887572,2.661029 l 2.382156,1.576436 2.634448,-1.812548 2.63445,-1.812549 0.964272,1.492854 c 3.087954,4.780683 3.049491,4.160129 0.367922,5.934704 -2.303043,1.524083 -2.381616,1.674796 -1.541508,2.956957 0.486879,0.74307 1.334551,3.10491 1.883726,5.24854 3.057858,11.935959 -4.395629,24.468123 -16.459813,27.675269 -2.219292,0.589984 -2.559794,0.898958 -2.559794,2.322823 0,1.4163 0.395769,1.782897 2.875679,2.663682 9.166382,3.25561 13.72803,14.060362 9.790027,23.188722 l -1.357992,3.14783 2.47449,2.95549 2.474481,2.9555 -2.650432,2.17184 -2.650434,2.17183 -2.315812,-2.72152 -2.315812,-2.72151 -3.448204,1.22227 c -4.400813,1.55995 -7.98356,1.5479 -12.230673,-0.0412 -1.857252,-0.69489 -3.464243,-1.1692 -3.571085,-1.05404 -0.106834,0.11516 -1.147636,1.35746 -2.312884,2.76063 l -2.118629,2.55121 z m 20.693636,-8.80918 c 7.642199,-3.52711 8.671849,-13.31133 1.915851,-18.20536 -1.937973,-1.40386 -3.02135,-1.73691 -5.649955,-1.73691 -3.632232,0 -5.730467,0.88068 -8.123086,3.40947 -3.143564,3.32248 -3.700316,7.20384 -1.642958,11.45377 2.568983,5.30681 8.319231,7.47018 13.500148,5.07903 z m 3.507249,-38.820553 c 5.55095,-3.253076 8.348097,-8.004533 8.387959,-14.248453 0.03102,-4.860697 -1.917761,-9.080458 -5.681337,-12.301937 -10.344358,-8.854389 -26.482685,-1.176939 -26.364627,12.54239 0.06175,7.174526 4.61927,13.263745 11.501344,15.366702 3.4088,1.041624 9.157089,0.399164 12.156661,-1.358702 z"
       id="path148367" />
  </g>
</svg>
