<?xml version="1.0" encoding="UTF-8" standalone="no"?>
<!-- Created with Inkscape (http://www.inkscape.org/) -->

<svg
   width="512"
   height="512"
   viewBox="0 0 135.46666 135.46666"
   version="1.1"
   id="svg1304"
   inkscape:version="1.1 (c68e22c387, 2021-05-23)"
   sodipodi:docname="druid.svg"
   xmlns:inkscape="http://www.inkscape.org/namespaces/inkscape"
   xmlns:sodipodi="http://sodipodi.sourceforge.net/DTD/sodipodi-0.dtd"
   xmlns="http://www.w3.org/2000/svg"
   xmlns:svg="http://www.w3.org/2000/svg">
  <sodipodi:namedview
     id="namedview1306"
     pagecolor="#505050"
     bordercolor="#eeeeee"
     borderopacity="1"
     inkscape:pageshadow="0"
     inkscape:pageopacity="0"
     inkscape:pagecheckerboard="0"
     inkscape:document-units="px"
     showgrid="false"
     width="512mm"
     units="px"
     inkscape:zoom="1"
     inkscape:cx="170.5"
     inkscape:cy="199.5"
     inkscape:window-width="1920"
     inkscape:window-height="1017"
     inkscape:window-x="1912"
     inkscape:window-y="-8"
     inkscape:window-maximized="1"
     inkscape:current-layer="layer1" />
  <defs
     id="defs1301">
    <filter
       style="color-interpolation-filters:sRGB;"
       inkscape:label="Colorize"
       id="filter139057"
       x="0"
       y="0"
       width="1"
       height="1">
      <feColorMatrix
         values="0.21 0.72 0.072 0 0 0.21 0.72 0.072 0 0 0.21 0.72 0.072 0 0 0 0 0 1 0 "
         id="feColorMatrix139055"
         result="fbSourceGraphic" />
      <feColorMatrix
         result="fbSourceGraphicAlpha"
         in="fbSourceGraphic"
         values="0 0 0 -1 0 0 0 0 -1 0 0 0 0 -1 0 0 0 0 1 0"
         id="feColorMatrix139265" />
      <feComposite
         in2="fbSourceGraphic"
         id="feComposite139267"
         operator="arithmetic"
         k1="0"
         k2="1"
         result="composite1"
         in="fbSourceGraphic" />
      <feColorMatrix
         id="feColorMatrix139269"
         in="composite1"
         values="1"
         type="saturate"
         result="colormatrix1" />
      <feFlood
         id="feFlood139271"
         flood-opacity="1"
         flood-color="rgb(0,0,0)"
         result="flood1" />
      <feBlend
         in2="colormatrix1"
         id="feBlend139273"
         in="flood1"
         mode="multiply"
         result="blend1" />
      <feBlend
         in2="blend1"
         id="feBlend139275"
         mode="screen"
         result="blend2" />
      <feColorMatrix
         id="feColorMatrix139277"
         in="blend2"
         values="1"
         type="saturate"
         result="colormatrix2" />
      <feComposite
         in2="fbSourceGraphic"
         id="feComposite139279"
         in="colormatrix2"
         operator="in"
         k2="1"
         result="composite2" />
    </filter>
  </defs>
  <g
     inkscape:label="Layer 1"
     inkscape:groupmode="layer"
     id="layer1">
    <path
       style="fill:#000000;stroke-width:0.87721"
       d="m 106.48746,132.51018 c -1.92986,-0.15414 -7.200721,-0.52242 -11.713028,-0.81836 l -8.20419,-0.53805 0.579572,-4.63881 c 0.318768,-2.55132 1.292077,-6.99198 2.162909,-9.86814 l 1.583329,-5.22939 -5.268363,-30.662608 -5.268365,-30.6626 0.627127,-4.181993 0.627135,-4.181982 12.436938,0.311779 12.436936,0.311777 4.30365,1.972433 4.30367,1.97244 -0.58326,16.145841 -0.58325,16.145852 5.77675,24.185371 5.77678,24.18537 -1.89312,3.06314 -1.89314,3.06316 -5.84962,-0.14741 c -3.21729,-0.0811 -7.4286,-0.2736 -9.35846,-0.42776 z m -92.642413,-0.95334 -7.5530812,-0.29058 -1.8940153,-2.01609 -1.894017,-2.01609 7.8802015,-19.51513 7.880199,-19.515136 1.008695,-21.200385 1.008696,-21.200384 1.605385,-3.728141 1.605388,-3.728141 H 33.935114 44.37773 l 1.608915,3.567943 1.608927,3.567946 -2.782464,24.722066 c -1.530352,13.597135 -3.18177,31.735072 -3.669818,40.306532 l -0.887361,15.58444 -1.972619,3.04539 -1.972619,3.0454 -7.456282,-0.16946 c -4.100956,-0.0933 -10.855169,-0.30029 -15.009362,-0.4601 z M 120.08421,38.776999 111.75072,36.769116 62.626979,35.784386 13.503241,34.799656 10.438797,35.696 c -1.6854422,0.492988 -3.1577122,0.896343 -3.2717082,0.896343 -0.113988,0 -0.95075,-1.480292 -1.859452,-3.289536 L 3.6554493,30.013271 3.053307,23.138768 2.4511611,16.264267 3.9296314,12.39295 5.4080998,8.521635 23.491024,8.514535 c 24.549134,-0.0098 66.835885,-2.187527 84.550526,-4.354358 7.99885,-0.978409 15.69586,-1.778925 17.1045,-1.778925 h 2.56112 l 1.4948,1.651729 1.49481,1.651726 0.82364,11.287114 c 0.453,6.207915 0.97471,12.942143 1.15936,14.964954 l 0.33572,3.677837 -2.2989,2.585175 -2.2989,2.585178 z"
       id="path152037" />
  </g>
</svg>
