<?xml version="1.0" encoding="UTF-8" standalone="no"?>
<!-- Created with Inkscape (http://www.inkscape.org/) -->

<svg
   width="512"
   height="512"
   viewBox="0 0 135.46666 135.46666"
   version="1.1"
   id="svg1304"
   inkscape:version="1.1 (c68e22c387, 2021-05-23)"
   sodipodi:docname="enchanter.svg"
   xmlns:inkscape="http://www.inkscape.org/namespaces/inkscape"
   xmlns:sodipodi="http://sodipodi.sourceforge.net/DTD/sodipodi-0.dtd"
   xmlns="http://www.w3.org/2000/svg"
   xmlns:svg="http://www.w3.org/2000/svg">
  <sodipodi:namedview
     id="namedview1306"
     pagecolor="#505050"
     bordercolor="#eeeeee"
     borderopacity="1"
     inkscape:pageshadow="0"
     inkscape:pageopacity="0"
     inkscape:pagecheckerboard="0"
     inkscape:document-units="px"
     showgrid="false"
     width="512mm"
     units="px"
     inkscape:zoom="0.70710678"
     inkscape:cx="92.630988"
     inkscape:cy="275.06454"
     inkscape:window-width="1920"
     inkscape:window-height="1017"
     inkscape:window-x="1912"
     inkscape:window-y="-8"
     inkscape:window-maximized="1"
     inkscape:current-layer="layer1" />
  <defs
     id="defs1301">
    <filter
       style="color-interpolation-filters:sRGB;"
       inkscape:label="Colorize"
       id="filter139057"
       x="0"
       y="0"
       width="1"
       height="1">
      <feColorMatrix
         values="0.21 0.72 0.072 0 0 0.21 0.72 0.072 0 0 0.21 0.72 0.072 0 0 0 0 0 1 0 "
         id="feColorMatrix139055"
         result="fbSourceGraphic" />
      <feColorMatrix
         result="fbSourceGraphicAlpha"
         in="fbSourceGraphic"
         values="0 0 0 -1 0 0 0 0 -1 0 0 0 0 -1 0 0 0 0 1 0"
         id="feColorMatrix139265" />
      <feComposite
         in2="fbSourceGraphic"
         id="feComposite139267"
         operator="arithmetic"
         k1="0"
         k2="1"
         result="composite1"
         in="fbSourceGraphic" />
      <feColorMatrix
         id="feColorMatrix139269"
         in="composite1"
         values="1"
         type="saturate"
         result="colormatrix1" />
      <feFlood
         id="feFlood139271"
         flood-opacity="1"
         flood-color="rgb(0,0,0)"
         result="flood1" />
      <feBlend
         in2="colormatrix1"
         id="feBlend139273"
         in="flood1"
         mode="multiply"
         result="blend1" />
      <feBlend
         in2="blend1"
         id="feBlend139275"
         mode="screen"
         result="blend2" />
      <feColorMatrix
         id="feColorMatrix139277"
         in="blend2"
         values="1"
         type="saturate"
         result="colormatrix2" />
      <feComposite
         in2="fbSourceGraphic"
         id="feComposite139279"
         in="colormatrix2"
         operator="in"
         k2="1"
         result="composite2" />
    </filter>
  </defs>
  <g
     inkscape:label="Layer 1"
     inkscape:groupmode="layer"
     id="layer1">
    <path
       style="opacity:1;fill:#000000;stroke-width:0.646655"
       d="M 30.883977,99.051175 30.317643,81.51188 C 29.385468,61.025412 29.546517,65.727189 28.199249,55.793397 27.878838,53.430913 29.808764,51.018269 31.685915,49.548478 36.369553,45.881235 45.736828,38.546751 45.736828,38.546751 46.078526,38.140525 47.224262,32.320619 48.282912,25.61363 51.493022,5.2762245 52.145406,4.6974528 63.438816,2.7920091 c 3.293603,-0.5557023 6.081656,-0.5272389 9.291194,-0.037199 5.748148,0.8776601 9.482859,2.3268037 10.671378,4.1407176 1.556106,2.3748978 2.82022,7.6728123 4.590644,19.2392013 0.907184,5.926618 1.649395,11.058221 1.649395,11.403559 l 15.283383,12.38423 c 1.43835,2.494735 2.39686,3.991682 2.37741,6.526406 -0.72428,6.666825 -1.25314,13.634629 -1.55836,21.959109 -0.21581,4.712626 -0.1679,14.089113 -1.0954,21.231213 l -30.894245,33.446164 -2.951545,-2.59324 0.08574,-41.512185 2.909948,-2.723728 11.316487,-0.912852 -0.0049,-5.89264 c -0.0019,-3.240951 -0.508144,-7.60038 -0.634086,-9.742056 -0.181593,-3.086302 -0.622403,-6.706841 -3.218918,-6.437954 -3.403639,0.352472 -4.972722,5.181587 -6.159775,8.033804 -1.021835,2.455222 -4.960667,8.277036 -7.008381,7.681745 -4.443319,-1.29172 -5.969262,-5.499094 -6.917276,-7.462291 -1.950786,-4.039783 -5.108046,-7.98906 -6.371742,-7.98906 -2.170682,0 -3.92149,7.494711 -3.945916,16.891317 l -0.01271,4.928172 11.963137,0.925095 2.263297,2.0288 v 42.183833 l -2.416427,2.58663 z M 71.438254,58.049819 c 2.630194,-2.995614 6.402421,-10.949372 7.208275,-15.198706 0.714495,-3.767503 0.851851,-11.793933 0.240739,-14.073931 -0.593465,-2.214555 -2.045209,-1.769148 -5.796125,1.778307 -1.139565,1.077759 -1.961378,2.65329 -3.418712,3.233279 -0.399273,0.158912 -1.949678,0.300997 -2.340011,0.121249 -0.789884,-0.363743 -2.059444,-1.582752 -4.285195,-3.369039 -1.34894,-1.082599 -4.046827,-3.247789 -4.046827,-3.247789 -1.221509,-0.980325 -1.92231,0.789327 -2.01518,2.014649 -0.391447,5.16475 -0.831174,8.560859 -0.450977,10.824088 0.215444,1.282449 1.089047,3.746169 1.089047,3.746169 2.223264,7.647763 7.933604,16.423579 10.686673,16.423579 0.633096,0 2.040796,-1.01333 3.128219,-2.251855 z"
       id="path153333"
       sodipodi:nodetypes="ccsscssssscccccccccccsssssscccccccssssssssssssss" />
  </g>
</svg>
