<?xml version="1.0" encoding="UTF-8" standalone="no"?>
<!-- Created with Inkscape (http://www.inkscape.org/) -->

<svg
   width="512"
   height="512"
   viewBox="0 0 135.46666 135.46666"
   version="1.1"
   id="svg1304"
   inkscape:version="1.1 (c68e22c387, 2021-05-23)"
   sodipodi:docname="healer.svg"
   xmlns:inkscape="http://www.inkscape.org/namespaces/inkscape"
   xmlns:sodipodi="http://sodipodi.sourceforge.net/DTD/sodipodi-0.dtd"
   xmlns="http://www.w3.org/2000/svg"
   xmlns:svg="http://www.w3.org/2000/svg">
  <sodipodi:namedview
     id="namedview1306"
     pagecolor="#505050"
     bordercolor="#eeeeee"
     borderopacity="1"
     inkscape:pageshadow="0"
     inkscape:pageopacity="0"
     inkscape:pagecheckerboard="0"
     inkscape:document-units="px"
     showgrid="false"
     width="512mm"
     units="px"
     inkscape:zoom="0.70710678"
     inkscape:cx="68.589357"
     inkscape:cy="222.73864"
     inkscape:window-width="1920"
     inkscape:window-height="1017"
     inkscape:window-x="1912"
     inkscape:window-y="-8"
     inkscape:window-maximized="1"
     inkscape:current-layer="layer1" />
  <defs
     id="defs1301">
    <filter
       style="color-interpolation-filters:sRGB;"
       inkscape:label="Colorize"
       id="filter139057"
       x="0"
       y="0"
       width="1"
       height="1">
      <feColorMatrix
         values="0.21 0.72 0.072 0 0 0.21 0.72 0.072 0 0 0.21 0.72 0.072 0 0 0 0 0 1 0 "
         id="feColorMatrix139055"
         result="fbSourceGraphic" />
      <feColorMatrix
         result="fbSourceGraphicAlpha"
         in="fbSourceGraphic"
         values="0 0 0 -1 0 0 0 0 -1 0 0 0 0 -1 0 0 0 0 1 0"
         id="feColorMatrix139265" />
      <feComposite
         in2="fbSourceGraphic"
         id="feComposite139267"
         operator="arithmetic"
         k1="0"
         k2="1"
         result="composite1"
         in="fbSourceGraphic" />
      <feColorMatrix
         id="feColorMatrix139269"
         in="composite1"
         values="1"
         type="saturate"
         result="colormatrix1" />
      <feFlood
         id="feFlood139271"
         flood-opacity="1"
         flood-color="rgb(0,0,0)"
         result="flood1" />
      <feBlend
         in2="colormatrix1"
         id="feBlend139273"
         in="flood1"
         mode="multiply"
         result="blend1" />
      <feBlend
         in2="blend1"
         id="feBlend139275"
         mode="screen"
         result="blend2" />
      <feColorMatrix
         id="feColorMatrix139277"
         in="blend2"
         values="1"
         type="saturate"
         result="colormatrix2" />
      <feComposite
         in2="fbSourceGraphic"
         id="feComposite139279"
         in="colormatrix2"
         operator="in"
         k2="1"
         result="composite2" />
    </filter>
  </defs>
  <g
     inkscape:label="Layer 1"
     inkscape:groupmode="layer"
     id="layer1">
    <path
       style="fill:#000000;stroke-width:0.635776"
       d="m 29.47784,104.24457 -5.898625,-2.88996 -3.501933,-7.106587 -3.501933,-7.106583 -7.0970487,-6.771263 -7.0970504,-6.771262 1.7589206,-2.65791 1.7589222,-2.65791 0.9085815,0.348653 c 2.0090761,0.77096 10.8488558,7.09812 12.0386298,8.616772 0.699352,0.892673 1.99331,2.435916 2.875459,3.429436 l 1.603909,1.806404 7.559774,1.535899 c 4.157875,0.844742 7.657904,1.437768 7.777841,1.317836 0.119931,-0.119947 -3.046496,-1.765944 -7.036517,-3.657788 l -7.254581,-3.439725 -0.45839,-5.078999 -0.458388,-5.078992 -2.426171,-5.59382 -2.426172,-5.593818 -1.761922,-8.502853 -1.761922,-8.502854 1.504617,-3.212425 c 0.827541,-1.766832 1.709656,-3.085703 1.960256,-2.930822 1.250789,0.773029 5.351094,8.769144 6.665634,12.998826 0.819319,2.636257 2.528088,8.154855 3.797262,12.263553 l 2.307592,7.470361 1.395163,-0.01618 c 2.115802,-0.02448 16.279996,-2.894927 16.787066,-3.401996 0.244226,-0.244226 1.339358,-6.870601 2.433627,-14.725285 1.094271,-7.854683 2.159836,-14.45149 2.36792,-14.659572 0.208082,-0.208083 1.226696,-0.191999 2.263595,0.03574 l 1.885264,0.414074 0.470679,11.885103 c 0.258874,6.536806 0.305953,15.021186 0.104626,18.854174 l -0.366055,6.969079 1.276485,5.428539 c 0.702074,2.985706 1.675827,8.432589 2.163912,12.104191 l 0.887415,6.675642 -2.59184,4.291482 c -1.42551,2.36032 -2.809141,4.29149 -3.074731,4.29149 -0.265594,0 -1.708614,-0.43246 -3.206704,-0.96102 l -2.723805,-0.96102 -5.067937,1.95441 c -2.787365,1.07492 -6.38978,2.07197 -8.005367,2.21565 l -2.937431,0.26126 z m 61.528971,1.99426 c -1.573545,-0.44871 -4.351609,-1.41581 -6.173475,-2.14911 l -3.312485,-1.33325 -2.648373,0.93439 c -1.456599,0.51392 -2.872853,0.9344 -3.147216,0.9344 -0.274368,0 -1.682916,-1.87482 -3.1301,-4.16628 l -2.631246,-4.166287 0.673186,-5.847176 c 0.370249,-3.215948 1.242565,-8.407576 1.938478,-11.536951 l 1.265295,-5.689776 0.0032,-13.383486 c 0.0019,-7.360919 0.187128,-16.159507 0.411819,-19.552415 l 0.408522,-6.168925 1.858862,-0.408274 c 1.022377,-0.224551 1.983124,-0.284014 2.134997,-0.132145 0.151867,0.151867 1.17525,6.830899 2.274163,14.842279 1.098912,8.01138 2.07365,14.660415 2.166086,14.775637 0.263224,0.328105 15.7002,3.282108 17.165816,3.284835 l 1.31042,0.0026 3.67523,-11.920789 3.67522,-11.920789 2.64365,-4.601574 c 1.45402,-2.530866 2.82009,-4.605082 3.03572,-4.609371 0.21564,-0.0042 1.00891,1.476479 1.76282,3.290596 l 1.37075,3.298394 -1.6639,8.252168 -1.66389,8.252165 -2.47598,5.708646 -2.47597,5.708646 -0.41993,5.035367 -0.41994,5.035361 -7.3754,3.739256 c -4.056482,2.056587 -7.009092,3.754088 -6.561354,3.772221 0.447738,0.01812 3.880927,-0.729547 7.629314,-1.661498 l 6.81523,-1.694469 3.49676,-2.650877 c 4.22971,-3.206522 14.93189,-10.404885 16.1836,-10.885214 l 0.90038,-0.345498 1.68914,2.6758 1.68917,2.675807 -7.23073,6.833612 -7.23072,6.833614 -4.61073,6.973223 -4.61072,6.973227 -6.17794,2.9618 c -6.544218,3.13734 -7.675672,3.32536 -12.217707,2.03016 z M 29.795563,48.518085 C 28.136212,40.388107 26.781922,32.696804 26.786028,31.4263 l 0.0074,-2.310006 1.430495,-0.383359 c 0.786771,-0.210845 1.935796,-0.387264 2.553388,-0.392038 l 1.122892,-0.0087 0.925719,2.066272 c 0.509147,1.136448 2.099752,8.074348 3.53468,15.417551 1.434929,7.343209 2.756168,13.974421 2.936088,14.736035 l 0.327131,1.384751 -2.4416,0.677971 c -1.342881,0.37289 -2.875428,0.679576 -3.405661,0.68152 l -0.964062,0.0036 z m 65.820626,14.081953 c -1.136453,-0.334443 -2.058622,-0.957529 -2.049271,-1.384623 0.05404,-2.473165 6.313805,-31.131004 6.973492,-31.925884 0.83334,-1.004107 2.38878,-1.221757 4.08357,-0.571407 l 1.00566,0.385908 -0.0306,3.587689 c -0.0168,1.973228 -1.24476,9.595764 -2.72884,16.93897 l -2.69832,13.351283 -1.244749,0.11307 c -0.684623,0.06217 -2.174574,-0.160554 -3.311027,-0.495007 z M 42.678631,60.597817 c -0.005,-0.08741 -0.430074,-6.023972 -0.944413,-13.192341 C 41.219878,40.237109 40.794892,33.585308 40.789806,32.6237 l -0.0092,-1.748385 2.702045,0.0097 c 1.486125,0.0053 3.065889,0.240657 3.510583,0.522895 l 0.808538,0.513155 0.40529,14.41783 0.405292,14.417828 h -2.962211 c -1.629215,0 -2.966373,-0.07152 -2.971461,-0.158937 z M 84.649056,47.045794 V 33.334826 l 0.658143,-1.229754 0.658148,-1.229755 h 3.156504 c 1.73608,0 3.152347,0.214574 3.14726,0.476831 -0.005,0.262259 -0.430071,6.34186 -0.944412,13.510226 -0.514342,7.16837 -0.939327,13.677118 -0.944413,14.463892 l -0.0092,1.430493 h -2.861018 -2.86099 z"
       id="path158251" />
  </g>
</svg>
