<svg width="512" height="512" viewBox="0 0 135.467 135.467" xmlns="http://www.w3.org/2000/svg"><path style="fill:#000;stroke-width:.609473" d="m60.435 119.081-6.16-6.258 1.978-3.73c2.457-4.632 3.705-11.223 2.776-14.67-.354-1.317-1.46-3.625-2.456-5.13-1.788-2.698-8.77-9.765-11.484-11.622l-1.394-.954 2.576-3.734 2.576-3.733-9.734-9.906-9.734-9.906-2.113-8.127c-1.162-4.47-2.25-8.315-2.418-8.545-.168-.23-2.773-2.249-5.79-4.485-5.609-4.158-17.284-15.396-16.652-16.028.193-.193 2.505-.083 5.138.244l4.787.594 5.624 6.05c3.093 3.327 6.291 6.487 7.106 7.02l1.482.972 1.007-4.008c.553-2.204 2.117-6.03 3.474-8.503 2.18-3.972 2.67-4.495 4.219-4.495 3.156 0 3.262 1.614.515 7.839-1.35 3.059-2.861 7.555-3.358 9.99-.89 4.367-.877 4.526.96 11.648 1.023 3.972 2.064 7.572 2.312 8 .763 1.315 16.26 13.73 16.881 13.524.321-.107 1.104-1.684 1.738-3.505 1.633-4.68 1.14-9.718-1.655-16.948-2.561-6.624-2.344-7.566 1.677-7.266 2.351.175 2.541.353 4.744 4.428 5.017 9.287 4.323 19.617-2.137 31.782l-2.095 3.946 1.942 2.546c1.068 1.4 3.055 3.377 4.415 4.392 1.36 1.016 3.214 2.395 4.12 3.065l1.646 1.22-.176 20.276-.175 20.276zm8.295-14.288V84.58l4.114-2.993c2.263-1.647 4.887-4.11 5.832-5.476l1.718-2.481-2.764-5.697c-6.19-12.755-6.1-23.911.264-32.848 1.034-1.452 1.726-1.798 3.602-1.798 3.699 0 3.806.777 1.096 7.923-1.875 4.943-2.429 7.257-2.431 10.167-.003 3.743 1.714 9.946 2.754 9.946.964 0 16.812-13.394 17.134-14.481 2.183-7.375 3.42-12.733 3.42-14.806 0-3.544-1.49-8.911-4.01-14.443-1.741-3.819-2.028-4.97-1.519-6.088.434-.953 1.154-1.378 2.333-1.378 1.52 0 1.984.544 4.286 5.028 1.42 2.765 2.917 6.468 3.328 8.228.411 1.76 1.069 3.2 1.462 3.2.822 0 5.864-4.796 10.42-9.912l3.129-3.513 4.95-.666c2.723-.366 5.067-.55 5.209-.408.669.67-10.6 11.663-16.293 15.896l-6.388 4.75-2.24 8.274c-2.626 9.7-2.62 9.691-13.752 20.477l-7.939 7.69 2.117 2.933c3.185 4.414 3.187 4.44.534 6.484-4.201 3.236-9.907 9.573-11.503 12.777-.983 1.973-1.55 4.131-1.55 5.908 0 3.694 1.523 9.399 3.41 12.774l1.518 2.717-6.12 6.12-6.121 6.121z"/></svg>