<?xml version="1.0" encoding="UTF-8" standalone="no"?>
<!-- Created with Inkscape (http://www.inkscape.org/) -->

<svg
   width="512"
   height="512"
   viewBox="0 0 135.46666 135.46666"
   version="1.1"
   id="svg1304"
   inkscape:version="1.1 (c68e22c387, 2021-05-23)"
   sodipodi:docname="hero.svg"
   xmlns:inkscape="http://www.inkscape.org/namespaces/inkscape"
   xmlns:sodipodi="http://sodipodi.sourceforge.net/DTD/sodipodi-0.dtd"
   xmlns="http://www.w3.org/2000/svg"
   xmlns:svg="http://www.w3.org/2000/svg">
  <sodipodi:namedview
     id="namedview1306"
     pagecolor="#505050"
     bordercolor="#eeeeee"
     borderopacity="1"
     inkscape:pageshadow="0"
     inkscape:pageopacity="0"
     inkscape:pagecheckerboard="0"
     inkscape:document-units="px"
     showgrid="false"
     width="512mm"
     units="px"
     inkscape:zoom="1.4142136"
     inkscape:cx="307.2379"
     inkscape:cy="237.23432"
     inkscape:window-width="1920"
     inkscape:window-height="1017"
     inkscape:window-x="1912"
     inkscape:window-y="-8"
     inkscape:window-maximized="1"
     inkscape:current-layer="layer1" />
  <defs
     id="defs1301">
    <filter
       style="color-interpolation-filters:sRGB;"
       inkscape:label="Colorize"
       id="filter139057"
       x="0"
       y="0"
       width="1"
       height="1">
      <feColorMatrix
         values="0.21 0.72 0.072 0 0 0.21 0.72 0.072 0 0 0.21 0.72 0.072 0 0 0 0 0 1 0 "
         id="feColorMatrix139055"
         result="fbSourceGraphic" />
      <feColorMatrix
         result="fbSourceGraphicAlpha"
         in="fbSourceGraphic"
         values="0 0 0 -1 0 0 0 0 -1 0 0 0 0 -1 0 0 0 0 1 0"
         id="feColorMatrix139265" />
      <feComposite
         in2="fbSourceGraphic"
         id="feComposite139267"
         operator="arithmetic"
         k1="0"
         k2="1"
         result="composite1"
         in="fbSourceGraphic" />
      <feColorMatrix
         id="feColorMatrix139269"
         in="composite1"
         values="1"
         type="saturate"
         result="colormatrix1" />
      <feFlood
         id="feFlood139271"
         flood-opacity="1"
         flood-color="rgb(0,0,0)"
         result="flood1" />
      <feBlend
         in2="colormatrix1"
         id="feBlend139273"
         in="flood1"
         mode="multiply"
         result="blend1" />
      <feBlend
         in2="blend1"
         id="feBlend139275"
         mode="screen"
         result="blend2" />
      <feColorMatrix
         id="feColorMatrix139277"
         in="blend2"
         values="1"
         type="saturate"
         result="colormatrix2" />
      <feComposite
         in2="fbSourceGraphic"
         id="feComposite139279"
         in="colormatrix2"
         operator="in"
         k2="1"
         result="composite2" />
    </filter>
  </defs>
  <g
     inkscape:label="Layer 1"
     inkscape:groupmode="layer"
     id="layer1">
    <path
       style="fill:#000000;stroke-width:0.609473"
       d="m 60.435419,119.08146 -6.161364,-6.25836 1.97906,-3.73041 c 2.457321,-4.63193 3.704392,-11.222253 2.775974,-14.670129 -0.354507,-1.31653 -1.459882,-3.624612 -2.456395,-5.129078 C 54.78539,86.595157 47.803157,79.528342 45.089422,77.67112 L 43.694681,76.716593 46.270909,72.983239 48.847137,69.24988 39.11318,59.343871 29.37921,49.437863 27.265894,41.311377 C 26.103583,36.841809 25.01545,32.996432 24.847851,32.766094 24.680239,32.535756 22.074751,30.517323 19.057846,28.280688 13.449469,24.122799 1.7739383,12.884966 2.4059077,12.252997 2.5987163,12.060189 4.9107922,12.16989 7.5438532,12.496792 l 4.7873848,0.594357 5.623972,6.049873 c 3.093177,3.32743 6.290826,6.48681 7.105855,7.020844 l 1.481891,0.970974 1.006718,-4.007773 c 0.553702,-2.204273 2.116928,-6.030625 3.473855,-8.503003 2.180256,-3.972547 2.670831,-4.495232 4.219018,-4.495232 3.156128,0 3.262265,1.614185 0.515444,7.838803 -1.350066,3.059397 -2.860975,7.554961 -3.35758,9.990139 -0.89059,4.367182 -0.877511,4.526132 0.958967,11.648689 1.02404,3.971602 2.064799,7.571145 2.312806,7.998987 0.762673,1.315709 16.259872,13.731376 16.881118,13.524405 0.321137,-0.106984 1.103227,-1.683944 1.737981,-3.504362 1.632316,-4.681305 1.140384,-9.718408 -1.655236,-16.948689 -2.561108,-6.623761 -2.343717,-7.565468 1.677219,-7.265788 2.351116,0.175226 2.541167,0.352649 4.74327,4.428201 5.017624,9.286395 4.323086,19.616647 -2.136828,31.782157 l -2.095094,3.945528 1.942092,2.546251 c 1.068153,1.400437 3.055122,3.376952 4.4155,4.392262 1.360365,1.015303 3.214125,2.394535 4.119473,3.064956 l 1.646092,1.218947 -0.175494,20.276252 -0.175508,20.27626 z m 8.294513,-14.28871 V 84.580377 l 4.113941,-2.993484 c 2.262678,-1.646412 4.887154,-4.110342 5.832169,-5.475404 l 1.718229,-2.481916 -2.76417,-5.696387 c -6.189644,-12.755583 -6.100078,-23.911417 0.26373,-32.848559 1.033991,-1.452109 1.726608,-1.797807 3.601921,-1.797807 3.699128,0 3.806702,0.777656 1.096029,7.923153 -1.875124,4.942944 -2.42841,7.256972 -2.430947,10.167034 -0.0026,3.742806 1.7142,9.945587 2.75379,9.945587 0.964876,0 16.812097,-13.393343 17.134076,-14.480941 2.18307,-7.374182 3.42121,-12.732188 3.42121,-14.805165 0,-3.544242 -1.49085,-8.911911 -4.011554,-14.443239 -1.740506,-3.819282 -2.027602,-4.970452 -1.518349,-6.088127 0.434311,-0.953204 1.153745,-1.37829 2.332683,-1.37829 1.52025,0 1.98399,0.544026 4.28615,5.028156 1.4198,2.765485 2.91759,6.468036 3.32839,8.22789 0.41081,1.759854 1.06847,3.199736 1.46146,3.199736 0.82235,0 5.86451,-4.795871 10.42094,-9.911925 l 3.12825,-3.512455 4.95025,-0.6662 c 2.72263,-0.366411 5.06659,-0.549869 5.20876,-0.407686 0.66902,0.669029 -10.59911,11.662973 -16.29258,15.896128 l -6.38856,4.749965 -2.23976,8.273303 c -2.62618,9.700721 -2.61999,9.691518 -13.752058,20.47691 l -7.93845,7.691232 2.116028,2.931933 c 3.185779,4.414145 3.187941,4.440378 0.534983,6.483813 -4.20191,3.236505 -9.907384,9.573663 -11.503992,12.777646 -0.982977,1.972579 -1.548885,4.131103 -1.548885,5.907863 0,3.694289 1.522203,9.398549 3.408835,12.774109 l 1.518497,2.71688 -6.120514,6.1205 -6.120502,6.1205 z"
       id="path158886" />
  </g>
</svg>
