<?xml version="1.0" encoding="UTF-8" standalone="no"?>
<!-- Created with Inkscape (http://www.inkscape.org/) -->

<svg
   width="512"
   height="512"
   viewBox="0 0 135.46667 135.46668"
   version="1.1"
   id="svg1888"
   inkscape:version="1.1 (c68e22c387, 2021-05-23)"
   sodipodi:docname="hibernia.svg"
   xmlns:inkscape="http://www.inkscape.org/namespaces/inkscape"
   xmlns:sodipodi="http://sodipodi.sourceforge.net/DTD/sodipodi-0.dtd"
   xmlns="http://www.w3.org/2000/svg"
   xmlns:svg="http://www.w3.org/2000/svg">
  <sodipodi:namedview
     id="namedview1890"
     pagecolor="#505050"
     bordercolor="#eeeeee"
     borderopacity="1"
     inkscape:pageshadow="0"
     inkscape:pageopacity="0"
     inkscape:pagecheckerboard="0"
     inkscape:document-units="px"
     showgrid="false"
     inkscape:zoom="0.5404784"
     inkscape:cx="-50.880849"
     inkscape:cy="104.53702"
     inkscape:window-width="1920"
     inkscape:window-height="1017"
     inkscape:window-x="1912"
     inkscape:window-y="-8"
     inkscape:window-maximized="1"
     inkscape:current-layer="layer1"
     units="px"
     width="512px" />
  <defs
     id="defs1885" />
  <g
     inkscape:label="Layer 1"
     inkscape:groupmode="layer"
     id="layer1"
     transform="translate(-73.269553,-97.915333)">
    <path
       id="path1922"
       style="fill:#000000;stroke-width:1.12727"
       d="m 144.44609,101.55104 c -0.8556,-0.1126 -1.9923,0.63908 -3.60328,2.49186 -1.77341,2.03962 -3.1414,2.61596 -5.06387,2.13344 -3.83803,-0.96327 -6.62499,0.31193 -4.98902,2.28316 1.01732,1.22582 0.71566,1.69039 -1.45312,2.2347 -1.50608,0.3762 -4.31023,0.37109 -6.23078,-0.0131 -2.7583,-0.55166 -3.49187,-0.3131 -3.49187,1.13387 0,1.00748 -0.77112,1.83181 -1.71292,1.83181 -1.26364,0 -1.52593,0.73851 -1.00397,2.81816 0.87307,3.47863 -0.89898,3.68386 -4.86572,0.56362 -3.67293,-2.8893 -4.57672,-2.83833 -5.01986,0.28182 -0.24614,1.73306 -1.49633,2.87082 -3.94762,3.59316 -6.062837,1.78655 -5.24803,8.37509 1.05021,8.48971 2.63001,0.0478 2.55023,2.28975 -0.0815,2.28975 -1.12928,0 -3.98031,-0.93671 -6.336459,-2.08279 -3.40185,-1.65466 -4.833157,-1.82879 -6.955132,-0.84546 -2.878374,1.33381 -3.350693,2.38718 -1.563198,3.49189 0.619996,0.3832 1.127265,1.46816 1.127265,2.41084 0,1.31796 -0.781381,1.54211 -3.381793,0.97094 -2.408344,-0.52894 -3.421044,-0.31207 -3.516097,0.75518 -0.182392,2.04762 -0.133331,2.36682 0.660508,4.40338 0.51666,1.32549 -0.464809,2.15945 -3.861761,3.28051 -2.505057,0.82675 -4.555292,1.72185 -4.555292,1.98813 0,1.36681 4.918069,5.84033 7.96468,5.9393 2.024565,0.0659 1.750797,2.00227 1.444057,3.94732 0,0 3.22573,2.46921 4.169016,2.46921 0.943284,0 2.008414,-0.44801 1.715114,1.10525 -0.112848,0.59764 1.793249,1.7594 3.388455,2.15989 1.644545,0.41277 3.361288,1.9408 3.965239,3.52931 0.778544,2.04765 1.667121,2.64418 3.300328,2.2171 1.64303,-0.42968 2.23472,-0.0228 2.23472,1.53678 0,1.75508 0.58292,2.00405 3.3818,1.44431 2.15432,-0.43086 3.38177,-0.21563 3.38177,0.59225 0,0.69748 0.81403,1.26817 1.8098,1.26817 0.99577,0 2.80767,1.26818 4.02689,2.81815 2.43428,3.09469 6.56323,3.80383 6.56323,1.12728 0,-1.92756 0.97197,-2.1109 3.32015,-0.62528 0.99615,0.63005 2.421,0.60778 3.6636,-0.0572 1.7685,-0.94648 2.03436,-0.60282 2.03436,2.62662 0,2.62695 1.81379,6.42098 6.19996,12.97233 3.40997,5.09326 6.19995,10.31376 6.19995,11.6007 0,5.49817 -5.09647,11.43471 -15.43603,17.98119 -3.22001,2.03874 -9.04909,5.66473 -9.35803,6.46983 -0.30895,0.80513 7.19225,0.51304 9.37275,-0.96672 10.12532,-6.87121 21.80091,-10.51783 25.35008,-6.23954 0.94839,1.14322 1.88527,1.87556 4.50188,3.04215 7.27348,3.08468 7.55721,6.03951 11.25154,6.97223 1.14356,0 -2.00006,-4.32776 -5.61794,-7.61969 -7.11354,-6.47265 -3.76286,-6.30442 9.18433,-3.82693 9.20422,1.76124 21.51806,1.97871 22.32376,0.95993 0.18171,-0.157 -0.1258,-0.55213 -0.84546,-1.01716 -0.71525,-0.46227 -3.83897,-1.32097 -5.53284,-1.69531 -2.3078,-0.75671 -4.78704,-1.49271 -6.64249,-1.90886 -7.65442,-1.71678 -13.65411,-7.67913 -15.68703,-13.79799 -0.66025,-1.98727 -3.34249,-6.93187 -5.84769,-10.62093 -2.50518,-3.68906 -4.87947,-8.73169 -5.27523,-11.20659 -0.64551,-4.03685 -0.44393,-4.59003 1.94409,-5.37653 1.46404,-0.48211 5.45181,-0.79173 8.86178,-0.68692 3.73235,0.11494 7.3216,-0.46444 9.01812,-1.45752 1.54999,-0.90727 2.25184,-2.42387 5.92826,-3.25236 3.88821,-0.87622 3.38793,-1.42137 1.92076,-1.87537 -3.22719,-0.99859 -1.3069,-1.46796 2.30738,-1.66668 4.1406,-0.22767 8.91343,-5.62583 8.96967,-8.73409 0.0196,-1.085 0.78619,-1.97271 1.7019,-1.97271 0.91572,0 2.46145,-1.21621 3.43464,-2.70148 0.97315,-1.48521 2.75849,-2.95955 3.96964,-3.27611 2.83522,-0.74175 2.86653,-3.04053 0.0397,-3.04053 -1.18929,0 -2.99507,-0.31909 -4.01147,-0.70895 -1.57439,-0.60413 -1.47537,-0.89619 0.6649,-1.97271 3.43689,-1.72861 4.34505,-4.57932 1.13387,-3.56012 -2.09098,0.66366 -2.38889,0.31162 -2.38889,-2.83137 0,-3.24968 -0.2753,-3.53689 -2.90621,-3.03393 -2.25677,0.43138 -3.17694,-0.0391 -4.11717,-2.10261 -0.93509,-2.05243 -1.81287,-2.50567 -3.85734,-1.99252 -2.1582,0.54163 -2.64644,0.22127 -2.64644,-1.73934 0,-1.449 -1.00796,-2.79879 -2.53635,-3.395 -1.39499,-0.54419 -3.28301,-2.05501 -4.19641,-3.35757 -1.33089,-1.89803 -2.39928,-2.22965 -5.37652,-1.67108 -3.66505,0.68756 -3.69837,0.6557 -2.53415,-2.40645 0.64906,-1.70715 1.00286,-3.27935 0.78821,-3.49408 -0.21465,-0.21464 -2.36388,0.61661 -4.77766,1.84722 -4.65054,2.37098 -10.67598,2.99701 -10.67598,1.10965 0,-0.62 0.71325,-1.12728 1.5852,-1.12728 1.07655,0 1.38596,-0.81402 0.96434,-2.53634 -1.10126,-4.49857 -2.45197,-5.324 -7.5628,-4.62353 -4.65712,0.63832 -4.818,0.5535 -5.49981,-2.8556 -0.42412,-2.1206 -0.99909,-3.09702 -1.85471,-3.20962 z"
       sodipodi:nodetypes="ssssccssscsccscccsccscssssscccscsssscsscssscscccsccccssscccsssssscsccsscccssccscsssccsss" />
  </g>
</svg>
