<svg width="512" height="512" viewBox="0 0 135.467 135.467" xmlns="http://www.w3.org/2000/svg"><path style="fill:#000;stroke-width:1.12727" d="M144.446 101.551c-.856-.113-1.992.64-3.603 2.492-1.774 2.04-3.142 2.616-5.064 2.133-3.838-.963-6.625.312-4.99 2.283 1.018 1.226.717 1.69-1.452 2.235-1.506.376-4.31.371-6.231-.013-2.758-.552-3.492-.313-3.492 1.134 0 1.007-.771 1.832-1.713 1.832-1.263 0-1.526.738-1.004 2.818.873 3.479-.899 3.684-4.865.564-3.673-2.89-4.577-2.839-5.02.281-.246 1.733-1.497 2.871-3.948 3.594-6.063 1.786-5.248 8.375 1.05 8.49 2.63.047 2.55 2.289-.081 2.289-1.13 0-3.98-.937-6.337-2.083-3.402-1.654-4.833-1.829-6.955-.845-2.878 1.334-3.35 2.387-1.563 3.492.62.383 1.127 1.468 1.127 2.41 0 1.318-.781 1.543-3.382.971-2.408-.529-3.42-.312-3.516.756-.182 2.047-.133 2.366.66 4.403.518 1.325-.464 2.16-3.86 3.28-2.506.827-4.556 1.722-4.556 1.989 0 1.366 4.918 5.84 7.964 5.939 2.025.066 1.751 2.002 1.445 3.947 0 0 3.225 2.47 4.169 2.47.943 0 2.008-.449 1.715 1.105-.113.597 1.793 1.76 3.388 2.16 1.645.412 3.361 1.94 3.965 3.529.779 2.048 1.667 2.644 3.3 2.217 1.644-.43 2.235-.023 2.235 1.537 0 1.755.583 2.004 3.382 1.444 2.155-.43 3.382-.216 3.382.592 0 .698.814 1.269 1.81 1.269.996 0 2.807 1.268 4.027 2.818 2.434 3.094 6.563 3.803 6.563 1.127 0-1.928.972-2.111 3.32-.625.996.63 2.421.607 3.664-.058 1.768-.946 2.034-.602 2.034 2.627 0 2.627 1.814 6.421 6.2 12.972 3.41 5.094 6.2 10.314 6.2 11.601 0 5.498-5.097 11.435-15.436 17.981-3.22 2.039-9.05 5.665-9.358 6.47-.31.805 7.192.513 9.373-.967 10.125-6.87 21.8-10.517 25.35-6.24.948 1.144 1.885 1.876 4.502 3.043 7.273 3.085 7.557 6.04 11.251 6.972 1.144 0-2-4.328-5.618-7.62-7.113-6.472-3.763-6.304 9.185-3.826 9.204 1.76 21.518 1.978 22.323.96.182-.157-.126-.553-.845-1.018-.715-.462-3.84-1.32-5.533-1.695-2.308-.757-4.787-1.493-6.643-1.909-7.654-1.717-13.654-7.679-15.687-13.798-.66-1.987-3.342-6.932-5.847-10.62-2.505-3.69-4.88-8.732-5.275-11.207-.646-4.037-.444-4.59 1.944-5.377 1.464-.482 5.451-.792 8.861-.687 3.733.115 7.322-.464 9.019-1.457 1.55-.908 2.251-2.424 5.928-3.253 3.888-.876 3.388-1.421 1.92-1.875-3.227-.999-1.306-1.468 2.308-1.667 4.14-.227 8.913-5.625 8.97-8.734.02-1.085.786-1.972 1.701-1.972.916 0 2.462-1.217 3.435-2.702.973-1.485 2.759-2.96 3.97-3.276 2.835-.742 2.866-3.04.04-3.04-1.19 0-2.996-.32-4.012-.71-1.574-.604-1.475-.896.665-1.972 3.437-1.729 4.345-4.58 1.134-3.56-2.091.663-2.39.311-2.39-2.832 0-3.25-.274-3.537-2.905-3.034-2.257.432-3.177-.039-4.118-2.102-.935-2.053-1.812-2.506-3.857-1.993-2.158.542-2.646.221-2.646-1.74 0-1.448-1.008-2.798-2.537-3.394-1.395-.544-3.283-2.055-4.196-3.358-1.33-1.898-2.4-2.23-5.377-1.67-3.665.687-3.698.655-2.534-2.407.65-1.707 1.003-3.28.788-3.494-.214-.215-2.363.616-4.777 1.847-4.65 2.37-10.676 2.997-10.676 1.11 0-.62.713-1.128 1.585-1.128 1.077 0 1.386-.814.964-2.536-1.1-4.499-2.452-5.324-7.562-4.624-4.658.639-4.818.554-5.5-2.855-.424-2.12-1-3.097-1.855-3.21z" transform="translate(-73.27 -97.915)"/></svg>