<?xml version="1.0" encoding="UTF-8" standalone="no"?>
<!-- Created with Inkscape (http://www.inkscape.org/) -->

<svg
   width="512"
   height="512"
   viewBox="0 0 135.46666 135.46666"
   version="1.1"
   id="svg1304"
   inkscape:version="1.1 (c68e22c387, 2021-05-23)"
   sodipodi:docname="mentalist.svg"
   xmlns:inkscape="http://www.inkscape.org/namespaces/inkscape"
   xmlns:sodipodi="http://sodipodi.sourceforge.net/DTD/sodipodi-0.dtd"
   xmlns="http://www.w3.org/2000/svg"
   xmlns:svg="http://www.w3.org/2000/svg">
  <sodipodi:namedview
     id="namedview1306"
     pagecolor="#505050"
     bordercolor="#eeeeee"
     borderopacity="1"
     inkscape:pageshadow="0"
     inkscape:pageopacity="0"
     inkscape:pagecheckerboard="0"
     inkscape:document-units="px"
     showgrid="false"
     width="512mm"
     units="px"
     inkscape:zoom="1"
     inkscape:cx="282.5"
     inkscape:cy="143.5"
     inkscape:window-width="1920"
     inkscape:window-height="1017"
     inkscape:window-x="1912"
     inkscape:window-y="-8"
     inkscape:window-maximized="1"
     inkscape:current-layer="layer1" />
  <defs
     id="defs1301">
    <filter
       style="color-interpolation-filters:sRGB;"
       inkscape:label="Colorize"
       id="filter139057"
       x="0"
       y="0"
       width="1"
       height="1">
      <feColorMatrix
         values="0.21 0.72 0.072 0 0 0.21 0.72 0.072 0 0 0.21 0.72 0.072 0 0 0 0 0 1 0 "
         id="feColorMatrix139055"
         result="fbSourceGraphic" />
      <feColorMatrix
         result="fbSourceGraphicAlpha"
         in="fbSourceGraphic"
         values="0 0 0 -1 0 0 0 0 -1 0 0 0 0 -1 0 0 0 0 1 0"
         id="feColorMatrix139265" />
      <feComposite
         in2="fbSourceGraphic"
         id="feComposite139267"
         operator="arithmetic"
         k1="0"
         k2="1"
         result="composite1"
         in="fbSourceGraphic" />
      <feColorMatrix
         id="feColorMatrix139269"
         in="composite1"
         values="1"
         type="saturate"
         result="colormatrix1" />
      <feFlood
         id="feFlood139271"
         flood-opacity="1"
         flood-color="rgb(0,0,0)"
         result="flood1" />
      <feBlend
         in2="colormatrix1"
         id="feBlend139273"
         in="flood1"
         mode="multiply"
         result="blend1" />
      <feBlend
         in2="blend1"
         id="feBlend139275"
         mode="screen"
         result="blend2" />
      <feColorMatrix
         id="feColorMatrix139277"
         in="blend2"
         values="1"
         type="saturate"
         result="colormatrix2" />
      <feComposite
         in2="fbSourceGraphic"
         id="feComposite139279"
         in="colormatrix2"
         operator="in"
         k2="1"
         result="composite2" />
    </filter>
  </defs>
  <g
     inkscape:label="Layer 1"
     inkscape:groupmode="layer"
     id="layer1">
    <path
       style="fill:#000000;stroke-width:0.542606"
       d="m 35.122663,107.86577 c 0.775904,-2.52657 2.359452,-6.48068 3.518995,-8.786916 2.527876,-5.027744 2.505067,-4.639194 0.461451,-7.860999 C 35.453524,85.4642 33.679282,76.350599 34.788032,69.052944 L 35.442255,64.746932 32.40209,61.981141 C 27.855281,57.844675 23.300712,55.733978 17.837442,55.231534 13.991944,54.877874 1.7806569,51.1738 2.4042894,50.550167 c 0.085498,-0.0855 1.6830223,0.09054 3.5500337,0.391212 4.5516379,0.733021 11.3121229,0.847749 16.6782419,0.283035 5.849593,-0.615594 7.521617,-0.221513 12.30277,2.899661 l 4.042017,2.638658 1.971496,-2.640741 c 1.084321,-1.452408 1.971493,-3.26964 1.971493,-4.038295 0,-2.827575 -2.76227,-6.274966 -6.511276,-8.126249 -4.221966,-2.084838 -6.028291,-4.690961 -8.273865,-11.93735 -2.516244,-8.119826 -2.4259,-8.63117 0.714198,-4.042296 5.547884,8.107569 8.825716,10.468551 15.739001,11.336615 3.68984,0.463314 4.188557,0.680261 5.980921,2.601772 1.07548,1.152971 2.068795,2.436454 2.207372,2.852183 0.202803,0.60842 1.144856,0.453165 4.829065,-0.795859 6.70973,-2.274734 14.503466,-2.249591 21.295752,0.0687 l 4.781286,1.63192 0.731991,-1.400449 c 1.637417,-3.132812 3.721702,-4.440839 7.915332,-4.96741 6.859255,-0.861279 10.381192,-3.470546 16.058752,-11.897331 2.74462,-4.073623 2.79394,-3.368418 0.32251,4.612157 -2.22817,7.195037 -3.95172,9.730891 -8.00347,11.775436 -6.500822,3.280373 -8.516261,8.398812 -4.948205,12.566473 l 1.793625,2.095039 2.72093,-1.954808 c 5.08563,-3.653659 8.86387,-4.353719 16.18896,-2.999602 2.90881,0.537721 13.25715,-0.04339 16.47191,-0.925004 0.47948,-0.131497 -0.227,0.272836 -1.56996,0.898501 -4.57713,2.132433 -8.94752,3.373619 -13.35526,3.792886 -5.22819,0.497304 -8.85548,2.098396 -13.77862,6.081893 l -3.35536,2.714961 0.4586,2.510957 c 1.54453,8.456704 -0.11916,18.452856 -4.148784,24.926974 l -1.500198,2.410269 2.600901,5.49288 c 1.430491,3.021085 3.098091,7.202095 3.705751,9.291125 l 1.10486,3.79825 -1.09951,-1.35652 c -2.704899,-3.33717 -7.330181,-7.71457 -9.677624,-9.15897 l -2.561792,-1.57629 -3.311399,2.10539 c -7.321033,4.65475 -17.059947,6.42193 -25.294693,4.58988 -4.147953,-0.92284 -12.088006,-4.47974 -13.323645,-5.96859 -1.170676,-1.410587 -6.282975,2.29272 -11.547039,8.36457 l -2.569433,2.96372 z M 72.528381,97.526934 c 10.031173,-1.839188 17.837116,-10.140653 19.359975,-20.588921 0.343755,-2.358558 0.491699,-4.421609 0.328763,-4.584549 -0.162833,-0.162936 -1.981765,0.842115 -4.04183,2.233462 -13.926052,9.40553 -25.668444,9.566934 -39.557582,0.543736 l -3.798243,-2.467558 -0.168125,2.484639 c -0.390368,5.769169 3.735617,13.86141 9.060489,17.770229 5.976447,4.387117 11.991178,5.860377 18.816553,4.608962 z m 7.560498,-30.043642 c 3.28277,-1.627728 6.638917,-3.519734 7.458107,-4.204454 l 1.489432,-1.24494 -2.113591,-2.745351 C 78.554371,48.418788 62.089846,47.249707 52.004368,56.80912 c -1.56423,1.482641 -3.266449,3.416204 -3.78271,4.296806 l -0.938656,1.601096 3.10908,1.904693 c 12.67898,7.767421 18.657135,8.345485 29.696797,2.871577 z"
       id="path169057" />
  </g>
</svg>
