<svg width="512" height="512" viewBox="0 0 135.467 135.467" xmlns="http://www.w3.org/2000/svg"><path style="fill:#000;stroke-width:.723071" d="m67.733 2.381 13.204 48.594 13.014 45.48-9.543 2.967-1.273-2.81-5.377-.061-3.91 9.436 9.393 3.105 3.369-1.605-.69-3.456 12.415-3.848 11.394 22.06c-3.404 2.121-4.982 5.118-3.956 7.514 1.355 3.168 6.757 4.267 12.066 2.455 5.308-1.813 8.514-5.851 7.159-9.02-1.04-2.432-4.532-3.723-8.718-3.223l-5.645-23.645 13.039-3.69.602 2.91 4.204-.255 4.605-8.769-9.059-4.559-3.818 2.177.43 3.226-9.454 2.66L89.837 46.03zm0 0L45.63 46.031 24.282 90.022l-9.453-2.659.43-3.226-3.819-2.177-9.059 4.559 4.606 8.769 4.204.255.602-2.91 13.038 3.69-5.644 23.645c-4.186-.5-7.679.791-8.718 3.222-1.355 3.17 1.85 7.208 7.159 9.02 5.308 1.813 10.71.714 12.066-2.454 1.025-2.397-.552-5.393-3.956-7.514l11.394-22.06 12.416 3.848-.691 3.456 3.368 1.605 9.394-3.105-3.91-9.436-5.377.06-1.273 2.811-9.543-2.967 13.013-45.48z"/></svg>