<?xml version="1.0" encoding="UTF-8" standalone="no"?>
<!-- Created with Inkscape (http://www.inkscape.org/) -->

<svg
   width="512"
   height="512"
   viewBox="0 0 135.46666 135.46666"
   version="1.1"
   id="svg1304"
   inkscape:version="1.1 (c68e22c387, 2021-05-23)"
   sodipodi:docname="mercenary.svg"
   xmlns:inkscape="http://www.inkscape.org/namespaces/inkscape"
   xmlns:sodipodi="http://sodipodi.sourceforge.net/DTD/sodipodi-0.dtd"
   xmlns="http://www.w3.org/2000/svg"
   xmlns:svg="http://www.w3.org/2000/svg">
  <sodipodi:namedview
     id="namedview1306"
     pagecolor="#505050"
     bordercolor="#eeeeee"
     borderopacity="1"
     inkscape:pageshadow="0"
     inkscape:pageopacity="0"
     inkscape:pagecheckerboard="0"
     inkscape:document-units="px"
     showgrid="false"
     width="512mm"
     units="px"
     inkscape:zoom="0.70710678"
     inkscape:cx="290.62089"
     inkscape:cy="224.15285"
     inkscape:window-width="1920"
     inkscape:window-height="1017"
     inkscape:window-x="1912"
     inkscape:window-y="-8"
     inkscape:window-maximized="1"
     inkscape:current-layer="layer1" />
  <defs
     id="defs1301">
    <filter
       style="color-interpolation-filters:sRGB;"
       inkscape:label="Colorize"
       id="filter139057"
       x="0"
       y="0"
       width="1"
       height="1">
      <feColorMatrix
         values="0.21 0.72 0.072 0 0 0.21 0.72 0.072 0 0 0.21 0.72 0.072 0 0 0 0 0 1 0 "
         id="feColorMatrix139055"
         result="fbSourceGraphic" />
      <feColorMatrix
         result="fbSourceGraphicAlpha"
         in="fbSourceGraphic"
         values="0 0 0 -1 0 0 0 0 -1 0 0 0 0 -1 0 0 0 0 1 0"
         id="feColorMatrix139265" />
      <feComposite
         in2="fbSourceGraphic"
         id="feComposite139267"
         operator="arithmetic"
         k1="0"
         k2="1"
         result="composite1"
         in="fbSourceGraphic" />
      <feColorMatrix
         id="feColorMatrix139269"
         in="composite1"
         values="1"
         type="saturate"
         result="colormatrix1" />
      <feFlood
         id="feFlood139271"
         flood-opacity="1"
         flood-color="rgb(0,0,0)"
         result="flood1" />
      <feBlend
         in2="colormatrix1"
         id="feBlend139273"
         in="flood1"
         mode="multiply"
         result="blend1" />
      <feBlend
         in2="blend1"
         id="feBlend139275"
         mode="screen"
         result="blend2" />
      <feColorMatrix
         id="feColorMatrix139277"
         in="blend2"
         values="1"
         type="saturate"
         result="colormatrix2" />
      <feComposite
         in2="fbSourceGraphic"
         id="feComposite139279"
         in="colormatrix2"
         operator="in"
         k2="1"
         result="composite2" />
    </filter>
  </defs>
  <g
     inkscape:label="Layer 1"
     inkscape:groupmode="layer"
     id="layer1">
    <path
       id="path170745"
       style="fill:#000000;stroke-width:0.723071"
       d="m 67.73333,2.3812497 13.203856,48.5940523 13.013438,45.479659 -9.543087,2.967121 -1.272409,-2.81039 -5.377495,-0.06079 -3.910233,9.436418 9.394002,3.10494 3.368497,-1.60517 -0.690821,-3.45623 12.415607,-3.84807 11.394145,22.0602 c -3.40393,2.12146 -4.98136,5.11752 -3.95599,7.51374 1.35549,3.16862 6.75734,4.26775 12.06578,2.45504 5.30877,-1.81273 8.51402,-5.85122 7.15915,-9.02027 -1.03917,-2.43115 -4.53197,-3.72222 -8.71793,-3.2225 l -5.64468,-23.645095 13.03854,-3.689983 0.60225,2.910373 4.20398,-0.255371 4.60548,-8.768953 -9.05892,-4.558773 -3.81871,2.176697 0.42955,3.226542 -9.45305,2.65906 -21.347591,-43.993395 z m 0,0 L 45.629971,46.030096 24.28238,90.023491 14.829335,87.364432 15.258883,84.137889 11.440166,81.961193 2.3812499,86.519966 6.9867328,95.288918 11.190709,95.544289 11.792962,92.633916 24.8315,96.3239 19.186823,119.969 c -4.185961,-0.49973 -7.678761,0.79135 -8.717935,3.22249 -1.3548674,3.16905 1.850382,7.20754 7.159157,9.02027 5.308437,1.81271 10.710289,0.71359 12.065776,-2.45504 1.025369,-2.39622 -0.552056,-5.39227 -3.955992,-7.51374 l 11.394146,-22.06019 12.415607,3.84806 -0.690821,3.45624 3.368497,1.60517 9.394002,-3.10494 -3.910233,-9.436423 -5.377495,0.06079 -1.272407,2.810389 -9.543089,-2.967121 13.013438,-45.479659 z"
       sodipodi:nodetypes="cccccccccccccccccccccccccccccccccccccccccccccccccccccc" />
  </g>
</svg>
