<svg width="512" height="512" viewBox="0 0 135.467 135.467" xmlns="http://www.w3.org/2000/svg"><path style="fill:#000;stroke-width:.857969" d="m55.363 131.659-10.338-1.427-2.714-1.933-2.714-1.933-.454-2.752-.453-2.753-1.724-15.675-1.723-15.676v-1.008l-8.44.604-8.439.604-3.615-8.394-3.615-8.394 1.759-2.413 1.758-2.413 1.822-2.5 1.822-2.498-2.681-4.687-2.682-4.686-.544-8.902-.545-8.901 5.32-10.041 5.32-10.04 11.313-5.938 11.313-5.936 20.406-.464 20.406-.464 13.438 4.49 13.437 4.489 4.9 11.952 4.901 11.952-.448 8.58-.448 8.58-2.5 4.535-2.501 4.535 3.437 4.8 3.438 4.801-.57.96-.57.96-3.481 4.718-3.482 4.719-.71.517-.709.518-5.87 1.107-5.87 1.108-1.756 9.529-1.757 9.528-1.916 10.577-1.915 10.578-3.052 1.528-3.051 1.528-10.296 1.478-10.296 1.477-1.287.251-1.287.251zm7.705-41.685 2.29-3.003h1.24l1.644 3.055 1.646 3.055 1.943-.488 1.944-.488 2.203-.837 2.202-.838-2.688-5.324-2.688-5.325-1.226-4.127-1.225-4.127H64.74L63.44 72.6l-1.302 1.072-2.814 3.67-2.814 3.671-1.195 3.973-1.196 3.974v1.526l2.788 1.212 2.789 1.211.541.034.542.034 2.29-3.003zm-13.51-25.727 5.306-1.066 3.488-2.763 3.488-2.762-.003-.572-.004-.571-4.072-1.675-4.073-1.675-8.98-8.023-8.98-8.024-1.792.45-1.792.45-3.867 1.71-3.867 1.71-2.039 6.5-2.038 6.5 2.23 4.547 2.229 4.545 7.155 1.299 7.156 1.298 2.574-.406 2.574-.406 5.306-1.066zm54.192.33 6.304-1.076 2.171-4.428 2.172-4.427-1.952-6.574-1.951-6.573H100.29l-9.144 6.603-9.144 6.604-4.203 1.103-4.203 1.102-.341.341-.341.341 3.635 2.892 3.634 2.892 7.344 1.4 7.344 1.4 1.287-.263 1.287-.262zM27.365 92.224l4.499-.96 2.657 26.733zm79.023-1.629 8.658-2.631-4.982 11.24-7.038 12.222zM10.096 67.261c.52-2.302 2.121-6.756 2.121-6.756l2.594 3.24-4.77 7.076s-.474-1.219.055-3.56zm110.877-8.047 4.648-6.46-2.892 10.217-1.663 1.65zM23.099 8.844l1.877-2.701L37.942 2.38l-15.004 8.654z"/></svg>