<?xml version="1.0" encoding="UTF-8" standalone="no"?>
<!-- Created with Inkscape (http://www.inkscape.org/) -->

<svg
   width="512"
   height="512"
   viewBox="0 0 135.46666 135.46666"
   version="1.1"
   id="svg1304"
   inkscape:version="1.1 (c68e22c387, 2021-05-23)"
   sodipodi:docname="nightshade.svg"
   xmlns:inkscape="http://www.inkscape.org/namespaces/inkscape"
   xmlns:sodipodi="http://sodipodi.sourceforge.net/DTD/sodipodi-0.dtd"
   xmlns="http://www.w3.org/2000/svg"
   xmlns:svg="http://www.w3.org/2000/svg">
  <sodipodi:namedview
     id="namedview1306"
     pagecolor="#505050"
     bordercolor="#eeeeee"
     borderopacity="1"
     inkscape:pageshadow="0"
     inkscape:pageopacity="0"
     inkscape:pagecheckerboard="0"
     inkscape:document-units="px"
     showgrid="false"
     width="512mm"
     units="px"
     inkscape:zoom="0.70710678"
     inkscape:cx="-9.1923881"
     inkscape:cy="116.67262"
     inkscape:window-width="1920"
     inkscape:window-height="1017"
     inkscape:window-x="1912"
     inkscape:window-y="-8"
     inkscape:window-maximized="1"
     inkscape:current-layer="layer1" />
  <defs
     id="defs1301">
    <filter
       style="color-interpolation-filters:sRGB;"
       inkscape:label="Colorize"
       id="filter139057"
       x="0"
       y="0"
       width="1"
       height="1">
      <feColorMatrix
         values="0.21 0.72 0.072 0 0 0.21 0.72 0.072 0 0 0.21 0.72 0.072 0 0 0 0 0 1 0 "
         id="feColorMatrix139055"
         result="fbSourceGraphic" />
      <feColorMatrix
         result="fbSourceGraphicAlpha"
         in="fbSourceGraphic"
         values="0 0 0 -1 0 0 0 0 -1 0 0 0 0 -1 0 0 0 0 1 0"
         id="feColorMatrix139265" />
      <feComposite
         in2="fbSourceGraphic"
         id="feComposite139267"
         operator="arithmetic"
         k1="0"
         k2="1"
         result="composite1"
         in="fbSourceGraphic" />
      <feColorMatrix
         id="feColorMatrix139269"
         in="composite1"
         values="1"
         type="saturate"
         result="colormatrix1" />
      <feFlood
         id="feFlood139271"
         flood-opacity="1"
         flood-color="rgb(0,0,0)"
         result="flood1" />
      <feBlend
         in2="colormatrix1"
         id="feBlend139273"
         in="flood1"
         mode="multiply"
         result="blend1" />
      <feBlend
         in2="blend1"
         id="feBlend139275"
         mode="screen"
         result="blend2" />
      <feColorMatrix
         id="feColorMatrix139277"
         in="blend2"
         values="1"
         type="saturate"
         result="colormatrix2" />
      <feComposite
         in2="fbSourceGraphic"
         id="feComposite139279"
         in="colormatrix2"
         operator="in"
         k2="1"
         result="composite2" />
    </filter>
  </defs>
  <g
     inkscape:label="Layer 1"
     inkscape:groupmode="layer"
     id="layer1">
    <path
       id="path182367"
       style="fill:#000000;stroke-width:0.660121"
       d="M 67.733328,2.3812499 A 65.35208,65.35208 0 0 0 2.3812474,67.733328 65.35208,65.35208 0 0 0 67.733328,133.08541 65.35208,65.35208 0 0 0 133.08541,67.733328 65.35208,65.35208 0 0 0 67.733328,2.3812499 Z m 0.942467,6.6141088 a 58.750863,58.750863 0 0 1 1.725108,0.052868 l -0.161174,11.6539913 -0.195854,12.539739 0.800655,4.204409 0.801951,4.204409 -0.863826,2.066752 -0.863827,2.066749 -1.028867,0.85223 -1.02757,0.852224 L 66.433838,45.482579 65.004,43.47643 62.7387,37.702937 60.472111,31.930736 V 30.836122 29.742795 L 64.73712,19.668197 Z m -2.587615,0.051571 -3.050485,6.7069383 -3.3741,5.935944 -0.421601,-0.02071 -0.420312,-0.01946 -1.077853,-0.629174 -1.077856,-0.630471 -0.456413,-3.806018 -0.538932,-5.415061 -0.202415,-0.85223 A 58.750863,58.750863 0 0 1 66.088185,9.0467322 Z m 6.878429,0.1727752 a 58.750863,58.750863 0 0 1 8.893597,1.4878501 l -0.172651,0.612423 -0.745216,5.213926 -0.743919,3.75574 -2.884162,1.690268 -2.884186,1.690276 h -0.377761 -0.37776 l -0.005,-3.795704 -0.0075,-3.795704 -0.428058,-3.568783 z m -21.134226,2.0022811 0.731032,5.933365 0.863829,6.026194 2.202128,1.299616 2.202127,1.299615 v 0.286223 0.28622 l -0.934745,2.23565 -0.933453,2.235649 3.278693,8.39464 3.279983,8.394632 -0.199846,2.363288 -0.199845,2.363291 -3.327687,-4.268878 -3.328968,-4.267584 -2.447099,-5.184281 -2.448382,-5.184275 V 22.281604 l -0.0722,-10.683145 a 58.750863,58.750863 0 0 1 1.334432,-0.376473 z m 32.454286,0.145681 a 58.750863,58.750863 0 0 1 1.269954,0.388079 v 10.50136 11.129239 l -2.401962,5.208781 -2.401963,5.208773 -2.976999,3.795702 -2.975701,3.795701 h -0.330082 -0.32876 l 0.371324,-6.238925 0.372595,-6.238926 -0.786458,-2.837751 -0.786482,-2.837753 0.22679,-2.187941 0.225544,-2.187948 4.5203,-2.924131 4.521572,-2.924136 0.840623,-5.944966 z m -37.727527,1.60518 -0.09411,8.604797 -0.18565,7.988506 -0.786475,-0.487358 -0.78647,-0.488648 -3.009234,-5.439559 -3.536551,-6.139649 a 58.750863,58.750863 0 0 1 8.398509,-4.038089 z m 42.958214,0.197251 a 58.750863,58.750863 0 0 1 8.071012,3.968467 l -3.147179,6.147386 -2.997607,5.545282 -0.963126,0.368739 -0.9631,0.370031 v -8.230896 z m -54.634121,5.908864 2.082215,3.465642 1.81276,3.165233 -0.210149,0.470595 -0.21015,0.471887 -2.012601,-0.335217 -2.013886,-0.336511 -2.186653,-1.725083 -1.76763,-1.826942 a 58.750863,58.750863 0 0 1 4.506106,-3.349604 z M 100.90318,19.2453 a 58.750863,58.750863 0 0 1 4.73816,3.606173 l -1.70702,1.440149 -2.14281,1.688982 -2.176345,0.390661 -2.176344,0.391947 v -0.451257 -0.449966 l 1.851427,-3.386994 z m -73.714494,6.023614 3.136867,2.618565 2.751368,2.236936 3.630673,0.482199 3.630671,0.483487 3.198752,1.614209 3.19876,1.614203 2.67143,5.732229 2.671435,5.733524 4.297233,5.611036 4.298532,5.611037 0.921846,0.756818 0.923141,0.758111 -0.198548,4.156708 -0.198548,4.156701 -5.941096,-5.173962 -5.941099,-5.175251 -3.450168,-3.14203 -3.450168,-3.143315 -0.114743,-7.240715 -0.114743,-8.108409 -2.493505,-0.08251 -0.314593,5.95012 -0.23208,5.126266 -0.424182,1.106218 L 39.22174,48.057307 36.717916,46.779609 34.215387,45.503205 31.916565,42.343127 29.617744,39.183051 29.138119,35.891464 28.6585,32.59859 27.021087,29.804676 25.332106,27.11906 a 58.750863,58.750863 0 0 1 1.856592,-1.850143 z m 81.418054,0.269462 a 58.750863,58.750863 0 0 1 2.0139,2.046121 l -1.58327,2.458695 -1.62065,2.898346 -0.45383,3.120104 -0.45383,3.121404 -2.29882,3.160075 -2.29882,3.160079 -2.537367,1.294459 -2.536041,1.293165 -0.46416,-2.472877 -0.464136,-2.474169 -0.390659,-3.57781 -0.122502,-4.009726 c -0.550112,-0.182231 -1.43028,-0.261296 -1.980366,-0.443522 l -0.389387,5.500161 0.005,4.882582 -0.08633,2.713979 -0.456401,2.425175 -8.678283,7.641687 -8.67701,7.641683 H 74.734106 74.335688 V 62.117131 58.31756 l 4.694347,-5.937229 4.694347,-5.935944 2.840326,-6.066158 2.840325,-6.066166 3.203915,-1.623226 3.203914,-1.624522 3.749286,-0.468015 3.749282,-0.46802 2.69208,-2.305263 z m -86.044063,4.669847 1.477537,2.309133 1.445304,2.450962 v 1.611627 1.612918 l -0.49509,-0.02964 -0.495093,-0.02837 -2.432913,-1.285435 -2.760392,-2.300109 a 58.750863,58.750863 0 0 1 3.260647,-4.341075 z m 90.766773,0.480907 a 58.750863,58.750863 0 0 1 3.47467,4.747208 l -2.83646,1.423386 -2.61341,1.333139 h -0.35715 -0.35583 v -1.346026 -1.34732 l 1.36666,-2.679166 z m 5.55174,8.139356 a 58.750863,58.750863 0 0 1 3.20778,6.623138 l -1.07527,0.252706 -2.98733,0.144408 -4.98957,0.009 -6.43363,0.256573 0.4693,-0.825158 0.46932,-0.825152 0.99147,-1.155211 0.99277,-1.155212 1.71218,-0.0077 1.71348,-0.0077 2.87256,-1.64257 z m -102.316341,0.128939 3.767333,2.004864 2.842911,1.175842 1.713476,0.0077 1.712192,0.0077 0.992765,1.155212 0.991471,1.155214 0.469307,0.825152 0.469308,0.825155 -6.804935,-0.07607 -6.804928,-0.07737 -1.155214,-0.301694 -1.246751,-0.531195 a 58.750863,58.750863 0 0 1 3.053065,-6.170596 z M 12.782038,50.075067 H 23.52578 34.270812 l 4.15929,2.325902 4.160571,2.327184 0.400971,0.648518 0.400973,0.648517 -0.867699,0.246251 -0.866408,0.246252 -5.21909,0.800654 -5.220378,0.799362 -0.720721,0.208877 -0.722008,0.208877 -4.445514,-1.183579 -4.445506,-1.184866 -3.26064,-2.092542 -3.259352,-2.091247 -0.791633,-0.954081 z m 88.941132,0 h 10.8327 l 10.99774,0.288806 -1.21452,1.340873 -1.37826,1.052068 -3.34445,1.873353 -3.34446,1.872068 -3.30059,0.777446 -3.30062,0.776154 -0.99017,0.226915 -0.9902,0.226916 -2.64048,-0.621434 -2.64048,-0.62016 -3.608767,-0.461563 -3.607448,-0.460283 0.0075,-0.660122 0.0075,-0.660123 4.257257,-2.475457 z m -91.063318,3.751866 3.165233,2.31172 2.997619,2.187941 0.03997,0.732325 0.04127,0.73232 -2.70753,3.076276 -2.708824,3.076268 -1.251908,0.67044 -1.2312876,0.550528 A 58.750863,58.750863 0 0 1 10.659859,53.826933 Z m 114.284918,0.571164 a 58.750863,58.750863 0 0 1 1.5291,12.542318 l -3.63968,-3.264509 -3.61134,-3.818912 0.0412,-0.765847 0.0399,-0.764553 2.94861,-2.150551 z m -36.549118,5.494999 4.356556,0.431913 4.356556,0.431916 4.174746,0.932165 4.17475,0.932166 2.92673,2.013886 2.928,2.013888 0.64724,-0.400971 0.64851,-0.399683 -1.43113,-1.937823 -1.4324,-1.936527 0.28235,-0.251414 0.28363,-0.250126 2.43679,-0.440937 2.43677,-0.439653 2.70625,3.487555 2.70494,3.488851 2.96153,2.310428 2.77329,1.763767 a 58.750863,58.750863 0 0 1 -16.64872,37.193743 c -10.864435,6.6145 -21.510285,8.41481 -30.555151,9.17467 l -4.586042,-4.78202 -0.206332,-39.910304 7.030568,-6.7121 z m -40.484033,0.0838 6.940306,6.685023 6.940306,6.68503 v 40.005721 l -4.446801,4.71496 c -8.616942,0.51561 -23.905204,-4.88946 -33.127294,-10.92552 A 58.750863,58.750863 0 0 1 9.1629719,72.346447 l 3.4514531,-2.46772 3.687403,-2.970549 2.327187,-3.20005 2.327189,-3.201332 2.429043,0.453831 2.430333,0.453837 0.283648,0.279781 0.282354,0.279778 -1.393736,1.88496 -1.393729,1.884957 0.707822,0.706534 0.70783,0.707828 2.973124,-2.270459 2.974416,-2.270457 2.493513,-0.67173 2.494792,-0.671728 4.836173,-0.627889 4.837453,-0.627884 1.14619,-0.02071 z" />
  </g>
</svg>
