<svg width="512" height="512" viewBox="0 0 135.467 135.467" xmlns="http://www.w3.org/2000/svg"><path style="fill:#000;stroke-width:.660121" d="M67.733 2.381A65.352 65.352 0 0 0 2.381 67.733a65.352 65.352 0 0 0 65.352 65.352 65.352 65.352 0 0 0 65.352-65.352A65.352 65.352 0 0 0 67.733 2.381zm.943 6.614a58.75 58.75 0 0 1 1.725.053l-.161 11.654-.196 12.54.8 4.204.802 4.205-.863 2.067-.864 2.066-1.029.853-1.028.852-1.428-2.006-1.43-2.007-2.265-5.773-2.267-5.772V29.743l4.265-10.075zm-2.588.052-3.05 6.707-3.374 5.936-.422-.02-.42-.02-1.078-.63-1.078-.63-.456-3.806-.54-5.415-.202-.852a58.75 58.75 0 0 1 10.62-1.27zm6.879.173a58.75 58.75 0 0 1 8.893 1.488l-.172.612-.746 5.214-.744 3.756-2.884 1.69-2.884 1.69h-.755l-.005-3.796-.008-3.795-.428-3.569zm-21.135 2.002.731 5.933.864 6.027 2.202 1.3 2.202 1.299v.572l-.934 2.236-.934 2.236 3.279 8.394 3.28 8.395-.2 2.363-.2 2.363-3.327-4.269-3.33-4.267-2.446-5.184-2.449-5.185V22.282l-.072-10.684a58.75 58.75 0 0 1 1.334-.376zm32.455.146a58.75 58.75 0 0 1 1.27.388v21.631l-2.402 5.208-2.402 5.209-2.977 3.796-2.976 3.795h-.659l.371-6.239.373-6.239-.786-2.837-.787-2.838.227-2.188.225-2.188 4.52-2.924 4.522-2.924.841-5.945zm-37.728 1.605-.094 8.605-.186 7.988-.786-.487-.787-.489-3.009-5.44-3.536-6.14a58.75 58.75 0 0 1 8.398-4.037zm42.958.197a58.75 58.75 0 0 1 8.071 3.969l-3.147 6.147-2.997 5.545-.964.369-.963.37v-8.23zM34.883 19.08l2.082 3.466 1.813 3.165-.21.47-.21.472-2.013-.335-2.014-.336-2.186-1.725-1.768-1.827a58.75 58.75 0 0 1 4.506-3.35zm66.02.166a58.75 58.75 0 0 1 4.738 3.606l-1.707 1.44-2.142 1.69-2.177.39-2.176.392v-.901l1.851-3.387zM27.19 25.27l3.137 2.618 2.75 2.237 3.632.483 3.63.483 3.199 1.614 3.199 1.615 2.671 5.732 2.672 5.733 4.297 5.611 4.298 5.611.922.757.923.758-.198 4.157-.199 4.157-5.94-5.174-5.942-5.176-3.45-3.142-3.45-3.143-.115-7.24-.115-8.109-2.493-.083-.315 5.95-.232 5.127-.424 1.106-.424 1.106-2.504-1.277-2.503-1.277-2.298-3.16-2.3-3.16-.479-3.292-.48-3.292-1.637-2.794-1.689-2.686a58.75 58.75 0 0 1 1.857-1.85zm81.418.27a58.75 58.75 0 0 1 2.014 2.045l-1.584 2.46-1.62 2.898-.454 3.12-.454 3.121-2.299 3.16-2.299 3.16-2.537 1.295-2.536 1.293-.464-2.473-.464-2.474-.39-3.578-.123-4.01c-.55-.182-1.43-.261-1.98-.443l-.39 5.5.005 4.882-.087 2.714-.456 2.426-8.678 7.641-8.677 7.642h-.798v-7.6l4.694-5.938 4.694-5.936 2.84-6.066 2.841-6.066 3.204-1.623 3.204-1.625 3.75-.468 3.748-.468 2.693-2.305zm-86.044 4.67 1.477 2.308 1.446 2.451v3.225l-.496-.03-.495-.028-2.433-1.286-2.76-2.3a58.75 58.75 0 0 1 3.26-4.34zm90.766.48a58.75 58.75 0 0 1 3.475 4.747l-2.836 1.424-2.614 1.333h-.713V35.5l1.367-2.68zm5.552 8.14a58.75 58.75 0 0 1 3.208 6.623l-1.075.252-2.988.145-4.99.009-6.433.256.47-.825.469-.825.991-1.155.993-1.155 1.712-.008 1.714-.008 2.872-1.642zm-102.316.128 3.767 2.005 2.843 1.176 1.714.008 1.712.008.993 1.155.991 1.155.47.825.469.825-6.805-.076-6.805-.077-1.155-.302-1.247-.531a58.75 58.75 0 0 1 3.053-6.17zm-3.783 11.118H34.271l4.16 2.326 4.16 2.327.4.649.402.648-.868.246-.866.247-5.22.8-5.22.8-.72.209-.723.208-4.445-1.183-4.446-1.185-3.26-2.093-3.26-2.09-.791-.955zm88.941 0h10.833l10.998.289-1.215 1.34-1.378 1.053-3.345 1.873-3.344 1.872-3.3.778-3.301.776-.99.227-.99.227-2.641-.622-2.64-.62-3.61-.461-3.607-.46.008-.66.007-.661 4.257-2.475zM10.66 53.827l3.165 2.312 2.998 2.188.04.732.04.732-2.707 3.077-2.708 3.076-1.252.67-1.232.55a58.75 58.75 0 0 1 1.656-13.337zm114.285.571a58.75 58.75 0 0 1 1.529 12.542l-3.64-3.264-3.611-3.819.041-.766.04-.764 2.949-2.151zm-36.55 5.495 4.357.432 4.357.432 4.175.932 4.174.932 2.927 2.014 2.928 2.014.647-.4.649-.4-1.431-1.938-1.433-1.937.283-.251.283-.25 2.437-.441 2.437-.44 2.706 3.487 2.705 3.49 2.961 2.31 2.774 1.763a58.75 58.75 0 0 1-16.649 37.194c-10.864 6.615-21.51 8.415-30.555 9.175l-4.586-4.782-.206-39.91 7.03-6.713zm-40.483.084 6.94 6.685 6.94 6.685v40.006l-4.447 4.715c-8.617.515-23.905-4.89-33.127-10.926A58.75 58.75 0 0 1 9.163 72.346l3.451-2.467 3.688-2.97 2.327-3.2 2.327-3.202 2.43.454 2.43.453.283.28.283.28-1.394 1.885-1.394 1.885.708.706.708.708 2.973-2.27 2.974-2.27 2.494-.672 2.495-.672 4.836-.628 4.837-.628 1.146-.02z"/></svg>