<?xml version="1.0" encoding="UTF-8" standalone="no"?>
<!-- Created with Inkscape (http://www.inkscape.org/) -->

<svg
   width="512"
   height="512"
   viewBox="0 0 135.46666 135.46666"
   version="1.1"
   id="svg1304"
   inkscape:version="1.1 (c68e22c387, 2021-05-23)"
   sodipodi:docname="paladin.svg"
   xmlns:inkscape="http://www.inkscape.org/namespaces/inkscape"
   xmlns:sodipodi="http://sodipodi.sourceforge.net/DTD/sodipodi-0.dtd"
   xmlns="http://www.w3.org/2000/svg"
   xmlns:svg="http://www.w3.org/2000/svg">
  <sodipodi:namedview
     id="namedview1306"
     pagecolor="#505050"
     bordercolor="#eeeeee"
     borderopacity="1"
     inkscape:pageshadow="0"
     inkscape:pageopacity="0"
     inkscape:pagecheckerboard="0"
     inkscape:document-units="px"
     showgrid="false"
     width="512mm"
     units="px"
     inkscape:zoom="0.35355339"
     inkscape:cx="-168.29141"
     inkscape:cy="-111.72287"
     inkscape:window-width="1920"
     inkscape:window-height="1017"
     inkscape:window-x="1912"
     inkscape:window-y="-8"
     inkscape:window-maximized="1"
     inkscape:current-layer="layer1" />
  <defs
     id="defs1301">
    <filter
       style="color-interpolation-filters:sRGB;"
       inkscape:label="Colorize"
       id="filter139057"
       x="0"
       y="0"
       width="1"
       height="1">
      <feColorMatrix
         values="0.21 0.72 0.072 0 0 0.21 0.72 0.072 0 0 0.21 0.72 0.072 0 0 0 0 0 1 0 "
         id="feColorMatrix139055"
         result="fbSourceGraphic" />
      <feColorMatrix
         result="fbSourceGraphicAlpha"
         in="fbSourceGraphic"
         values="0 0 0 -1 0 0 0 0 -1 0 0 0 0 -1 0 0 0 0 1 0"
         id="feColorMatrix139265" />
      <feComposite
         in2="fbSourceGraphic"
         id="feComposite139267"
         operator="arithmetic"
         k1="0"
         k2="1"
         result="composite1"
         in="fbSourceGraphic" />
      <feColorMatrix
         id="feColorMatrix139269"
         in="composite1"
         values="1"
         type="saturate"
         result="colormatrix1" />
      <feFlood
         id="feFlood139271"
         flood-opacity="1"
         flood-color="rgb(0,0,0)"
         result="flood1" />
      <feBlend
         in2="colormatrix1"
         id="feBlend139273"
         in="flood1"
         mode="multiply"
         result="blend1" />
      <feBlend
         in2="blend1"
         id="feBlend139275"
         mode="screen"
         result="blend2" />
      <feColorMatrix
         id="feColorMatrix139277"
         in="blend2"
         values="1"
         type="saturate"
         result="colormatrix2" />
      <feComposite
         in2="fbSourceGraphic"
         id="feComposite139279"
         in="colormatrix2"
         operator="in"
         k2="1"
         result="composite2" />
    </filter>
  </defs>
  <g
     inkscape:label="Layer 1"
     inkscape:groupmode="layer"
     id="layer1">
    <path
       id="path185667"
       style="fill:#000000;stroke-width:3.36268"
       d="M 326.84375 19.501953 L 296.11914 23.824219 C 279.22125 26.201651 237.70295 35.024967 203.85938 43.429688 L 142.32617 58.708984 L 113.4668 58.708984 L 84.603516 58.708984 L 73.175781 51.646484 L 61.744141 44.583984 L 53.015625 46.773438 L 44.285156 48.964844 L 52.28125 57.650391 C 56.676656 62.427559 67.428868 72.054304 76.177734 79.044922 L 92.085938 91.753906 L 81.220703 101.32812 C 75.246026 106.59445 64.388044 118.45465 57.089844 127.68164 C 49.791606 136.90863 39.198933 149.53658 33.550781 155.74219 L 23.279297 167.02539 L 37.521484 164.70312 L 51.759766 162.37891 L 47.070312 173.59375 C 33.761534 205.41969 17.33451 239.08278 12.509766 244.41406 C 4.7107018 253.03195 9.3945013 255.52874 31.765625 254.68555 L 51.435547 253.94531 L 45.199219 272.05664 C 41.771686 282.01891 39.621154 290.82235 40.417969 291.61914 C 41.214765 292.41594 46.197026 311.83809 51.486328 334.77734 L 61.103516 376.48633 L 67.410156 365.57617 C 70.880776 359.57706 74.612879 354.65642 75.703125 354.64648 C 79.85782 354.60185 84.923641 371.15096 87.166016 392.08984 L 89.498047 413.86133 L 84.132812 431.93359 C 81.181236 441.87258 78.765625 450.66863 78.765625 451.48047 C 78.765625 452.29227 85.4515 447.47721 93.623047 440.78125 C 111.73683 425.93836 111.5883 425.94526 114.20117 439.87305 L 116.31641 451.13867 L 110.99023 469.06445 C 108.06214 478.92441 105.66992 488.22841 105.66992 489.74219 L 105.66992 492.49805 L 282.5 492.49805 L 459.33008 492.49805 L 448.95312 478.38281 C 435.9802 460.74236 436.02041 460.09674 450.22656 457.43164 C 467.68643 454.15615 467.34338 450.21701 448.71484 440.07812 L 431.84961 430.90039 L 431.84961 416.88867 L 431.84961 402.87695 L 423.44141 394.97656 C 412.52061 384.71703 412.82758 382.51319 425.96484 376.76758 L 436.89453 371.99023 L 427.35742 371.7168 L 417.82227 371.43945 L 407.32422 359.58008 C 401.54971 353.05767 390.32941 343.91804 382.39062 339.26562 C 367.00289 330.24777 365.66392 327.99817 371.93555 321.72656 C 377.27035 316.39175 373.88894 313.65442 358.74805 311.05469 L 346.09961 308.88477 L 324.00781 312.97656 C 290.22103 319.2356 249.32558 322.07932 229.21289 319.56641 L 211.08594 317.29883 L 203.92383 302.55273 L 196.75781 287.80273 L 203.46289 268.25195 C 209.98083 249.25051 225.09009 227.44949 229.01758 231.37695 C 230.08766 232.44703 231.14294 242.33281 231.36523 253.34375 C 231.58743 264.35475 233.02804 274.62298 234.56836 276.16406 C 238.50516 280.10272 266.34352 279.36436 305.74805 274.27734 C 324.24285 271.8897 354.5052 269.53304 373 269.04102 C 391.49482 268.54899 415.9426 266.25115 427.32812 263.93359 L 448.03125 259.71875 L 459.73633 247.48438 L 471.44141 235.25 L 472.91992 224.32227 C 474.56009 212.19559 473.51242 211.26824 465.74023 217.97266 C 462.82036 220.49138 452.9739 225.0328 443.85938 228.0625 L 427.28906 233.57227 L 391.73828 233.63672 C 346.64599 233.72119 314.26265 238.38788 296.74219 247.32617 L 282.99023 254.34375 L 276.30273 247.65625 L 269.61523 240.96875 L 279.27539 228.7168 L 288.93555 216.46484 L 303.89062 209.78125 C 312.11713 206.10474 329.52196 199.89688 342.56445 195.98828 C 355.60695 192.07973 374.60131 184.66964 384.77344 179.52148 L 403.26367 170.16016 L 411.41211 157.9375 C 415.89225 151.21427 423.75907 143.54049 428.89844 140.88281 L 438.24805 136.04883 L 454.29492 142.00977 L 470.34375 147.9668 L 475.47656 157.98047 C 478.2993 163.48902 481.11269 168.75299 481.73242 169.67773 C 482.35211 170.60246 486.36007 167.29681 490.63672 162.32812 L 498.41406 153.29102 L 500.70703 136.61523 L 503 119.93945 L 490.61133 101.2832 L 478.22266 82.625 L 463.42188 76.552734 L 448.62109 70.480469 L 446.67383 64.402344 C 444.84023 58.682399 440.24749 56.021472 422.89844 50.621094 L 415.62695 48.359375 L 413.48633 58.103516 C 412.30874 63.464927 407.256 71.691647 402.25977 76.384766 L 393.17773 84.917969 L 378.04688 87.25 C 369.72424 88.531751 356.47374 91.139394 348.60156 93.044922 L 334.28711 96.507812 C 322.74824 121.06471 317.13298 132.93045 299.74609 143.75195 C 267.16281 155.54154 250.46528 139.23795 246.23438 118.6543 L 238.33594 130.28711 C 229.05017 143.95236 203.8164 161.48609 185.58203 166.94922 L 172.70703 170.80859 L 168.74805 166.85156 L 164.78906 162.89258 L 183.54492 143.58594 L 202.30078 124.2832 L 208.625 106.14258 L 214.95508 87.996094 L 228.40625 79.503906 C 245.82691 68.50003 265.709 62.569456 299.02148 58.449219 C 313.8173 56.619205 335.22367 52.077133 346.58984 48.353516 L 367.25586 41.582031 L 376.65625 24.572266 L 326.84375 19.501953 z M 282.75 82.75 A 21 21 0 0 0 261.75 103.75 A 21 21 0 0 0 282.75 124.75 A 21 21 0 0 0 303.75 103.75 A 21 21 0 0 0 282.75 82.75 z "
       transform="scale(0.26458332)" />
  </g>
</svg>
