<?xml version="1.0" encoding="UTF-8" standalone="no"?>
<!-- Created with Inkscape (http://www.inkscape.org/) -->

<svg
   width="512"
   height="512"
   viewBox="0 0 135.46666 135.46666"
   version="1.1"
   id="svg1304"
   inkscape:version="1.1 (c68e22c387, 2021-05-23)"
   sodipodi:docname="ranger.svg"
   xmlns:inkscape="http://www.inkscape.org/namespaces/inkscape"
   xmlns:sodipodi="http://sodipodi.sourceforge.net/DTD/sodipodi-0.dtd"
   xmlns="http://www.w3.org/2000/svg"
   xmlns:svg="http://www.w3.org/2000/svg">
  <sodipodi:namedview
     id="namedview1306"
     pagecolor="#505050"
     bordercolor="#eeeeee"
     borderopacity="1"
     inkscape:pageshadow="0"
     inkscape:pageopacity="0"
     inkscape:pagecheckerboard="0"
     inkscape:document-units="px"
     showgrid="false"
     width="512mm"
     units="px"
     inkscape:zoom="1"
     inkscape:cx="34.5"
     inkscape:cy="131.5"
     inkscape:window-width="1920"
     inkscape:window-height="1017"
     inkscape:window-x="1912"
     inkscape:window-y="-8"
     inkscape:window-maximized="1"
     inkscape:current-layer="layer1" />
  <defs
     id="defs1301">
    <filter
       style="color-interpolation-filters:sRGB;"
       inkscape:label="Colorize"
       id="filter139057"
       x="0"
       y="0"
       width="1"
       height="1">
      <feColorMatrix
         values="0.21 0.72 0.072 0 0 0.21 0.72 0.072 0 0 0.21 0.72 0.072 0 0 0 0 0 1 0 "
         id="feColorMatrix139055"
         result="fbSourceGraphic" />
      <feColorMatrix
         result="fbSourceGraphicAlpha"
         in="fbSourceGraphic"
         values="0 0 0 -1 0 0 0 0 -1 0 0 0 0 -1 0 0 0 0 1 0"
         id="feColorMatrix139265" />
      <feComposite
         in2="fbSourceGraphic"
         id="feComposite139267"
         operator="arithmetic"
         k1="0"
         k2="1"
         result="composite1"
         in="fbSourceGraphic" />
      <feColorMatrix
         id="feColorMatrix139269"
         in="composite1"
         values="1"
         type="saturate"
         result="colormatrix1" />
      <feFlood
         id="feFlood139271"
         flood-opacity="1"
         flood-color="rgb(0,0,0)"
         result="flood1" />
      <feBlend
         in2="colormatrix1"
         id="feBlend139273"
         in="flood1"
         mode="multiply"
         result="blend1" />
      <feBlend
         in2="blend1"
         id="feBlend139275"
         mode="screen"
         result="blend2" />
      <feColorMatrix
         id="feColorMatrix139277"
         in="blend2"
         values="1"
         type="saturate"
         result="colormatrix2" />
      <feComposite
         in2="fbSourceGraphic"
         id="feComposite139279"
         in="colormatrix2"
         operator="in"
         k2="1"
         result="composite2" />
    </filter>
  </defs>
  <g
     inkscape:label="Layer 1"
     inkscape:groupmode="layer"
     id="layer1">
    <path
       id="path187792"
       style="opacity:1;fill:#000000;stroke-width:0.548366"
       d="m 37.622006,22.240436 c -1.023402,0.01633 -2.124199,0.212857 -3.218933,0.607199 -3.503364,1.261911 -5.618377,4.073124 -4.724268,6.279218 0.685767,1.692416 2.990749,2.591153 5.75315,2.243279 l 3.724845,16.460534 -8.604146,2.568325 -0.397391,-2.025721 -2.774515,0.177765 -3.039098,6.104553 5.977943,3.173456 2.520265,-1.515155 -0.283703,-2.246382 6.238392,-1.851052 5.333537,11.594151 -26.71006,0.04548 c 0,0 -6.058064,-1.342038 -9.7115738,-0.855765 -3.2495619,0.432516 -5.0857119,1.711369 -5.2756593,2.935228 -0.2351613,1.515182 0.3277042,1.774186 2.5347349,0.749829 6.6445712,-3.083993 14.9016222,-0.22276 29.3822552,10.467079 7.35937,5.432811 15.459425,9.360949 20.767773,10.340997 L 67.468833,113.22735 60.187348,85.081967 c 0.248939,-0.24887 14.558579,-0.106204 14.558579,-0.106204 L 67.468833,113.22735 80.056724,87.004593 c 8.01167,-1.866098 11.761288,-3.5558 21.456106,-10.107417 14.47285,-9.780544 22.47275,-12.751521 28.74922,-9.975124 2.51785,1.113771 3.1463,0.26002 2.68253,-1.203032 -0.26841,-0.846708 -2.41588,-2.727638 -6.57481,-2.983287 -3.45847,-0.21259 -7.50241,0.947747 -7.50241,0.947747 l -28.021088,0.04754 5.296847,-11.514568 6.238391,1.851052 -0.2837,2.245864 2.52027,1.515673 5.97793,-3.173456 -3.0391,-6.104553 -2.7745,-0.177765 -0.3974,2.025721 -8.604144,-2.568325 3.724845,-16.460534 c 2.762399,0.347881 5.067379,-0.550869 5.753149,-2.243279 0.89411,-2.206094 -1.2214,-5.01731 -4.72478,-6.279218 -3.503139,-1.261895 -7.067813,-0.49686 -7.962329,1.708944 -0.676662,1.6681 0.364369,3.753865 2.6107,5.230701 l -7.518939,15.356721 -8.193315,-2.678396 0.455786,-2.406061 -2.223124,-1.117764 -6.199121,2.161633 2.58021,6.569122 3.548629,-0.04238 0.839745,-1.956474 6.29782,2.065511 -4.342379,16.009915 -25.905972,0.04392 -4.354267,-16.053839 6.297821,-2.065511 0.839744,1.956474 3.54863,0.04238 2.580209,-6.569122 -6.19912,-2.161633 -2.223124,1.117764 0.455785,2.406061 -8.193316,2.678396 -7.518939,-15.356721 c 2.246324,-1.476829 3.287364,-3.562603 2.610701,-5.230701 -0.614981,-1.516485 -2.492423,-2.352071 -4.743909,-2.316143 z M 23.465732,66.169641 h 21.747561 l 4.910821,10.67586 C 46.157149,76.8151 42.471667,76.323981 35.254703,72.313466 33.61338,71.401371 23.465732,66.169641 23.465732,66.169641 Z m 31.700982,0 h 24.604239 l -3.389982,12.497456 c -0.812516,0.287527 0,0 0,0 l -17.768983,0.203611 c 0,0 0.441099,0.149807 0,0 z m 34.557659,0 h 22.329957 l -8.87855,4.33618 c -7.073399,3.616877 -12.108598,6.976731 -18.304869,6.215137 -0.266068,0.03264 0.256368,-0.03503 0,0 z"
       sodipodi:nodetypes="sccccccccccccccsscsccccccssssccccccccccccccccccccccccccccccccccccccscccscccccccccccccc" />
  </g>
</svg>
