<?xml version="1.0" encoding="UTF-8" standalone="no"?>
<!-- Created with Inkscape (http://www.inkscape.org/) -->

<svg
   width="512"
   height="512"
   viewBox="0 0 135.46666 135.46666"
   version="1.1"
   id="svg1304"
   inkscape:version="1.1 (c68e22c387, 2021-05-23)"
   sodipodi:docname="reaver.svg"
   xmlns:inkscape="http://www.inkscape.org/namespaces/inkscape"
   xmlns:sodipodi="http://sodipodi.sourceforge.net/DTD/sodipodi-0.dtd"
   xmlns="http://www.w3.org/2000/svg"
   xmlns:svg="http://www.w3.org/2000/svg">
  <sodipodi:namedview
     id="namedview1306"
     pagecolor="#505050"
     bordercolor="#eeeeee"
     borderopacity="1"
     inkscape:pageshadow="0"
     inkscape:pageopacity="0"
     inkscape:pagecheckerboard="0"
     inkscape:document-units="px"
     showgrid="false"
     width="512mm"
     units="px"
     inkscape:zoom="0.35355339"
     inkscape:cx="-425.67828"
     inkscape:cy="-35.355339"
     inkscape:window-width="1920"
     inkscape:window-height="1017"
     inkscape:window-x="1912"
     inkscape:window-y="-8"
     inkscape:window-maximized="1"
     inkscape:current-layer="layer1" />
  <defs
     id="defs1301">
    <filter
       style="color-interpolation-filters:sRGB;"
       inkscape:label="Colorize"
       id="filter139057"
       x="0"
       y="0"
       width="1"
       height="1">
      <feColorMatrix
         values="0.21 0.72 0.072 0 0 0.21 0.72 0.072 0 0 0.21 0.72 0.072 0 0 0 0 0 1 0 "
         id="feColorMatrix139055"
         result="fbSourceGraphic" />
      <feColorMatrix
         result="fbSourceGraphicAlpha"
         in="fbSourceGraphic"
         values="0 0 0 -1 0 0 0 0 -1 0 0 0 0 -1 0 0 0 0 1 0"
         id="feColorMatrix139265" />
      <feComposite
         in2="fbSourceGraphic"
         id="feComposite139267"
         operator="arithmetic"
         k1="0"
         k2="1"
         result="composite1"
         in="fbSourceGraphic" />
      <feColorMatrix
         id="feColorMatrix139269"
         in="composite1"
         values="1"
         type="saturate"
         result="colormatrix1" />
      <feFlood
         id="feFlood139271"
         flood-opacity="1"
         flood-color="rgb(0,0,0)"
         result="flood1" />
      <feBlend
         in2="colormatrix1"
         id="feBlend139273"
         in="flood1"
         mode="multiply"
         result="blend1" />
      <feBlend
         in2="blend1"
         id="feBlend139275"
         mode="screen"
         result="blend2" />
      <feColorMatrix
         id="feColorMatrix139277"
         in="blend2"
         values="1"
         type="saturate"
         result="colormatrix2" />
      <feComposite
         in2="fbSourceGraphic"
         id="feComposite139279"
         in="colormatrix2"
         operator="in"
         k2="1"
         result="composite2" />
    </filter>
  </defs>
  <g
     inkscape:label="Layer 1"
     inkscape:groupmode="layer"
     id="layer1">
    <path
       style="fill:#000000;stroke-width:0.679067"
       d="M 58.200937,101.6688 C 41.403585,96.299117 32.886934,78.2511 39.276119,61.564375 c 0.786525,-2.054177 1.4302,-3.782599 1.430387,-3.840931 1.9e-4,-0.05833 -1.60371,-1.258467 -3.56422,-2.666953 C 32.271997,51.557536 26.465478,48.782851 15.241841,44.591214 3.4820094,40.199324 3.7296424,40.333259 2.6788419,37.796403 c -1.12406,-2.713719 1.0678104,-5.43768 4.3628004,-5.421905 5.7481667,0.02753 29.9300757,10.066096 36.5992727,15.19336 l 3.2736,2.516736 3.106043,-2.057356 C 60.441219,41.124876 73.440964,41.021195 84.028948,47.756 l 3.59669,2.28778 4.21258,-2.986431 c 5.3217,-3.772716 9.649412,-5.944106 19.102762,-9.584636 14.60895,-5.625972 17.53334,-6.085408 20.30699,-3.190331 l 1.83744,1.917882 -1.54062,2.217295 c -1.30693,1.880935 -3.02617,2.773169 -11.33325,5.88162 -12.40335,4.641243 -17.43063,6.99949 -22.496022,10.552661 -2.22279,1.559205 -4.041451,2.904586 -4.041451,2.989736 0,0.08516 0.587481,1.492384 1.305511,3.127177 C 105.17621,84.184257 82.388975,109.4011 58.200937,101.6688 Z M 76.46688,91.757075 c 8.772212,-4.286379 13.69798,-15.154613 11.145021,-24.590398 -0.991695,-3.665324 -1.016657,-3.661237 -6.874634,1.12518 -4.500775,3.677481 -9.472407,5.766093 -9.472407,3.979421 0,-1.525781 2.208081,-5.428664 5.671437,-10.024521 2.109522,-2.799325 3.835499,-5.296512 3.835499,-5.549301 0,-0.25279 -1.882291,-1.400202 -4.182861,-2.549815 -5.579058,-2.787889 -12.668991,-2.959441 -17.886812,-0.432802 -5.717344,2.768527 -5.643047,2.619907 -2.964406,5.92957 1.308053,1.616213 3.332914,4.343162 4.499674,6.059885 5.602274,8.242928 1.956554,9.471578 -6.694371,2.256083 l -5.358128,-4.46906 -0.760283,1.92256 c -6.853051,17.329645 12.17198,34.586563 29.042271,26.343198 z"
       id="path195558" />
  </g>
</svg>
