<svg width="512" height="512" viewBox="0 0 135.467 135.467" xmlns="http://www.w3.org/2000/svg"><path style="fill:#000;stroke-width:.679067" d="M58.2 101.669c-16.796-5.37-25.313-23.418-18.924-40.105.787-2.054 1.43-3.782 1.43-3.84 0-.059-1.603-1.259-3.564-2.668-4.87-3.498-10.677-6.273-21.9-10.465C3.482 40.2 3.73 40.333 2.679 37.796c-1.124-2.713 1.068-5.437 4.363-5.422 5.748.028 29.93 10.067 36.599 15.194l3.274 2.517 3.106-2.058c10.42-6.902 23.42-7.006 34.008-.271l3.597 2.288 4.212-2.987c5.322-3.772 9.65-5.944 19.103-9.584 14.609-5.626 17.533-6.086 20.307-3.19l1.837 1.917-1.54 2.218c-1.307 1.88-3.026 2.773-11.333 5.881-12.404 4.641-17.431 7-22.496 10.553-2.223 1.559-4.042 2.904-4.042 2.99 0 .085.588 1.492 1.306 3.127 10.196 23.215-12.591 48.432-36.78 40.7zm18.267-9.912c8.772-4.286 13.698-15.155 11.145-24.59-.992-3.666-1.017-3.662-6.875 1.125-4.5 3.677-9.472 5.766-9.472 3.98 0-1.527 2.208-5.43 5.671-10.025 2.11-2.8 3.836-5.297 3.836-5.55 0-.252-1.882-1.4-4.183-2.55-5.58-2.787-12.67-2.959-17.887-.432-5.717 2.768-5.643 2.62-2.964 5.93a109.572 109.572 0 0 1 4.5 6.06c5.602 8.242 1.956 9.47-6.695 2.255l-5.358-4.469-.76 1.923C40.572 82.744 59.597 100 76.467 91.757z"/></svg>