<?xml version="1.0" encoding="UTF-8" standalone="no"?>
<!-- Created with Inkscape (http://www.inkscape.org/) -->

<svg
   width="512"
   height="512"
   viewBox="0 0 135.46666 135.46666"
   version="1.1"
   id="svg1304"
   inkscape:version="1.1 (c68e22c387, 2021-05-23)"
   sodipodi:docname="savage.svg"
   xmlns:inkscape="http://www.inkscape.org/namespaces/inkscape"
   xmlns:sodipodi="http://sodipodi.sourceforge.net/DTD/sodipodi-0.dtd"
   xmlns="http://www.w3.org/2000/svg"
   xmlns:svg="http://www.w3.org/2000/svg">
  <sodipodi:namedview
     id="namedview1306"
     pagecolor="#505050"
     bordercolor="#eeeeee"
     borderopacity="1"
     inkscape:pageshadow="0"
     inkscape:pageopacity="0"
     inkscape:pagecheckerboard="0"
     inkscape:document-units="px"
     showgrid="false"
     width="512mm"
     units="px"
     inkscape:zoom="0.67043641"
     inkscape:cx="130.51201"
     inkscape:cy="160.34332"
     inkscape:window-width="1920"
     inkscape:window-height="1017"
     inkscape:window-x="1912"
     inkscape:window-y="-8"
     inkscape:window-maximized="1"
     inkscape:current-layer="layer1" />
  <defs
     id="defs1301">
    <filter
       style="color-interpolation-filters:sRGB;"
       inkscape:label="Colorize"
       id="filter139057"
       x="0"
       y="0"
       width="1"
       height="1">
      <feColorMatrix
         values="0.21 0.72 0.072 0 0 0.21 0.72 0.072 0 0 0.21 0.72 0.072 0 0 0 0 0 1 0 "
         id="feColorMatrix139055"
         result="fbSourceGraphic" />
      <feColorMatrix
         result="fbSourceGraphicAlpha"
         in="fbSourceGraphic"
         values="0 0 0 -1 0 0 0 0 -1 0 0 0 0 -1 0 0 0 0 1 0"
         id="feColorMatrix139265" />
      <feComposite
         in2="fbSourceGraphic"
         id="feComposite139267"
         operator="arithmetic"
         k1="0"
         k2="1"
         result="composite1"
         in="fbSourceGraphic" />
      <feColorMatrix
         id="feColorMatrix139269"
         in="composite1"
         values="1"
         type="saturate"
         result="colormatrix1" />
      <feFlood
         id="feFlood139271"
         flood-opacity="1"
         flood-color="rgb(0,0,0)"
         result="flood1" />
      <feBlend
         in2="colormatrix1"
         id="feBlend139273"
         in="flood1"
         mode="multiply"
         result="blend1" />
      <feBlend
         in2="blend1"
         id="feBlend139275"
         mode="screen"
         result="blend2" />
      <feColorMatrix
         id="feColorMatrix139277"
         in="blend2"
         values="1"
         type="saturate"
         result="colormatrix2" />
      <feComposite
         in2="fbSourceGraphic"
         id="feComposite139279"
         in="colormatrix2"
         operator="in"
         k2="1"
         result="composite2" />
    </filter>
  </defs>
  <g
     inkscape:label="Layer 1"
     inkscape:groupmode="layer"
     id="layer1">
    <path
       style="fill:#000000;stroke-width:0.716372"
       d="m 50.701926,130.23496 c -2.525776,-1.69739 -5.073953,-3.3655 -5.662615,-3.70691 -0.921988,-0.53471 -0.847183,-1.07563 0.539834,-3.90357 5.102573,-10.40347 -4.255028,-17.7299 -19.293367,-15.10556 -4.614451,0.80527 -9.609065,-3.1658 -12.022731,-9.558944 l -1.619501,-4.289617 5.701822,-7.772328 5.701825,-7.772324 -2.41285,-3.361681 -2.412851,-3.361686 1.436869,-3.639363 c 1.76371,-4.467209 2.836077,-6.156735 6.965389,-10.974054 l 3.231375,-3.769776 -0.927817,-4.870799 C 28.453016,40.408672 31.327327,15.44541 34.097743,11.928306 38.519971,6.3141892 53.110871,1.3261566 61.458496,2.5747858 c 4.624279,0.6916944 4.960532,0.8832363 8.94366,5.0946221 2.276303,2.4067481 4.138731,4.0198041 4.138731,3.5845721 0,-0.435234 1.120963,-1.6382644 2.491033,-2.6733974 l 2.491041,-1.8820637 4.526798,1.1358263 c 6.446177,1.617408 11.57813,8.3636668 13.94697,18.3340788 0.86034,3.621165 2.385421,10.019749 3.389041,14.219078 1.33838,5.599902 2.91969,9.722554 5.93227,15.465995 4.39896,8.386574 4.64951,10.221337 2.07044,15.161651 -1.50656,2.885826 -1.46461,2.956805 4.35795,7.374411 2.95674,2.243309 6.20857,5.160121 7.22629,6.481813 l 1.85039,2.403073 -1.60338,5.89266 c -1.32293,4.861923 -2.11481,6.402922 -4.52714,8.809805 l -2.92374,2.91714 -5.70545,-0.55427 c -3.13801,-0.30485 -6.42995,-0.73438 -7.31539,-0.95452 -1.201095,-0.29861 -2.082717,0.15632 -3.47172,1.79149 -2.281045,2.68527 -2.29149,3.16101 -0.168825,7.69938 1.471748,3.14664 1.643815,11.24089 0.252219,11.86527 -0.08013,0.036 -2.507466,1.77211 -5.393946,3.85808 -2.886502,2.08598 -5.329218,3.67227 -5.42829,3.52509 -2.347117,-3.48696 -4.506789,-7.18449 -6.857148,-11.73988 -1.600287,-3.10162 -4.021841,-6.91749 -5.38123,-8.47972 l -2.471629,-2.84043 -2.216107,7.11832 c -1.218859,3.91508 -2.435467,8.97219 -2.703562,11.23803 -0.577205,4.87824 -0.605148,4.90073 -6.789231,5.46221 -4.79201,0.43509 -4.855107,0.41734 -9.416652,-2.64814 z m 14.096403,-11.68591 c 2.968247,-9.28531 2.873849,-8.34608 1.056219,-10.50837 l -1.44066,-1.71384 -2.134297,2.02548 c -1.841476,1.74758 -2.134288,2.54516 -2.134288,5.81348 0,3.56523 -0.105834,3.78801 -1.799448,3.78801 -1.692713,0 -1.799448,-0.22378 -1.799448,-3.77295 0,-3.51027 -0.212989,-3.97412 -3.059064,-6.66206 -6.204617,-5.85988 -14.035385,-9.528507 -20.33881,-9.528507 h -3.782842 l -0.805227,-3.167654 c -1.192402,-4.690744 -1.091035,-4.966446 2.453033,-6.672031 4.042057,-1.945244 3.777284,-1.955976 7.887937,0.319815 3.993932,2.211174 3.079658,3.555119 -1.962758,2.885178 C 33.40836,90.88656 32.073912,91.33499 32.073912,92.99 c 0,1.033176 0.777569,1.319703 4.258187,1.56909 5.128024,0.367429 11.693914,3.456643 17.935113,8.43837 l 4.254196,3.3957 2.956034,-2.92812 2.956031,-2.92812 3.52805,3.89581 3.52804,3.89581 0.933634,-3.07585 c 1.292767,-4.25904 9.962366,-9.366831 12.786966,-7.533574 1.612807,1.046775 1.968823,0.926024 7.439447,-2.523138 4.20457,-2.650934 6.455903,-3.625461 8.39395,-3.633446 4.21385,-0.01737 5.12396,-0.966735 3.03664,-3.167599 -1.8839,-1.98639 -4.236184,-1.962998 -9.205542,0.09155 -2.74153,1.133464 -2.843705,0.855321 -0.856124,-2.330286 1.468366,-2.353427 1.876142,-2.519766 8.395686,-3.424648 1.19373,-0.1657 2.52166,0.825819 5.21653,3.894889 l 3.61511,4.117163 -2.69729,2.096674 c -1.73166,1.346062 -3.85685,2.229085 -5.9363,2.466543 -2.06822,0.236183 -5.116043,1.496746 -8.431881,3.487386 l -5.192907,3.117496 -0.02548,3.38667 c -0.02478,3.28203 -0.09217,3.38667 -2.184845,3.38667 -2.11134,0 -2.159348,-0.0792 -2.159348,-3.56491 0,-4.13455 -0.630097,-4.39517 -4.817368,-1.99254 -5.115078,2.935 -5.113357,2.94534 2.004533,12.0282 6.892257,8.79494 6.488719,8.56823 9.659748,5.42715 2.86024,-2.83323 3.081821,-4.42803 1.139283,-8.19975 -1.765583,-3.42817 -1.265868,-6.05692 1.877185,-9.87466 2.655797,-3.225869 6.1171,-4.251053 13.19854,-3.909205 3.85281,0.185986 5.52734,-1.194469 7.78168,-6.415157 1.80713,-4.185059 1.43942,-4.771375 -6.40822,-10.218449 -6.86873,-4.767603 -6.83816,-4.709915 -5.40402,-10.192162 1.67561,-6.405316 1.46348,-7.60566 -2.72733,-15.432558 C 98.804401,52.38649 96.679374,47.546762 96.199506,45.586059 94.03159,36.728102 89.991191,25.198206 87.454752,20.631658 84.51084,15.331481 80.00067,11.016825 78.725075,12.280393 c -1.123548,1.112928 -0.01158,3.515975 2.41782,5.230308 2.049576,1.445637 4.7085,6.058087 3.934333,6.824928 -0.189668,0.187793 -2.467055,-0.889635 -5.061065,-2.394258 -4.182039,-2.425729 -4.780657,-3.050303 -5.283582,-5.512648 l -0.56718,-2.776969 -2.769003,3.347301 -2.769012,3.347302 -4.813735,-0.469854 c -3.536461,-0.345185 -5.950939,-0.150137 -9.099556,0.735052 -6.395326,1.797975 -7.748229,4.345478 -9.777148,18.410277 -2.001281,13.873194 -1.710813,15.867641 2.461145,16.899129 6.349484,1.569859 12.711505,5.148969 15.43065,8.680888 2.436706,3.165044 5.741558,5.325452 7.285187,4.762383 4.413389,-1.60987 10.814407,-10.844802 13.093531,-18.890416 l 1.517648,-5.357522 -1.865929,-4.616996 C 81.832908,37.959949 79.460502,33.827666 77.58713,31.316447 l -3.406125,-4.565852 -5.758234,-0.02895 -5.758234,-0.02895 -3.070421,3.531706 c -5.452155,6.271252 -7.392851,13.177526 -4.551791,16.198251 1.012112,1.076121 2.695424,1.590864 6.377837,1.950293 4.375364,0.427067 5.103716,0.707676 5.807337,2.237374 1.486891,3.232558 5.154058,1.107191 5.154058,-2.987115 0,-2.229481 -2.5952,-5.474396 -5.379242,-6.725953 L 64.142301,39.611546 66.102282,38.8734 c 3.512227,-1.322739 6.043769,-0.241041 8.431342,3.602615 2.582072,4.156787 2.571577,4.002392 0.630607,9.275427 -1.004555,2.729064 -1.938452,4.175571 -2.699173,4.180706 -0.639748,0.0042 -2.349906,0.20222 -3.800361,0.43981 -2.403221,0.393644 -2.738091,0.238684 -3.774568,-1.746716 C 63.832507,52.599336 63.396337,52.411773 58.6701,51.950457 53.865955,51.481543 53.491044,51.313815 51.827928,48.88943 48.184376,43.578093 49.947993,35.883699 56.697783,27.642988 l 3.69888,-4.515909 7.971843,0.02351 7.971836,0.02351 4.078136,5.50878 c 2.242996,3.029826 5.035822,7.899268 6.206278,10.820981 l 2.12813,5.312203 -1.771721,6.44535 C 84.328703,60.910831 80.882459,65.952747 71.947451,73.255979 69.723519,75.073764 63.963508,72.324923 60.338325,67.715773 57.3974,63.976613 53.597039,61.801332 46.025431,59.523244 l -5.086329,-1.530339 -0.76082,-4.06448 c -1.338399,-7.150057 1.899235,-26.265556 5.340278,-31.529837 2.561153,-3.91818 2.818317,-4.097418 7.665685,-5.342791 2.803525,-0.720277 6.965102,-1.218598 9.435767,-1.129875 5.659558,0.203239 7.884417,-1.516101 5.881035,-4.544785 C 65.64356,7.0612417 45.79093,11.172826 42.34643,16.79791 c -1.707345,2.788192 -6.472525,23.956574 -7.095235,31.519192 -0.528841,6.42259 -1.713085,9.565753 -5.896924,15.651355 l -3.324557,4.835742 2.218689,4.456785 2.218687,4.456785 -2.615536,4.677625 c -1.438546,2.572697 -3.86213,6.183914 -5.385744,8.024929 -3.298062,3.985117 -3.185766,5.332013 0.762984,9.151455 2.568455,2.484342 3.126964,2.686972 9.322094,3.382152 8.169266,0.91668 14.368925,3.61665 18.028189,7.85131 2.454748,2.84074 2.528978,3.09305 2.076245,7.05696 -0.538086,4.71111 0.261344,5.90396 5.103054,7.61443 4.320231,1.52624 4.345439,1.50143 7.03996,-6.92759 z M 55.639016,93.0028 C 45.965457,88.850807 33.301266,75.788568 35.392775,72.120208 c 2.430622,-4.263138 6.734054,-5.211426 13.415721,-2.956255 4.195063,1.415905 8.039211,6.940539 11.376049,16.34914 1.251682,3.529265 2.576053,6.978318 2.94304,7.664566 0.416068,0.778006 0.408928,1.247719 -0.01899,1.247719 -0.377431,0 -1.117601,0.149858 -1.644826,0.333019 C 60.936537,94.941558 58.315397,94.151542 55.639,93.0028 Z m 20.630579,-0.998369 c -0.23295,-0.601316 0.224174,-3.109968 1.015825,-5.574777 0.791649,-2.464811 1.812049,-6.059763 2.267554,-7.988781 2.431785,-10.298212 13.912904,-19.757955 17.618895,-14.516881 1.625474,2.298765 1.423277,7.86708 -0.41602,11.4575 -1.699327,3.31718 -13.103143,15.308741 -15.377056,16.16956 -3.862503,1.462206 -4.689941,1.535637 -5.109198,0.453379 z"
       id="path199000" />
  </g>
</svg>
