<svg width="512" height="512" viewBox="0 0 135.467 135.467" xmlns="http://www.w3.org/2000/svg"><path style="fill:#000;stroke-width:.716372" d="M50.702 130.235c-2.526-1.697-5.074-3.366-5.663-3.707-.922-.535-.847-1.076.54-3.904 5.103-10.403-4.255-17.73-19.293-15.105-4.615.805-9.61-3.166-12.023-9.559l-1.62-4.29 5.702-7.772 5.702-7.772-2.413-3.362-2.413-3.362 1.437-3.639c1.764-4.467 2.836-6.157 6.966-10.974l3.231-3.77-.928-4.87c-1.474-7.74 1.4-32.704 4.17-36.22C38.52 6.313 53.112 1.325 61.459 2.574c4.625.691 4.961.883 8.944 5.094 2.276 2.407 4.139 4.02 4.139 3.585 0-.435 1.12-1.638 2.49-2.673l2.492-1.882 4.527 1.135c6.446 1.618 11.578 8.364 13.947 18.334.86 3.622 2.385 10.02 3.389 14.22 1.338 5.6 2.92 9.722 5.932 15.465 4.399 8.387 4.65 10.222 2.07 15.162-1.506 2.886-1.464 2.957 4.358 7.375 2.957 2.243 6.209 5.16 7.227 6.481l1.85 2.403-1.603 5.893c-1.323 4.862-2.115 6.403-4.527 8.81l-2.924 2.917-5.706-.554c-3.138-.305-6.43-.735-7.315-.955-1.201-.298-2.083.157-3.472 1.792-2.28 2.685-2.291 3.16-.169 7.7 1.472 3.146 1.644 11.24.253 11.864-.08.036-2.508 1.773-5.394 3.858-2.887 2.086-5.33 3.673-5.429 3.526-2.347-3.487-4.506-7.185-6.857-11.74-1.6-3.102-4.022-6.918-5.38-8.48l-2.473-2.84-2.216 7.118c-1.219 3.915-2.435 8.972-2.703 11.238-.577 4.878-.605 4.9-6.79 5.462-4.791.435-4.855.417-9.416-2.648zm14.096-11.686c2.969-9.285 2.874-8.346 1.057-10.508l-1.441-1.714-2.134 2.025c-1.842 1.748-2.135 2.545-2.135 5.814 0 3.565-.106 3.788-1.8 3.788-1.692 0-1.799-.224-1.799-3.773 0-3.51-.213-3.974-3.059-6.662-6.204-5.86-14.035-9.529-20.338-9.529h-3.783l-.806-3.167c-1.192-4.691-1.09-4.967 2.453-6.672 4.043-1.946 3.778-1.956 7.888.32 3.994 2.21 3.08 3.555-1.962 2.885-3.53-.47-4.865-.021-4.865 1.634 0 1.033.777 1.32 4.258 1.57 5.128.367 11.694 3.456 17.935 8.437l4.254 3.396 2.956-2.928 2.956-2.928 3.529 3.896 3.528 3.896.933-3.076c1.293-4.26 9.963-9.367 12.787-7.534 1.613 1.047 1.969.926 7.44-2.523 4.204-2.651 6.456-3.625 8.394-3.633 4.213-.018 5.124-.967 3.036-3.168-1.884-1.986-4.236-1.963-9.205.091-2.742 1.134-2.844.856-.856-2.33 1.468-2.353 1.876-2.52 8.395-3.424 1.194-.166 2.522.825 5.217 3.894l3.615 4.118-2.697 2.096c-1.732 1.346-3.857 2.23-5.937 2.467-2.068.236-5.116 1.497-8.432 3.487l-5.193 3.118-.025 3.386c-.025 3.282-.092 3.387-2.185 3.387-2.111 0-2.16-.08-2.16-3.565 0-4.134-.63-4.395-4.817-1.992-5.115 2.935-5.113 2.945 2.005 12.028 6.892 8.795 6.489 8.568 9.66 5.427 2.86-2.833 3.082-4.428 1.139-8.2-1.766-3.428-1.266-6.057 1.877-9.874 2.656-3.226 6.117-4.252 13.199-3.91 3.853.186 5.527-1.194 7.781-6.415 1.808-4.185 1.44-4.771-6.408-10.218-6.869-4.768-6.838-4.71-5.404-10.192 1.676-6.406 1.464-7.606-2.727-15.433-2.118-3.955-4.243-8.794-4.722-10.755-2.168-8.858-6.209-20.388-8.745-24.954-2.944-5.3-7.454-9.615-8.73-8.352-1.123 1.113-.012 3.516 2.418 5.23 2.05 1.446 4.708 6.059 3.934 6.826-.19.187-2.467-.89-5.06-2.395-4.183-2.425-4.781-3.05-5.284-5.512l-.568-2.777-2.769 3.347-2.769 3.347-4.813-.47c-3.537-.345-5.951-.15-9.1.736-6.395 1.798-7.748 4.345-9.777 18.41-2.001 13.873-1.71 15.867 2.461 16.899 6.35 1.57 12.712 5.149 15.43 8.68 2.437 3.166 5.742 5.326 7.286 4.763 4.413-1.61 10.814-10.845 13.093-18.89l1.518-5.358L82.86 40.5c-1.026-2.54-3.398-6.671-5.272-9.183l-3.406-4.565-5.758-.03-5.758-.028-3.07 3.531c-5.453 6.272-7.394 13.178-4.553 16.199 1.012 1.076 2.696 1.59 6.378 1.95 4.376.427 5.104.708 5.807 2.237 1.487 3.233 5.155 1.108 5.155-2.987 0-2.23-2.596-5.474-5.38-6.726l-2.86-1.285 1.96-.739c3.513-1.322 6.044-.24 8.432 3.603 2.582 4.157 2.571 4.002.63 9.275-1.004 2.73-1.938 4.176-2.699 4.181-.64.004-2.35.202-3.8.44-2.404.394-2.738.239-3.775-1.747-1.057-2.026-1.494-2.213-6.22-2.675-4.804-.468-5.179-.636-6.842-3.06-3.644-5.312-1.88-13.006 4.87-21.247l3.699-4.516 7.972.024 7.971.023 4.078 5.509c2.243 3.03 5.036 7.9 6.207 10.82l2.128 5.313-1.772 6.445c-2.652 9.65-6.099 14.692-15.034 21.995-2.223 1.818-7.983-.931-11.609-5.54-2.94-3.74-6.741-5.915-14.313-8.193l-5.086-1.53-.76-4.065c-1.34-7.15 1.899-26.265 5.34-31.53 2.56-3.918 2.818-4.097 7.665-5.342 2.804-.72 6.965-1.219 9.436-1.13 5.66.203 7.884-1.516 5.881-4.545-2.857-4.32-22.71-.208-26.155 5.417-1.707 2.788-6.472 23.956-7.095 31.52-.529 6.422-1.713 9.565-5.897 15.65l-3.324 4.836 2.218 4.457 2.22 4.457-2.616 4.677c-1.439 2.573-3.863 6.184-5.386 8.025-3.298 3.985-3.186 5.332.763 9.152 2.568 2.484 3.127 2.687 9.322 3.382 8.17.917 14.369 3.617 18.028 7.851 2.455 2.841 2.53 3.093 2.076 7.057-.538 4.711.262 5.904 5.103 7.615 4.32 1.526 4.346 1.501 7.04-6.928zM55.64 93.003C45.965 88.85 33.301 75.789 35.393 72.12c2.43-4.263 6.734-5.211 13.415-2.956 4.196 1.416 8.04 6.94 11.377 16.35 1.251 3.528 2.576 6.977 2.943 7.664.416.778.409 1.247-.02 1.247-.377 0-1.117.15-1.644.333-.527.184-3.149-.606-5.825-1.755zm20.63-.999c-.232-.6.225-3.11 1.016-5.574.792-2.465 1.812-6.06 2.268-7.99 2.432-10.297 13.913-19.757 17.619-14.516 1.625 2.299 1.423 7.867-.416 11.457-1.7 3.318-13.103 15.31-15.377 16.17-3.863 1.462-4.69 1.536-5.11.453z"/></svg>