<?xml version="1.0" encoding="UTF-8" standalone="no"?>
<!-- Created with Inkscape (http://www.inkscape.org/) -->

<svg
   width="512"
   height="512"
   viewBox="0 0 135.46666 135.46666"
   version="1.1"
   id="svg1304"
   inkscape:version="1.1 (c68e22c387, 2021-05-23)"
   sodipodi:docname="scout.svg"
   xmlns:inkscape="http://www.inkscape.org/namespaces/inkscape"
   xmlns:sodipodi="http://sodipodi.sourceforge.net/DTD/sodipodi-0.dtd"
   xmlns="http://www.w3.org/2000/svg"
   xmlns:svg="http://www.w3.org/2000/svg">
  <sodipodi:namedview
     id="namedview1306"
     pagecolor="#505050"
     bordercolor="#eeeeee"
     borderopacity="1"
     inkscape:pageshadow="0"
     inkscape:pageopacity="0"
     inkscape:pagecheckerboard="0"
     inkscape:document-units="px"
     showgrid="false"
     width="512mm"
     units="px"
     inkscape:zoom="0.94814026"
     inkscape:cx="103.88758"
     inkscape:cy="234.66992"
     inkscape:window-width="1920"
     inkscape:window-height="1017"
     inkscape:window-x="1912"
     inkscape:window-y="-8"
     inkscape:window-maximized="1"
     inkscape:current-layer="layer1" />
  <defs
     id="defs1301">
    <filter
       style="color-interpolation-filters:sRGB;"
       inkscape:label="Colorize"
       id="filter139057"
       x="0"
       y="0"
       width="1"
       height="1">
      <feColorMatrix
         values="0.21 0.72 0.072 0 0 0.21 0.72 0.072 0 0 0.21 0.72 0.072 0 0 0 0 0 1 0 "
         id="feColorMatrix139055"
         result="fbSourceGraphic" />
      <feColorMatrix
         result="fbSourceGraphicAlpha"
         in="fbSourceGraphic"
         values="0 0 0 -1 0 0 0 0 -1 0 0 0 0 -1 0 0 0 0 1 0"
         id="feColorMatrix139265" />
      <feComposite
         in2="fbSourceGraphic"
         id="feComposite139267"
         operator="arithmetic"
         k1="0"
         k2="1"
         result="composite1"
         in="fbSourceGraphic" />
      <feColorMatrix
         id="feColorMatrix139269"
         in="composite1"
         values="1"
         type="saturate"
         result="colormatrix1" />
      <feFlood
         id="feFlood139271"
         flood-opacity="1"
         flood-color="rgb(0,0,0)"
         result="flood1" />
      <feBlend
         in2="colormatrix1"
         id="feBlend139273"
         in="flood1"
         mode="multiply"
         result="blend1" />
      <feBlend
         in2="blend1"
         id="feBlend139275"
         mode="screen"
         result="blend2" />
      <feColorMatrix
         id="feColorMatrix139277"
         in="blend2"
         values="1"
         type="saturate"
         result="colormatrix2" />
      <feComposite
         in2="fbSourceGraphic"
         id="feComposite139279"
         in="colormatrix2"
         operator="in"
         k2="1"
         result="composite2" />
    </filter>
  </defs>
  <g
     inkscape:label="Layer 1"
     inkscape:groupmode="layer"
     id="layer1">
    <path
       id="path203314"
       style="opacity:1;fill:#000000;stroke-width:0.546951"
       d="m 67.684279,29.524167 -6.763187,14.442939 5.359485,-3.281709 V 58.82881 l -0.748854,0.02456 -6.767458,-11.425095 6.283533,0.09187 -13.179181,-8.978763 1.432541,15.937443 3.109721,-5.656464 6.002581,10.133564 -1.47207,0.04806 -2.359797,-1.203934 C 53.934502,54.406394 46.354278,57.422246 33.615172,67.103564 20.093228,77.379822 12.218634,79.978803 5.6544103,77.305491 3.1860085,76.300221 2.3812505,75.949826 2.3812505,77.755233 c 0,1.045114 1.498959,2.696886 5.7696944,3.000755 4.3090331,0.30659 11.7551871,-1.121676 11.7551871,-1.121676 h 37.444821 l -3.593643,6.066673 -6.60188,1.175092 -6.634993,12.59805 7.9105,-1.902581 2.345913,7.977804 7.765216,-11.928249 -2.432436,-6.527096 4.418341,-7.459693 h 5.752606 v 5.901093 l -5.081738,4.375614 0.712535,14.220741 5.836997,-5.668213 6.083769,5.668213 0.601434,-14.220742 -5.41824,-4.375614 v -5.901093 h 5.645783 l 4.606355,7.775897 -2.43137,6.5271 7.764149,11.928242 2.34698,-7.977801 7.9105,1.902581 -6.634993,-12.598044 -6.601876,-1.175094 -3.78059,-6.382881 h 40.239398 c 0,0 3.20001,1.375862 6.35084,1.245594 3.15081,-0.130255 5.9218,-0.632494 7.03238,-1.505183 2.98811,-2.348053 1.59466,-4.508641 -2.10661,-2.183535 -2.95407,1.855703 -8.08252,1.008629 -12.50298,-0.780898 -4.55177,-1.842702 -7.92511,-3.80989 -16.25578,-9.941278 -9.053868,-6.663636 -14.981799,-10.092253 -19.878274,-10.174154 -4.733527,0.526721 -3.558336,1.418054 -6.323061,2.267932 l -1.413312,0.04593 5.984416,-10.102578 3.109721,5.656458 1.432541,-15.937442 -13.179181,8.978768 6.283533,-0.09187 -6.873217,11.603491 -0.725352,0.0235 V 40.686449 l 5.558183,3.280657 z M 50.77685,105.54937 49.961762,105.31756 c 0.181461,0.36585 0.336407,0.62493 0.412353,0.62493 0.04672,0 0.190349,-0.14385 0.402735,-0.39312 z M 74.935658,64.538685 c 0,0 1.057565,2.730366 6.264304,2.482645 8.49576,-0.152974 12.527078,1.236548 18.34638,4.462141 5.005568,2.854108 5.831098,3.739168 11.076838,5.416107 H 76.219715 L 69.184118,65.02154 69.423409,64.616669 Z m -9.139008,0.129263 0.209384,0.353594 -7.035591,11.878038 H 24.874635 c 0,0 3.520339,-1.627319 8.986239,-4.419415 10.137485,-6.144629 10.881186,-5.132396 19.86118,-5.546432 5.101489,0.46703 6.496123,-2.186735 6.496123,-2.186735 z m 0.483927,5.25586 v 6.975772 h -4.13205 z m 2.734757,0.178401 4.026293,6.797373 h -4.026293 z" />
  </g>
</svg>
