<svg width="512" height="512" viewBox="0 0 135.467 135.467" xmlns="http://www.w3.org/2000/svg"><path style="opacity:1;fill:#000;stroke-width:.685008" d="m46.616 2.381-9.091 14.202v79.814H57.39V17.173zm41.918.65-6.205 5.246 3.603 6.497-2.133 17.29-10.141 1.59-4.691-5.216-5.366 7.044 5.588 6.35 4.707-4.133h29.36l4.712 4.138 5.702-6.318-5.577-7.037-4.575 5.238-10.302-1.558-1.965-17.499 3.745-6.426zm-9.205 36.038v79.815l9.091 14.201 10.774-14.791V39.069zM66.165 93.63l-4.713 4.138h-29.36l-4.706-4.132-5.59 6.348 5.367 7.045 4.69-5.215 10.142 1.59 2.132 17.29-3.603 6.496 6.207 5.248 6.46-5.208-3.743-6.427 1.964-17.497 10.302-1.559 4.576 5.237 5.576-7.035z"/></svg>