<svg width="512" height="512" viewBox="0 0 135.467 135.467" xmlns="http://www.w3.org/2000/svg"><path style="fill:#000;stroke-width:.722861" d="M63.776 132.007c-.69-.565-1.573-2.329-1.962-3.92-2.806-11.455-8.544-27.291-10.797-29.796-2.521-2.804-8.682-6.527-10.8-6.527-2.322 0-3.626-3.27-2.36-5.915.6-1.25 1.089-3.576 1.089-5.168v-2.894l-4.869-1.694-4.869-1.694v-2.912c0-3.973-1.046-6.66-3.804-9.772-2.006-2.264-2.418-3.392-2.969-8.128l-.639-5.499 3.532-3.208c1.943-1.764 5.286-4.617 7.429-6.339 4.553-3.659 5.56-5.8 7.548-16.041 2.007-10.347 3.043-12.349 7.673-14.839 6.089-3.274 9.946-4.022 21.573-4.18 5.93-.081 11.55-.482 12.489-.891 2.325-1.013 8.934 1.858 10.177 4.42.49 1.01 2.048 6.196 3.463 11.526 3.348 12.61 5.457 16.176 10.956 18.533 8.747 3.749 9.17 9.238 2.195 28.402-1.44 3.956-3.44 5.97-5.95 5.993-2.663.025-2.9.754-1.083 3.332 6.064 8.603 5.778 11.619-1.682 17.753-7.493 6.16-8.027 7.17-10.758 20.331-1.295 6.24-2.84 12.146-3.433 13.124-3.014 4.968-18.34 9.122-22.149 6.003zm-7.44-57.198c0-1.062-.882-3.343-1.96-5.07-1.077-1.728-3.002-5.169-4.277-7.647-2.736-5.32-2.919-5.487-10.11-9.287-7.629-4.03-8.453-4.248-9.338-2.462-.928 1.872.218 4.933 4.046 10.809 1.552 2.381 2.64 4.81 2.425 5.415-.267.752.23 1.239 1.587 1.554 4.076.948 7.97 2.806 11.867 5.666 4.713 3.458 5.76 3.643 5.76 1.022zm28.32-.622c3.53-2.622 8.815-5.24 12.196-6.038 1.284-.304 1.913-.93 1.913-1.907 0-.8 1.238-3.365 2.752-5.698 6.269-9.665 5.36-12.959-2.597-9.415-6.906 3.076-11.01 6.308-12.778 10.062-.816 1.735-2.692 5.079-4.169 7.432-4.674 7.45-3.403 10.086 2.683 5.564zM70.193 54.579c.06-2.893.83-9.413 1.709-14.49.879-5.078 1.374-8.965 1.1-8.64-.902 1.075-2.703 8.01-3.557 13.705l-.84 5.6-1.44-4.5c-1.293-4.041-6.294-13.836-7.064-13.836-.169 0 .208 1.267.838 2.817 2.628 6.47 7.2 21.429 7.68 25.127.658 5.075 1.403 2.337 1.574-5.783z"/></svg>