<?xml version="1.0" encoding="UTF-8" standalone="no"?>
<!-- Created with Inkscape (http://www.inkscape.org/) -->

<svg
   width="512"
   height="512"
   viewBox="0 0 135.46666 135.46666"
   version="1.1"
   id="svg1304"
   inkscape:version="1.1 (c68e22c387, 2021-05-23)"
   sodipodi:docname="shaman.svg"
   xmlns:inkscape="http://www.inkscape.org/namespaces/inkscape"
   xmlns:sodipodi="http://sodipodi.sourceforge.net/DTD/sodipodi-0.dtd"
   xmlns="http://www.w3.org/2000/svg"
   xmlns:svg="http://www.w3.org/2000/svg">
  <sodipodi:namedview
     id="namedview1306"
     pagecolor="#505050"
     bordercolor="#eeeeee"
     borderopacity="1"
     inkscape:pageshadow="0"
     inkscape:pageopacity="0"
     inkscape:pagecheckerboard="0"
     inkscape:document-units="px"
     showgrid="false"
     width="512mm"
     units="px"
     inkscape:zoom="0.94814026"
     inkscape:cx="90.176531"
     inkscape:cy="131.30969"
     inkscape:window-width="1920"
     inkscape:window-height="1017"
     inkscape:window-x="1912"
     inkscape:window-y="-8"
     inkscape:window-maximized="1"
     inkscape:current-layer="layer1" />
  <defs
     id="defs1301">
    <filter
       style="color-interpolation-filters:sRGB;"
       inkscape:label="Colorize"
       id="filter139057"
       x="0"
       y="0"
       width="1"
       height="1">
      <feColorMatrix
         values="0.21 0.72 0.072 0 0 0.21 0.72 0.072 0 0 0.21 0.72 0.072 0 0 0 0 0 1 0 "
         id="feColorMatrix139055"
         result="fbSourceGraphic" />
      <feColorMatrix
         result="fbSourceGraphicAlpha"
         in="fbSourceGraphic"
         values="0 0 0 -1 0 0 0 0 -1 0 0 0 0 -1 0 0 0 0 1 0"
         id="feColorMatrix139265" />
      <feComposite
         in2="fbSourceGraphic"
         id="feComposite139267"
         operator="arithmetic"
         k1="0"
         k2="1"
         result="composite1"
         in="fbSourceGraphic" />
      <feColorMatrix
         id="feColorMatrix139269"
         in="composite1"
         values="1"
         type="saturate"
         result="colormatrix1" />
      <feFlood
         id="feFlood139271"
         flood-opacity="1"
         flood-color="rgb(0,0,0)"
         result="flood1" />
      <feBlend
         in2="colormatrix1"
         id="feBlend139273"
         in="flood1"
         mode="multiply"
         result="blend1" />
      <feBlend
         in2="blend1"
         id="feBlend139275"
         mode="screen"
         result="blend2" />
      <feColorMatrix
         id="feColorMatrix139277"
         in="blend2"
         values="1"
         type="saturate"
         result="colormatrix2" />
      <feComposite
         in2="fbSourceGraphic"
         id="feComposite139279"
         in="colormatrix2"
         operator="in"
         k2="1"
         result="composite2" />
    </filter>
  </defs>
  <g
     inkscape:label="Layer 1"
     inkscape:groupmode="layer"
     id="layer1">
    <path
       style="fill:#000000;stroke-width:0.722861"
       d="m 63.775973,132.00696 c -0.689624,-0.56479 -1.57274,-2.32881 -1.962461,-3.92004 -2.805449,-11.45461 -8.543662,-27.29094 -10.796302,-29.795729 -2.521651,-2.80387 -8.682461,-6.526933 -10.800616,-6.526933 -2.321514,0 -3.62575,-3.270096 -2.359232,-5.915247 0.598751,-1.250489 1.088622,-3.576064 1.088622,-5.167954 V 77.786724 L 34.076992,76.093087 29.20801,74.399444 v -2.91267 c 0,-3.972439 -1.045862,-6.659105 -3.803847,-9.771503 -2.006406,-2.264243 -2.4186,-3.392734 -2.968877,-8.128093 l -0.638996,-5.498799 3.531969,-3.208078 c 1.942581,-1.764444 5.285387,-4.617093 7.428454,-6.339225 4.553309,-3.658952 5.560823,-5.800179 7.548119,-16.041498 C 42.312446,12.153465 43.347833,10.151192 47.977875,7.6612303 54.066896,4.3866576 57.924079,3.639166 69.551053,3.4805224 75.480773,3.3996188 81.100645,2.9987743 82.03963,2.589765 84.364668,1.577009 90.9736,4.44788 92.216923,7.0107027 c 0.489284,1.0085751 2.047621,6.1949943 3.462966,11.5253733 3.348048,12.609198 5.456661,16.176118 10.955961,18.533076 8.74666,3.748736 9.17096,9.238014 2.19538,28.402243 -1.43994,3.955935 -3.43953,5.969749 -5.95081,5.99309 -2.66235,0.02472 -2.899196,0.753613 -1.08242,3.331019 6.06424,8.603214 5.77844,11.619388 -1.68225,17.753169 -7.492556,6.15995 -8.026971,7.169928 -10.757875,20.331387 -1.294857,6.24043 -2.839481,12.14599 -3.432499,13.12346 -3.014581,4.96896 -18.34037,9.12291 -22.149403,6.00344 z M 56.335215,74.809252 c 0,-1.061788 -0.881618,-3.343634 -1.959139,-5.070765 -1.077542,-1.727142 -3.002164,-5.168088 -4.276966,-7.646553 -2.736049,-5.319459 -2.918665,-5.48723 -10.109778,-9.286781 -7.629268,-4.031072 -8.453547,-4.248409 -9.338618,-2.462313 -0.927504,1.87173 0.218601,4.933083 4.046583,10.808817 1.551693,2.38175 2.639404,4.810812 2.424762,5.414924 -0.267289,0.752264 0.229976,1.239461 1.586799,1.554742 4.076362,0.947213 7.96936,2.805713 11.867057,5.665287 4.713419,3.458023 5.7593,3.643734 5.7593,1.022642 z m 28.320503,-0.622231 c 3.529935,-2.62245 8.815083,-5.239109 12.196434,-6.038412 1.28408,-0.303539 1.912811,-0.930347 1.912811,-1.906946 0,-0.800122 1.238507,-3.364271 2.752257,-5.6981 6.26847,-9.664589 5.35995,-12.958309 -2.596907,-9.414626 -6.905857,3.075613 -11.010356,6.307794 -12.777987,10.06234 -0.816512,1.734299 -2.692537,5.078528 -4.168936,7.431603 -4.674405,7.449992 -3.403815,10.08565 2.682328,5.564141 z M 70.192769,54.578636 c 0.06097,-2.892215 0.829942,-9.412722 1.708906,-14.490018 0.878984,-5.077296 1.374163,-8.964882 1.100412,-8.639083 -0.902482,1.073996 -2.702767,8.009775 -3.55718,13.704202 l -0.840172,5.599596 -1.439653,-4.499483 c -1.293054,-4.041275 -6.293776,-13.836342 -7.063921,-13.836342 -0.168739,0 0.208241,1.267692 0.837681,2.817093 2.628404,6.469986 7.200553,21.429398 7.67985,25.127443 0.65784,5.07529 1.403048,2.337255 1.574077,-5.783408 z"
       id="path206821" />
  </g>
</svg>
