<svg width="512" height="512" viewBox="0 0 135.467 135.467" xmlns="http://www.w3.org/2000/svg"><path style="fill:#000;stroke-width:.673761" d="M67.683 132.068c-2.788-1.514-2.893-2.246-3.265-22.764L64.066 89.9l-3.706 3.281c-2.038 1.804-4.662 3.838-5.831 4.519l-2.126 1.237-2.76-2.185c-1.832-1.452-2.758-2.719-2.758-3.776 0-2.433 8.22-11.755 12.163-13.792l3.26-1.685-6.11-7.074c-3.36-3.891-9.808-11.016-14.33-15.834-4.52-4.817-10.973-11.973-14.338-15.903-3.366-3.93-8.558-9.073-11.54-11.43l-5.419-4.287-.433-2.563-.433-2.564 2.204-3.523c4.712-7.533 4.851-7.534 13.047-.131l6.368 5.75 4.146 6.883c6.12 10.16 12.449 18.352 16.726 21.65 2.082 1.606 5.41 4.642 7.396 6.747 1.986 2.105 3.677 3.734 3.757 3.62.304-.431-2.22-39.26-2.997-46.094l-.814-7.16 1.603-1.603 1.602-1.603 5.04.965c6.863 1.313 7.313 1.545 7.702 3.98 1.044 6.526 3.202 30.522 3.553 39.483l.406 10.408.874-1.312c.48-.722 8.188-11.287 17.128-23.478 8.94-12.192 17.05-23.789 18.022-25.772 1.073-2.187 2.206-3.605 2.88-3.605.989 0 4.383 4.413 6.607 8.59l.807 1.516-3.519 6.57c-2.302 4.298-5.951 9.456-10.557 14.92-13.55 16.079-27.576 35.748-26.62 37.33.27.445 2.854 3.581 5.746 6.97 6.244 7.32 6.427 8.284 2.394 12.617l-2.864 3.076-1.904-.404c-1.272-.27-3.044-1.827-5.338-4.69-1.89-2.358-3.51-4.213-3.6-4.122-.09.09.46 9.209 1.223 20.264l1.386 20.1-.816 3.649-.817 3.65-5.51-.028c-3.454-.017-6.172-.386-7.283-.99z"/></svg>