<svg width="512" height="512" viewBox="0 0 135.467 135.467" xmlns="http://www.w3.org/2000/svg"><path style="fill:#000;stroke-width:.913628" d="M60.883 121.232C42.704 88.35 35.129 79.742 16.623 70.93c-4.339-2.066-7.297-3.93-6.573-4.144.723-.213 5.089-1.247 9.7-2.297C47.775 58.107 60.369 43 51.59 26.3c-7.347-13.974-27.363-15.063-44.717-2.434l-4.492 3.269 1.571-2.91C15.114 3.546 36.192-3.026 59.253 6.982c2.947 1.279 6.734 2.325 8.416 2.325 1.681 0 5.468-1.046 8.415-2.325 22.452-9.743 43.385-3.477 54.794 16.401l2.207 3.846-4.556-3.315c-22.069-16.06-47.208-9.23-47.244 12.834-.022 12.932 12.06 22.73 34.242 27.768 4.645 1.055 9.041 2.086 9.77 2.291.728.205-2.47 2.168-7.109 4.363-16.833 7.965-24.556 16.33-39.794 43.1-3.59 6.306-7.195 12.602-10.958 18.815zm-36.85-72.467c-7.728-2.466-10.61-8.892-6.975-15.555 4.94-9.056 20.113-4.912 20.113 5.492 0 6.379-7.259 11.939-13.138 10.063zm81.008-.693c-8.541-3.62-8.298-15.457.388-18.897 11.762-4.658 20.838 10.473 10.567 17.618-3.274 2.278-7.449 2.766-10.955 1.28z"/></svg>