<?xml version="1.0" encoding="UTF-8" standalone="no"?>
<!-- Created with Inkscape (http://www.inkscape.org/) -->

<svg
   width="512"
   height="512"
   viewBox="0 0 135.46666 135.46666"
   version="1.1"
   id="svg1304"
   inkscape:version="1.1 (c68e22c387, 2021-05-23)"
   sodipodi:docname="warrior.svg"
   xmlns:inkscape="http://www.inkscape.org/namespaces/inkscape"
   xmlns:sodipodi="http://sodipodi.sourceforge.net/DTD/sodipodi-0.dtd"
   xmlns="http://www.w3.org/2000/svg"
   xmlns:svg="http://www.w3.org/2000/svg">
  <sodipodi:namedview
     id="namedview1306"
     pagecolor="#505050"
     bordercolor="#eeeeee"
     borderopacity="1"
     inkscape:pageshadow="0"
     inkscape:pageopacity="0"
     inkscape:pagecheckerboard="0"
     inkscape:document-units="px"
     showgrid="false"
     width="512mm"
     units="px"
     inkscape:zoom="0.94814026"
     inkscape:cx="32.695585"
     inkscape:cy="295.84231"
     inkscape:window-width="1920"
     inkscape:window-height="1017"
     inkscape:window-x="1912"
     inkscape:window-y="-8"
     inkscape:window-maximized="1"
     inkscape:current-layer="layer1" />
  <defs
     id="defs1301">
    <filter
       style="color-interpolation-filters:sRGB;"
       inkscape:label="Colorize"
       id="filter139057"
       x="0"
       y="0"
       width="1"
       height="1">
      <feColorMatrix
         values="0.21 0.72 0.072 0 0 0.21 0.72 0.072 0 0 0.21 0.72 0.072 0 0 0 0 0 1 0 "
         id="feColorMatrix139055"
         result="fbSourceGraphic" />
      <feColorMatrix
         result="fbSourceGraphicAlpha"
         in="fbSourceGraphic"
         values="0 0 0 -1 0 0 0 0 -1 0 0 0 0 -1 0 0 0 0 1 0"
         id="feColorMatrix139265" />
      <feComposite
         in2="fbSourceGraphic"
         id="feComposite139267"
         operator="arithmetic"
         k1="0"
         k2="1"
         result="composite1"
         in="fbSourceGraphic" />
      <feColorMatrix
         id="feColorMatrix139269"
         in="composite1"
         values="1"
         type="saturate"
         result="colormatrix1" />
      <feFlood
         id="feFlood139271"
         flood-opacity="1"
         flood-color="rgb(0,0,0)"
         result="flood1" />
      <feBlend
         in2="colormatrix1"
         id="feBlend139273"
         in="flood1"
         mode="multiply"
         result="blend1" />
      <feBlend
         in2="blend1"
         id="feBlend139275"
         mode="screen"
         result="blend2" />
      <feColorMatrix
         id="feColorMatrix139277"
         in="blend2"
         values="1"
         type="saturate"
         result="colormatrix2" />
      <feComposite
         in2="fbSourceGraphic"
         id="feComposite139279"
         in="colormatrix2"
         operator="in"
         k2="1"
         result="composite2" />
    </filter>
  </defs>
  <g
     inkscape:label="Layer 1"
     inkscape:groupmode="layer"
     id="layer1">
    <path
       style="fill:#000000;stroke-width:0.675963"
       d="M 91.270542,112.63749 C 89.96931,111.97373 83.427315,107.80332 76.732776,103.36992 70.038229,98.936512 62.531044,94.092446 60.050135,92.605323 l -4.510743,-2.703856 -1.054512,-2.205325 -1.054509,-2.205328 -5.583619,3.584139 c -3.070987,1.97128 -6.70553,4.26966 -8.076761,5.107525 l -2.493144,1.523378 3.748284,-11.223214 c 2.061557,-6.172772 3.596115,-11.375383 3.410132,-11.561369 -0.185992,-0.185991 -3.836684,1.515249 -8.112669,3.780513 l -7.77452,4.118664 -7.783293,2.614846 -7.783295,2.614846 5.757362,-9.565733 c 3.166548,-5.261149 7.722971,-12.410033 10.125383,-15.886415 2.402415,-3.476376 4.515483,-6.704957 4.69571,-7.174624 l 0.327685,-0.853937 -11.021437,-0.5069 C 16.804396,51.783732 9.7154608,51.362107 7.1130009,51.125586 L 2.3812499,50.695545 14.057621,42.633761 c 6.422006,-4.433981 11.441039,-8.262044 11.153409,-8.506807 -0.287629,-0.244752 -3.807453,-3.117048 -7.821835,-6.382858 -4.014381,-3.265807 -7.208311,-6.027341 -7.097624,-6.136741 0.110701,-0.109398 4.307732,0.526902 9.326766,1.414001 5.019036,0.887099 12.47154,1.954275 16.561123,2.371504 8.911634,0.909183 23.998005,4.203937 40.502199,8.845385 l 12.111696,3.406154 1.161807,1.434767 c 0.63899,0.789122 1.687605,3.725628 2.330251,6.52557 l 1.168459,5.090809 11.582658,3.269132 c 6.37047,1.798024 15.0635,4.552828 19.31782,6.121795 l 7.73514,2.852662 0.49796,1.861951 0.49796,1.861949 -6.54319,7.134444 -6.54321,7.134437 -5.74569,4.406504 c -3.16013,2.423581 -6.09563,4.68197 -6.52333,5.018647 l -0.77763,0.612142 -1.16109,-6.448558 c -1.37438,-7.633164 -0.78448,-7.46345 -7.085124,-2.038383 -6.220182,5.355772 -5.463412,5.481406 -8.102605,-1.345156 l -2.212364,-5.72251 -1.095185,0.597303 c -0.602351,0.328512 -2.143455,1.686908 -3.424669,3.018654 -2.592642,2.694893 -3.414391,2.992459 -3.419981,1.238421 -0.002,-0.650617 -0.317432,-2.312319 -0.700794,-3.692666 l -0.697025,-2.509727 -6.565824,5.468051 c -3.611197,3.007431 -7.014838,5.889473 -7.56364,6.404544 l -0.99783,0.936489 3.025723,-0.407086 3.025718,-0.407086 7.773587,4.337662 c 4.275475,2.385713 9.939688,5.497858 12.587149,6.915884 l 4.813562,2.578222 1.724992,-0.432943 c 0.948745,-0.23811 2.660989,-1.220535 3.80498,-2.183139 1.144,-0.962607 2.07999,-1.578987 2.07999,-1.369721 0,2.233737 -7.709848,18.041577 -8.761366,17.963797 -0.200273,-0.0148 -1.428791,-0.57001 -2.730022,-1.23377 z"
       id="path213957" />
  </g>
</svg>
