<svg width="512" height="512" viewBox="0 0 135.467 135.467" xmlns="http://www.w3.org/2000/svg"><path style="fill:#000;stroke-width:.842008" d="M94.889 122.744c0-3.882 1.309-7.394 4.506-12.089 3.344-4.911 1.931-10.727-4.769-19.629-2.282-3.033-5.038-5.223-3.557-2.827.934 1.511.624 10.785-.427 12.78-1.472 2.792-2.38 3.24-6.602 3.255-14.524.05-22.652-11.182-25.883-35.772l-.553-4.21-3.795 7.945c-5.458 11.43-5.91 17.849-1.543 21.967 4.13 3.895 4.187 7.429.186 11.43-8.47 8.47-20.08-3.764-17.331-18.262 1.147-6.049.696-5.937-2.764.683-6.951 13.301-7.49 25.446-1.504 33.853 2.232 3.134 1.665 3.183-5.533.474-18.186-6.845-24.108-14.384-22.753-28.96.535-5.762 5.731-26.052 7.314-28.565.715-1.133.778-1.01.323.633-3.951 14.288 2.934 27.546 11.998 23.104 8.188-4.014 10.764-14.092 5.345-20.91-3.181-4.004-3.43-10.02-.77-18.67 1.824-5.935 7.509-19.083 8.026-18.565.16.16.879 3.671 1.598 7.804 2.305 13.249 6.046 19.042 11.07 17.144 16.804-6.351 20.195-23.033 8.423-41.435-3.549-5.547-3.096-5.813 3.717-2.182 15.603 8.317 21.478 21.667 17.695 40.215-3.302 16.188-2.133 18.624 8.914 18.593 16.603-.047 23.568-11.8 18.452-31.134-1.596-6.033-1.426-6.047 3.308-.264 11.26 13.754 11.936 21.368 3.424 38.536-6.093 12.287-6.356 14.024-2.215 14.635 8.287 1.225 15.363-5.594 19.05-18.358l1.831-6.343.974 3.607c4.321 16.009 1.586 33.066-6.352 39.609-5.532 4.56-26.111 15.303-29.315 15.303-.269 0-.488-1.528-.488-3.395z"/></svg>