<svg width="512" height="512" viewBox="0 0 135.467 135.467" xmlns="http://www.w3.org/2000/svg"><path style="fill:#000;stroke-width:1.33911" d="M94.716 232.727s-.045-3.75.204-5.508c.413-2.92 1.302-4.548 10.287-5.526 12.063-1.313 22.803-5.184 27.105-9.768 3.091-3.295 3.23-2.969 3.169-19.975-.078-21.492-.268-21.88-15.77-32.089-6.13-4.037-13.644-10.167-16.826-13.502-9.25-9.693-13.37-23.415-13.875-27.151h-5.006s-.015-1.662-.015-9.1v-8.614h123.199v8.614c0 7.438.015 9.1.015 9.1h-5.37c-2.246 8.039-4.762 18.405-13.539 27.151-3.264 3.254-10.695 9.465-16.825 13.502-15.503 10.21-15.693 10.597-15.77 32.089-.062 17.006.077 16.68 3.169 19.975 4.302 4.584 15.041 8.455 27.104 9.768 8.985.978 9.875 2.606 10.287 5.526.249 1.758.363 5.508.363 5.508H94.718z" transform="translate(-77.863 -99.377)"/></svg>