<svg width="512" height="512" viewBox="0 0 135.467 135.467" xmlns="http://www.w3.org/2000/svg"><path style="fill:#000;stroke:none;stroke-width:.806815" d="M94.762 2.381c-9.482 12.338-8.863 19.112-4.841 33.08-12.686 5.37-18.54 20.127-16.137 33.08h-.806c-5.062-10.652-13.2-13.26-21.563-20.022-3.365-2.72-4.962-7.509-8.293-10.553-9.6-8.778-21.385-7.95-33.076-4.926 2.696 8.462 8.947 13.804 17.75 14.523v.807C11.792 48.502 4.85 57.976 3.59 73.38c11.635.918 21.32.486 27.432-11.295h.807c-2.271 6.984-1.858 11.968 1.614 18.556 11.219-4.841 15.892-14.005 16.136-25.818 4.246 1.778 7.972 4.06 11.283 7.294 27.738 27.087-18.121 52.064-38.715 62.9v.806c4.67-1.07 12.123-5.016 16.868-3.475 2.896.94 4.43 4.499 6.605 6.437 3.921 3.493 8.579 4.257 13.64 4.3v-.807l-5.647-4.841c12.245-2.8 19.12 2.773 30.66 3.891 6.385.618 13.012-1.776 19.363-2.278v-.806c-21.849-3.227-35.047-20.871-29.853-41.955 6.94 9.107 15.737 15.233 27.432 15.33-2.569-7.896-4.856-16.316-10.488-22.591 6.426-2.055 13.256-3.453 17.75-8.875-10.926-5.758-18.241-4.499-29.046 0 .141-6.841.798-26.459 11.296-26.358 2.991.029 5.728 3.744 8.068 5.296 5.367 3.562 11.543 4.758 17.75 2.81 10.163-3.193 5.316-15.03-2.42-18.055v-.807c9.023-.394 13.59-6.25 17.75-13.716-8.844-3.92-17.256-6.149-25.012.807-.074-8.206-5.633-13.326-12.102-17.75m-62.394 58.63-.27.536z"/></svg>