<svg width="512" height="512" viewBox="0 0 135.467 135.467" xmlns="http://www.w3.org/2000/svg"><path style="fill:#000;stroke-width:.730244" d="M53.568 128.521c-9.814-4.32-10.533-4.78-13.947-8.936-3.015-3.669-3.971-5.628-5.882-12.049-1.256-4.217-3.132-11.512-4.17-16.211L27.68 82.78l2.782-4.166c3.934-5.888 12.355-10.898 23.11-13.75 7.165-1.898 8.542-2.037 16.385-1.652 10.996.54 15.668 1.63 28.722 6.708 9.86 3.836 10.757 4.341 11.88 6.695 1.113 2.336 1.122 3.099.107 9.248-.608 3.686-2.47 12.124-4.138 18.751-2.927 11.63-3.173 12.236-7.069 17.41-2.22 2.95-4.798 5.652-5.73 6.006-.932.354-5.556.979-10.277 1.388-4.721.41-10.877 1.404-13.68 2.21-2.802.806-5.267 1.461-5.476 1.456-.21-.005-5.038-2.059-10.729-4.564zm-26.36-61.679c-1.96-1.696-4.041-12.942-3.354-18.115.396-2.983 1.003-4.113 3.415-6.365 2.64-2.464 3.329-2.738 6.877-2.738 3.095 0 4.466.398 6.367 1.848 2.157 1.645 2.473 2.348 2.874 6.39.248 2.497.642 6.04.877 7.874l.426 3.334-4.12 3.11c-6.527 4.929-11.18 6.552-13.363 4.662zm71.025-2.882c-1.849-.37-4.742-4.522-4.742-6.804 0-3.454 3.264-11.829 5.737-14.718 2.357-2.754 2.652-2.884 5.497-2.422 1.728.281 3.88 1.31 5.063 2.421 1.954 1.835 2.033 2.155 1.558 6.315-.611 5.357-1.714 7.598-5.984 12.163-3.178 3.398-3.876 3.696-7.13 3.045zm-44.77-5.734c-2.777-3.155-2.937-3.607-3.546-10.04-.589-6.212-.517-6.936.913-9.293 1.323-2.179 2.272-2.75 6.44-3.875l4.89-1.32 2.458 2.05c3.196 2.664 4.044 5.104 4.044 11.627 0 4.955-.167 5.533-2.307 7.97-1.858 2.117-8.21 6.186-9.655 6.186-.18 0-1.636-1.487-3.236-3.305zm25.788 1.103c-.803-.357-2.272-1.295-3.264-2.086-1.732-1.38-1.797-1.743-1.663-9.165.179-9.85 1.278-11.773 7.154-12.507 3.3-.412 4.153-.245 6.099 1.194 2.139 1.581 2.263 1.94 2.263 6.57 0 6.92-2.242 13.828-5.019 15.469-2.364 1.396-3.39 1.493-5.57.525zM28.047 33.234c.208-.703 2.066-7.193 4.13-14.422 2.064-7.23 3.806-13.2 3.871-13.267.065-.067.069 5.51.008 12.391l-.111 12.513-2.274 2.031c-2.622 2.343-6.235 2.827-5.624.754zm76.397.309c-1.405-.471-3.255-1.321-4.11-1.89-1.542-1.025-1.544-1.052-.198-4.016 1.039-2.286 1.36-4.766 1.371-10.614.011-4.865.27-7.378.716-6.932 1.084 1.084 9.524 20.104 9.524 21.463 0 2.852-2.609 3.562-7.303 1.989zM51.32 32.536c-2.322-.447-2.168-3.844.424-9.343 1.138-2.414 2.826-8.268 3.76-13.04.981-5.006 1.925-8.24 2.24-7.667.299.545 1.572 3.916 2.83 7.491 2.46 7 3.733 14.046 3.188 17.657-.31 2.055-.768 2.389-5.256 3.834-2.704.87-5.057 1.539-5.23 1.484-.172-.055-1.052-.242-1.956-.416zm28.314-2.368c-1.718-1.32-1.764-1.546-.92-4.547.488-1.737 1.949-7.676 3.246-13.199 1.296-5.522 2.568-10.04 2.826-10.04s1.467 1.889 2.686 4.198c1.614 3.058 2.44 5.986 3.04 10.771.453 3.615.988 7.394 1.19 8.398.336 1.68-.03 1.972-4.573 3.651-2.716 1.004-5.106 1.9-5.312 1.991-.206.091-1.188-.46-2.183-1.223z"/></svg>