<svg width="512" height="512" viewBox="0 0 135.467 135.467" xmlns="http://www.w3.org/2000/svg"><path style="fill:#000;stroke-width:.656089" d="M107.647 14.297c-3.427 2.555-10.57 7.518-10.57 7.518L67.705 47.39 38.39 21.863s-7.144-4.964-10.57-7.518l5.88 11.36 25.263 29.297-7.397 6.44-17.973 22.405-8.669-3.996-4.71-5.051 2.182-3.332-.309-5.387-1.17-.882-4.982.196-2.268 5.358 12.673 19.8-14.06 16.006-9.53 2.456-.37 10.167 1.633 1.94 8.7-.592 2.593-1.882 1.512-7.302 16.208-14.608L52.1 108.373l5.357-2.268.196-4.982-.881-1.171-5.387-.31-3.332 2.184-5.052-4.71-3.188-6.917.057-.054 22.02-18.246 5.822-6.752 5.863 6.799 22.02 18.246.056.054-3.188 6.917-5.051 4.71-3.332-2.183-5.387.309-.882 1.171.196 4.982 5.358 2.269 19.074-11.636 16.208 14.608 1.512 7.302 2.592 1.882 8.7.592 1.633-1.94-.369-10.166-9.53-2.457-14.06-16.006 12.673-19.8-2.269-5.357-4.98-.196-1.172.881-.308 5.387 2.182 3.332-4.71 5.052-8.67 3.995L83.9 61.49l-7.444-6.482 25.311-29.35z"/></svg>