<svg width="512" height="512" viewBox="0 0 135.467 135.467" xmlns="http://www.w3.org/2000/svg"><path style="fill:#000;stroke-width:.667399" d="m80.834 121.906-1.702-2.232v-7.736l6.465-6.58 6.465-6.581H90.625l-12.587 2.677-12.588 2.677-1.335.587-1.334.587 5.245 2.518 5.246 2.517-.345 2.57-.345 2.57-1.227 2.967-1.226 2.966-3.456.432-3.455.432-1.764-1.239-1.764-1.238.332-5.809.332-5.809-3.792-1.388-3.792-1.389-.77-.265-.769-.265-3.765-4.719-3.766-4.72-2.493-1.271-2.494-1.273-6.917-10.238-6.916-10.24-3.408-3.535-3.407-3.536-7.842-4.133-7.842-4.132v-6.026l3.414-4.168 3.414-4.169h4.404l1.19 5.046 1.189 5.045 3.237 2.376 3.237 2.376.185-.247.185-.247 6.43-11.178 6.43-11.18h-.536l-2.27 1.34-2.27 1.339-2.172-.435-2.173-.434-2.937-3.741-2.936-3.741.008-1.335.009-1.335.404-1.509.405-1.509 6.577-3.724 6.578-3.725 1.852.611 1.852.61 1.545 2.777 1.546 2.776 12.47-.384 12.47-.384 17.088-2.248 17.089-2.247 7.421-3.04 7.422-3.04 3.685 2.847 3.685 2.846.003 2.095.003 2.096-3.025 4.108-3.024 4.108-1.961-1.396-1.961-1.396-.393-.637-.394-.636-2.463.047-2.463.047-1.134.454-1.134.453 6.465 12.347 6.464 12.347.24-1.638.24-1.639-1.161-3.833-1.161-3.833.807-1.95.808-1.948 3.459-.416 3.459-.415 1.428-.006 1.427-.006 1.431 1.168 1.431 1.168 1.593 5.809 1.594 5.81-.714 2.326-.715 2.327-1.818.753-1.819.753-5.923 8.13-5.924 8.13-5.155 6.119-5.155 6.12-3.746 6.56-3.747 6.561-3.315 5.34-3.316 5.339-2.299 4.488-2.299 4.488v5.085l-1.938 1.145-1.938 1.145h-.728zM77.13 95.774l17.018-3.67h.452l.452-.001 1.708-3.733 1.71-3.732-7.5-8.018-7.5-8.018-5.615.38-5.614.38-.524.525-.524.525-7.415 13.567-7.415 13.566.788.95.788.95 1.086-.001h1.086zM58.776 81.672l6.007-11.076.22-.586.22-.585-14.57.416-14.568.416-.87.458-.87.458 2.976 3.624 2.976 3.624L42.947 83l2.65 4.577 3.253 2.543 3.252 2.543.334.043.334.043 6.006-11.076zm45.596-8.257 2.881-5.338-5.217.038-5.218.038-2.642.47-2.642.468 4.558 4.832 4.558 4.832h.42l.42-.001 2.882-5.339zm-44.575-9.753 9.029-.392 1.686-3.161 1.685-3.161-12.274-12.956-12.275-12.956-1.373-.515-1.374-.515-.146.181-.145.182-9.07 15.675-9.069 15.675 1.47 1.574 1.47 1.574 10.678-.406 10.678-.406zm18-.51v-.251l-1.001-.831-1.001-.83v2.165h2.002zm27.227-.997 6.871-.419 1.254-2.002 1.254-2.002-7.791-15.35-7.792-15.35H94.931l-4.944 9.01-4.943 9.01-2.965 5.423-2.965 5.424 3.074 3.419 3.074 3.42 6.445-.082 6.446-.082zM81.854 39.32l5.954-10.9v-1.114l-2.169.346-2.17.346-7.007.667-7.007.667-7.47.444-7.47.445 10.116 10.575 10.117 10.576.576-.576.576-.577z"/></svg>