<svg width="512" height="512" viewBox="0 0 135.467 135.467" xmlns="http://www.w3.org/2000/svg"><path style="fill:#000;stroke-width:.602303" d="M51.078 131.132c-1.338-1.072-2.435-2.22-2.438-2.55-.003-.332 1.048-1.803 2.336-3.27l2.34-2.666-1.242-2.436c-.683-1.339-1.376-4.1-1.539-6.134-.639-7.962 3.965-15.103 11.45-17.76 1.861-.662 2.258-1.09 2.258-2.446 0-1.464-.345-1.743-3.174-2.565-12.419-3.61-19.176-17.175-14.891-29.892.701-2.083 1.037-3.948.746-4.146-.29-.198-1.539-1-2.774-1.78-2.482-1.571-2.542-.962.573-5.786l.96-1.485 3.082 2.076c2.826 1.904 3.185 2.002 4.311 1.185 2.187-1.586 5.988-3.484 8.456-4.222 2.06-.616 2.41-.963 2.41-2.392 0-1.512-.302-1.749-3.154-2.479-9.49-2.428-17.224-9.725-20.099-18.96-.627-2.016-1.14-4.381-1.14-5.255 0-1.177-1.208-2.804-4.647-6.264l-4.647-4.674 2.368-2.425 2.368-2.425 5.591 5.568c5.482 5.459 5.592 5.624 5.592 8.419 0 6.938 5.21 14.484 12.47 18.058 3.481 1.714 4.532 1.942 8.93 1.942 4.54 0 5.389-.2 9.527-2.245 7.15-3.533 11.471-9.689 12.216-17.397l.365-3.787 5.181-5.265 5.182-5.265 2.583 2.535 2.583 2.535-4.438 4.537c-4.135 4.227-4.506 4.824-5.435 8.753-1.43 6.05-3.672 10.22-7.605 14.154-3.72 3.72-8.543 6.416-13.46 7.523-2.827.637-3.104.849-3.104 2.378 0 1.52.331 1.78 3.506 2.763 1.928.597 4.577 1.794 5.887 2.661l2.382 1.576 2.635-1.812 2.634-1.813.965 1.493c3.088 4.78 3.05 4.16.368 5.935-2.303 1.524-2.382 1.675-1.542 2.957.487.743 1.335 3.105 1.884 5.248 3.058 11.936-4.396 24.469-16.46 27.676-2.22.59-2.56.899-2.56 2.323 0 1.416.396 1.782 2.876 2.663 9.166 3.256 13.728 14.06 9.79 23.189l-1.358 3.148 2.474 2.955 2.475 2.956-2.65 2.172-2.651 2.171-2.316-2.721-2.316-2.722-3.448 1.223c-4.4 1.56-7.983 1.548-12.23-.042-1.858-.694-3.465-1.169-3.572-1.054-.106.116-1.147 1.358-2.312 2.761l-2.12 2.551zm20.694-8.809c7.642-3.527 8.671-13.311 1.915-18.205-1.937-1.404-3.02-1.737-5.65-1.737-3.632 0-5.73.88-8.123 3.41-3.143 3.322-3.7 7.203-1.643 11.453 2.57 5.307 8.32 7.47 13.5 5.08zm3.507-38.82c5.55-3.253 8.348-8.005 8.388-14.249.03-4.86-1.918-9.08-5.682-12.302-10.344-8.854-26.482-1.177-26.364 12.543.062 7.174 4.62 13.263 11.501 15.366 3.409 1.042 9.157.4 12.157-1.358z"/></svg>