<svg width="512" height="512" viewBox="0 0 135.467 135.467" xmlns="http://www.w3.org/2000/svg"><path style="opacity:1;fill:#000;fill-opacity:1;stroke:none;stroke-width:.949903" d="m67.733 2.381-6.77 37.425a29.167 29.167 0 0 0-8.058 3.404l-31.18-21.688L43.3 52.814a29.167 29.167 0 0 0-3.424 8.13L2.668 67.733l37.03 6.757a29.167 29.167 0 0 0 3.39 8.471l-21.364 30.983 30.69-21.347a29.167 29.167 0 0 0 8.674 3.744l6.645 36.744 6.609-36.535a29.167 29.167 0 0 0 9.1-3.68l30.299 21.074-20.93-30.358a29.167 29.167 0 0 0 3.81-9.252l36.177-6.601-36.33-6.63a29.167 29.167 0 0 0-3.86-8.927l21.133-30.654-30.783 21.412a29.167 29.167 0 0 0-8.496-3.349z"/></svg>