<svg width="512" height="512" viewBox="0 0 135.467 135.467" xmlns="http://www.w3.org/2000/svg"><path style="fill:#000;stroke-width:.954822" d="m16.345 124.872 7.213-.712c14.872-1.47 26.538-5.526 31.385-10.755 2.222-2.399 2.273-2.84 2.273-20.008 0-23.313-.226-23.793-15.574-33.188C27.1 51.307 17.543 39.403 13.194 27.036c-1.84-5.234-2.287-7.008-2.287-7.008H5.655V2.381h124.127l.03 17.647h-4.936s-1.707 4.406-2.593 7.16c-4.08 12.667-13.975 24.137-28.488 33.02-15.348 9.396-15.573 9.876-15.573 33.189 0 17.153.052 17.611 2.266 20 4.707 5.08 16.98 9.331 30.914 10.71l7.87.711v8.242l-102.927.025z"/></svg>