<svg width="512" height="512" viewBox="0 0 135.467 135.467" xmlns="http://www.w3.org/2000/svg"><path style="fill:#000;stroke-width:.87721" d="M106.487 132.51c-1.93-.154-7.2-.522-11.713-.818l-8.204-.538.58-4.639c.319-2.551 1.292-6.992 2.163-9.868l1.583-5.23-5.268-30.662-5.269-30.663.627-4.182.628-4.182 12.437.312 12.436.312 4.304 1.972 4.304 1.973-.583 16.146-.584 16.145 5.777 24.186 5.777 24.185-1.893 3.063-1.893 3.063-5.85-.147c-3.217-.081-7.429-.274-9.359-.428zm-92.642-.953-7.553-.29-1.894-2.017-1.894-2.016 7.88-19.515 7.88-19.515 1.009-21.2 1.009-21.201 1.605-3.728 1.605-3.728h20.886l1.609 3.568 1.609 3.568-2.783 24.722c-1.53 13.597-3.182 31.735-3.67 40.306l-.887 15.585-1.973 3.045-1.972 3.045-7.457-.169c-4.1-.093-10.855-.3-15.009-.46zm106.24-92.78-8.334-2.008-49.124-.985-49.124-.984-3.064.896c-1.686.493-3.158.896-3.272.896-.114 0-.95-1.48-1.86-3.29l-1.652-3.289-.602-6.874-.602-6.875 1.479-3.871 1.478-3.871 18.083-.007c24.55-.01 66.836-2.188 84.55-4.355 8-.978 15.696-1.779 17.105-1.779h2.561l1.495 1.652 1.495 1.652.823 11.287c.453 6.208.975 12.942 1.16 14.965l.336 3.678-2.3 2.585-2.298 2.585z"/></svg>