<svg width="512" height="512" viewBox="0 0 135.467 135.467" xmlns="http://www.w3.org/2000/svg"><path style="opacity:1;fill:#000;fill-opacity:1;stroke:none;stroke-width:1.23131" d="m67.375 2.381-1.85 16.452a48.984 48.984 0 0 1 2.208-.083 48.984 48.984 0 0 1 1.668.033zM69.4 18.783l4.255 34.427 27.117-21.635A48.984 48.984 0 0 0 69.4 18.783zm31.372 12.792a48.984 48.984 0 0 1 2.754 2.723l10.162-13.03zm2.754 2.723L82.19 61.652l34.473 3.876a48.984 48.984 0 0 0-13.137-31.23zm13.137 31.23a48.984 48.984 0 0 1 .053 2.205 48.984 48.984 0 0 1-.063 1.672l16.431-2.03zm-.01 3.877-34.398 4.251 21.63 27.11a48.984 48.984 0 0 0 12.768-31.36zm-12.767 31.361a48.984 48.984 0 0 1-2.72 2.76l13.03 10.163zm-2.72 2.76L73.815 82.19l-3.874 34.443a48.984 48.984 0 0 0 31.226-13.108zM69.94 116.634a48.984 48.984 0 0 1-2.208.083 48.984 48.984 0 0 1-1.671-.063l2.03 16.431zm-3.88.02-4.25-34.398-27.11 21.63a48.984 48.984 0 0 0 31.36 12.768zm-31.36-12.767a48.984 48.984 0 0 1-2.76-2.72l-10.164 13.031zm-2.76-2.72 21.335-27.352-34.443-3.874a48.984 48.984 0 0 0 13.108 31.226zM18.833 69.94a48.984 48.984 0 0 1-.083-2.208 48.984 48.984 0 0 1 .063-1.671L2.38 68.092zm-.02-3.88 34.397-4.25L31.58 34.7a48.984 48.984 0 0 0-12.767 31.36zm12.767-31.36a48.984 48.984 0 0 1 2.72-2.76L21.27 21.777zm2.72-2.76 27.352 21.335 3.873-34.443A48.984 48.984 0 0 0 34.3 31.94z"/></svg>