<svg width="512" height="512" viewBox="0 0 135.467 135.467" xmlns="http://www.w3.org/2000/svg"><path style="opacity:1;fill:#000;stroke-width:.646655" d="m30.884 99.051-.566-17.54c-.933-20.486-.771-15.784-2.119-25.718-.32-2.362 1.61-4.775 3.487-6.245l14.05-11.001c.343-.406 1.488-6.226 2.547-12.933 3.21-20.338 3.862-20.917 15.156-22.822 3.293-.556 6.081-.527 9.291-.037 5.748.877 9.483 2.327 10.671 4.14 1.556 2.375 2.82 7.673 4.591 19.24.907 5.926 1.65 11.058 1.65 11.403l15.283 12.385c1.438 2.494 2.397 3.991 2.377 6.526-.724 6.667-1.253 13.635-1.558 21.959-.216 4.713-.168 14.09-1.096 21.231l-30.894 33.446-2.951-2.593.085-41.512 2.91-2.724 11.317-.913-.005-5.892c-.002-3.241-.508-7.6-.634-9.742-.182-3.087-.623-6.707-3.22-6.438-3.403.352-4.972 5.181-6.159 8.034-1.022 2.455-4.96 8.277-7.008 7.681-4.444-1.291-5.97-5.499-6.917-7.462-1.951-4.04-5.109-7.989-6.372-7.989-2.17 0-3.922 7.495-3.946 16.891l-.013 4.928 11.963.926 2.264 2.028v42.184l-2.417 2.587zM71.438 58.05c2.63-2.996 6.403-10.95 7.209-15.199.714-3.767.851-11.794.24-14.074-.593-2.214-2.045-1.769-5.796 1.778-1.14 1.078-1.961 2.654-3.419 3.234-.399.159-1.95.3-2.34.121-.79-.364-2.059-1.583-4.285-3.369L59 27.293c-1.221-.98-1.922.79-2.015 2.015-.391 5.165-.831 8.56-.45 10.824.215 1.282 1.088 3.746 1.088 3.746 2.224 7.648 7.934 16.424 10.687 16.424.633 0 2.04-1.014 3.128-2.252z"/></svg>