<svg width="512" height="512" viewBox="0 0 135.467 135.467" xmlns="http://www.w3.org/2000/svg"><path style="fill:#000;stroke-width:.635776" d="m29.478 104.245-5.899-2.89-3.502-7.107-3.502-7.107-7.097-6.77-7.097-6.772 1.76-2.658 1.758-2.658.909.349c2.009.77 10.849 7.098 12.038 8.617.7.892 1.994 2.435 2.876 3.429l1.604 1.806 7.56 1.536c4.157.845 7.657 1.438 7.777 1.318.12-.12-3.046-1.766-7.036-3.658l-7.255-3.44-.458-5.078-.459-5.08-2.426-5.593-2.426-5.594-1.762-8.503-1.762-8.503 1.505-3.212c.827-1.767 1.71-3.086 1.96-2.931 1.25.773 5.351 8.77 6.666 12.999.82 2.636 2.528 8.155 3.797 12.263l2.308 7.47 1.395-.015c2.116-.025 16.28-2.895 16.787-3.402.244-.245 1.34-6.871 2.433-14.726 1.095-7.854 2.16-14.451 2.368-14.66.208-.207 1.227-.191 2.264.036l1.885.415.47 11.885c.26 6.536.307 15.02.106 18.854l-.367 6.969 1.277 5.428c.702 2.986 1.676 8.433 2.164 12.105l.887 6.675-2.592 4.292c-1.425 2.36-2.809 4.291-3.074 4.291-.266 0-1.709-.432-3.207-.96l-2.724-.962-5.068 1.955c-2.787 1.075-6.39 2.072-8.005 2.215l-2.938.261zm61.529 1.994c-1.574-.449-4.352-1.416-6.174-2.15l-3.312-1.333-2.649.935c-1.456.514-2.872.934-3.147.934-.274 0-1.683-1.875-3.13-4.166l-2.631-4.166.673-5.847c.37-3.216 1.243-8.408 1.939-11.537l1.265-5.69.003-13.384c.002-7.36.187-16.16.412-19.552l.408-6.169 1.86-.408c1.022-.225 1.982-.284 2.134-.132.152.151 1.176 6.83 2.274 14.842 1.1 8.011 2.074 14.66 2.167 14.775.263.329 15.7 3.283 17.165 3.285l1.31.003 3.676-11.92 3.675-11.922 2.644-4.601c1.454-2.531 2.82-4.605 3.036-4.61.215-.004 1.008 1.477 1.762 3.291l1.371 3.298-1.664 8.253-1.664 8.252-2.476 5.708-2.476 5.709-.42 5.035-.42 5.036-7.375 3.739c-4.056 2.057-7.009 3.754-6.561 3.772.448.018 3.88-.73 7.63-1.661l6.814-1.695 3.497-2.65c4.23-3.207 14.932-10.406 16.184-10.886l.9-.345 1.69 2.675 1.688 2.676-7.23 6.834-7.231 6.833-4.61 6.974-4.612 6.973-6.177 2.962c-6.545 3.137-7.676 3.325-12.218 2.03zm-61.211-57.72c-1.66-8.13-3.014-15.822-3.01-17.093l.007-2.31 1.43-.383c.788-.21 1.937-.387 2.554-.392l1.123-.009.926 2.066c.51 1.137 2.1 8.075 3.535 15.418s2.756 13.974 2.936 14.736l.327 1.385-2.442.678c-1.343.373-2.875.68-3.405.681l-.965.004zM95.616 62.6c-1.136-.334-2.058-.957-2.05-1.385.055-2.473 6.315-31.13 6.974-31.925.834-1.005 2.39-1.222 4.084-.572l1.006.386-.031 3.588c-.017 1.973-1.245 9.595-2.729 16.939l-2.698 13.351-1.245.113c-.684.062-2.174-.16-3.31-.495zM42.68 60.598c-.005-.088-.43-6.024-.945-13.193-.514-7.168-.94-13.82-.944-14.781l-.01-1.749 2.703.01c1.486.005 3.066.24 3.51.523l.809.513.405 14.418.405 14.418H45.65c-1.63 0-2.966-.072-2.971-.16zm41.97-13.552V33.335l.658-1.23.658-1.23h3.157c1.736 0 3.152.215 3.147.477-.005.262-.43 6.342-.944 13.51-.515 7.169-.94 13.677-.945 14.464l-.009 1.43H84.65z"/></svg>