<svg width="512" height="512" viewBox="0 0 135.467 135.467" xmlns="http://www.w3.org/2000/svg"><path style="opacity:1;fill:#000;stroke-width:.80979" d="m54.848 66.666-25.19 49.088-7.51-15.684 32.913-38.832-37.33 32.149L5.22 71.992c-.123-.213 1.908-.226 3.21-.226 3.393 0 13.817-5.574 22.736-12.218 4.243-3.161 8.118-7.232 13.163-8.805 4.76-1.484 9.337.01 14.316-.25l2.152-3.11 4.762.089v44.571l-8.955 6.044 1.665 18.867 10.042-6.703 10.21 6.703 1.998-18.785-9.446-6.126V47.472h6.671l1.9 3.041 15.622.348c2.76.062 8.25 5.156 11.657 7.68 7.692 5.695 15.769 11.002 20 12.37 1.67.539 3.946.829 3.946 1.05 0 .383-13.037 22.737-13.698 23.505L80.274 58.809l31.627 42.848-8.152 14.689-21.594-51.43 19.085 59.206H34.61zM35.6 11.345h31.52L55.302 28.95l10.26-5.075-.063 15.498-4.57.106-3.347-2.821c-1.93-1.626-4.024-.834-6.613-.039-2.589.796-6.167 3.5-6.695 3.983L31.89 51.93 19.695 63.633c-2.981 2.861-8.97 5.855-12.793 5.739l-4.52-.137zm91.847 56.918c-2.439-1.321-5.074-2.33-7.316-3.963-4.463-3.253-12.478-11.138-12.478-11.138C95.803 41.834 89.647 36.876 85.01 35.688c-2.57-.658-3.428.2-5.493 1.6l-3.073 2.086h-5.37V23.876l10.015 4.97-11.99-17.501h31.364l32.483 56.996c.722 1.266-1.371 2.158-5.499-.078z"/></svg>