<svg width="512" height="512" viewBox="0 0 135.467 135.467" xmlns="http://www.w3.org/2000/svg"><path style="fill:#000;stroke-width:.542606" d="M35.123 107.866c.776-2.527 2.36-6.48 3.519-8.787 2.528-5.028 2.505-4.64.461-7.861-3.65-5.754-5.424-14.867-4.315-22.165l.654-4.306-3.04-2.766c-4.547-4.136-9.101-6.247-14.565-6.75-3.845-.353-16.056-4.057-15.433-4.68.086-.086 1.683.09 3.55.39 4.552.733 11.312.848 16.679.283 5.85-.615 7.521-.221 12.302 2.9l4.042 2.639 1.972-2.641c1.084-1.452 1.971-3.27 1.971-4.038 0-2.828-2.762-6.275-6.51-8.127-4.223-2.084-6.03-4.69-8.275-11.937-2.516-8.12-2.426-8.631.714-4.042 5.548 8.107 8.826 10.468 15.74 11.336 3.69.464 4.188.68 5.98 2.602 1.076 1.153 2.07 2.437 2.208 2.852.202.609 1.145.454 4.829-.795 6.71-2.275 14.503-2.25 21.296.068l4.78 1.632.733-1.4c1.637-3.133 3.721-4.441 7.915-4.968 6.86-.861 10.381-3.47 16.059-11.897 2.744-4.074 2.794-3.368.322 4.612-2.228 7.195-3.951 9.731-8.003 11.776-6.5 3.28-8.516 8.398-4.948 12.566l1.793 2.095 2.721-1.955c5.086-3.653 8.864-4.353 16.19-3 2.908.538 13.256-.043 16.471-.924.48-.132-.227.272-1.57.898-4.577 2.133-8.947 3.374-13.355 3.793-5.228.497-8.856 2.098-13.779 6.082l-3.355 2.715.459 2.51c1.544 8.458-.12 18.454-4.15 24.928l-1.5 2.41 2.601 5.493c1.43 3.021 3.099 7.202 3.706 9.291l1.105 3.798-1.1-1.356c-2.704-3.337-7.33-7.715-9.677-9.16l-2.562-1.575-3.311 2.105c-7.321 4.655-17.06 6.422-25.295 4.59-4.148-.923-12.088-4.48-13.324-5.969-1.17-1.41-6.283 2.293-11.547 8.365l-2.57 2.964zm37.405-10.34c10.032-1.838 17.837-10.14 19.36-20.588.344-2.359.492-4.422.33-4.585-.164-.162-1.983.843-4.043 2.234-13.926 9.405-25.668 9.567-39.557.544l-3.799-2.468-.168 2.485c-.39 5.769 3.736 13.861 9.06 17.77 5.977 4.387 11.992 5.86 18.817 4.609zm7.56-30.043c3.284-1.627 6.64-3.52 7.459-4.204l1.49-1.245-2.114-2.745c-8.369-10.87-24.833-12.04-34.919-2.48-1.564 1.483-3.266 3.416-3.782 4.297l-.939 1.601 3.11 1.905c12.678 7.767 18.656 8.345 29.696 2.871z"/></svg>