<svg width="512" height="512" viewBox="0 0 135.467 135.467" xmlns="http://www.w3.org/2000/svg"><path style="fill:#000;stroke-width:.729875" d="m125.07 2.636-6.84 3.307c-9.391 4.544-24.726 17.909-25.738 22.432-.575 2.57-3.367 5.552-23.356 24.943-12.487 12.113-26.68 25.935-31.541 30.715-9.703 9.54-13.356 11.3-21.25 10.235-15.496-2.09-1.392 25.216 16.165 31.296 2.038.706 4.143 1.129 4.677.94.535-.19 1.426-.344 1.981-.344 1.474 0 2.763-2.858 2.624-5.818-.067-1.417.268-4.812.743-7.545l.863-4.97 30.18-31.524c16.598-17.339 30.747-31.747 31.442-32.02.695-.272 2.15-.684 3.232-.916 3.52-.753 18.594-18.857 22-26.421l2.833-6.294-4.008-4.008zM49.68 5.114l15.368 15.065 15.353 15.8 6.81-7.034-3.809-2.582-11.799-8.108-12.598-9.299-4.335-2.224zm-20.392.872L48.91 27.324l19.132 21.004 6.617-6.954-19.34-16.88L37.903 9.26l-3.568-1.853zm89.403 5.74 2.372 2.254c3.008 2.86 3.22 2.004-2.725 11.023-5.405 8.2-5.851 8.667-5.851 6.118 0-1.886-5.573-7.874-7.329-7.874-2.852 0-1.676-1.292 5.689-6.245zM14.4 14.011 35.42 37.53l20.155 23.125 6.454-6.872-19.94-18.575-20.147-19.329c-1.949-.803-5.5-1.385-7.542-1.867zM10.655 26.87c.928 2.83 1.337 6.798 2.507 9.533L28.08 54.437l15.442 18.534 6.182-6.813-19.33-19.321zm85.576 9.106c2.68.097 4.758 3.186 3.154 6.18-1.103 2.063-5.496 2.141-6.578.118-1.251-2.337-.862-4.325 1.098-5.61.778-.509 1.576-.716 2.326-.688zM2.381 46.182s.619 5.651 1.881 8.13C12.047 65.6 21.924 75.455 31.05 85.704l6.267-7.159-16.543-15.3zm82.5.691c.751-.025 1.553.187 2.341.703 2.01 1.317 2.413 3.29 1.153 5.645-1.073 2.005-5.474 1.947-6.562-.086-1.636-3.056.387-6.171 3.068-6.262zm21.205.848-6.918 6.928 16.06 15.083 15.324 15.11-1.704-4.963-2.297-4.295-9.511-12.44-8.308-11.659zM74.003 57.87c.75-.028 1.548.179 2.325.688 1.96 1.285 2.35 3.273 1.1 5.61-1.083 2.023-5.477 1.946-6.58-.116-1.603-2.996.475-6.085 3.155-6.183zm19.869 2.61-6.84 6.736 21.326 18.771 21.668 19.257-1.506-5.02-1.914-3.537-15.528-17.157zM63.058 68.5c3.23 0 5.51 4.942 3.3 7.152-2.196 2.197-7.152.239-7.152-2.825 0-1.59 2.437-4.327 3.852-4.327zm18.623 4.82-6.761 6.571 23.463 19.76 23.871 20.617c-.516-2.035-1.158-5.574-1.994-7.51L100.59 92.943zM52.11 79.449c3.23 0 5.511 4.943 3.3 7.153-2.196 2.196-7.152.238-7.152-2.826 0-1.59 2.437-4.327 3.852-4.327zm17.406 6.405L62.81 92.15l18.793 15.125 18.286 14.61c2.755 1.123 6.728 1.464 9.574 2.344l-20.299-19.376zm-28.148 4.87c.69.012 1.411.22 2.115.681 2.017 1.322 2.538 4.587.98 6.145-1.34 1.34-4.586 1.043-6.031-.554-2.43-2.685-.055-6.322 2.936-6.272zm-27.464 6.68c.87.037 2.244.646 4.376 1.783 10.35 5.516 22.573 19.627 20.386 23.534-3.304 5.905-26.172-13.79-26.172-22.54 0-1.933.29-2.827 1.41-2.778zM57.34 98.45l-7.05 6.389c10.402 8.95 20.423 18.658 31.842 26.25 2.5 1.22 8.16 1.742 8.16 1.742l-17.372-18.1z"/></svg>