<svg width="512" height="512" viewBox="0 0 135.467 135.467" xmlns="http://www.w3.org/2000/svg"><path style="fill:#000;stroke-width:3.36268" d="m326.844 19.502-30.725 4.322c-16.898 2.378-58.416 11.201-92.26 19.606l-61.533 15.279H84.604l-11.428-7.063-11.432-7.062-8.728 2.19-8.73 2.19 7.995 8.686c4.396 4.778 15.148 14.404 23.897 21.395l15.908 12.709-10.865 9.574c-5.975 5.266-16.833 17.127-24.131 26.354-7.298 9.227-17.891 21.855-23.54 28.06l-10.27 11.283 14.241-2.322 14.239-2.324-4.69 11.215c-13.308 31.826-29.735 65.489-34.56 70.82-7.8 8.618-3.115 11.115 19.256 10.272l19.67-.74-6.237 18.11c-3.427 9.963-5.578 18.766-4.781 19.563.797.797 5.779 20.22 11.068 43.158l9.618 41.71 6.306-10.91c3.47-6 7.203-10.92 8.293-10.93 4.155-.045 9.22 16.504 11.463 37.443l2.332 21.771-5.365 18.073c-2.952 9.939-5.367 18.735-5.367 19.546 0 .812 6.685-4.003 14.857-10.699 18.114-14.843 17.965-14.836 20.578-.908l2.115 11.266-5.326 17.925c-2.928 9.86-5.32 19.164-5.32 20.678v2.756h353.66l-10.377-14.115c-12.973-17.64-12.933-18.286 1.274-20.951 17.46-3.276 17.116-7.215-1.512-17.354L431.85 430.9v-28.023l-8.409-7.9c-10.92-10.26-10.613-12.464 2.524-18.21l10.93-4.777-9.538-.273-9.535-.278-10.498-11.859c-5.774-6.522-16.995-15.662-24.933-20.314-15.388-9.018-16.727-11.268-10.455-17.54 5.334-5.334 1.953-8.072-13.188-10.671l-12.648-2.17-22.092 4.092c-33.787 6.259-74.682 9.102-94.795 6.59l-18.127-2.268-7.162-14.746-7.166-14.75 6.705-19.551c6.518-19.001 21.627-40.803 25.555-36.875 1.07 1.07 2.125 10.956 2.347 21.967.222 11.01 1.663 21.279 3.203 22.82 3.937 3.939 31.776 3.2 71.18-1.887 18.495-2.387 48.757-4.744 67.252-5.236 18.495-.492 42.943-2.79 54.328-5.107l20.703-4.215 11.705-12.235 11.705-12.234 1.479-10.928c1.64-12.126.592-13.054-7.18-6.35-2.92 2.52-12.766 7.06-21.88 10.09l-16.57 5.51-35.552.065c-45.092.084-77.475 4.75-94.996 13.69l-13.752 7.017-6.687-6.688-6.688-6.687 9.66-12.252 9.66-12.252 14.956-6.684c8.226-3.676 25.631-9.884 38.673-13.793 13.043-3.908 32.037-11.318 42.21-16.467l18.49-9.36 8.148-12.224c4.48-6.723 12.347-14.397 17.486-17.054l9.35-4.834 16.047 5.96 16.049 5.958 5.133 10.013c2.822 5.509 5.636 10.773 6.255 11.698.62.924 4.628-2.381 8.905-7.35l7.777-9.037 2.293-16.676L503 119.94l-12.389-18.656-12.388-18.658-14.801-6.072-14.8-6.073-1.948-6.078c-1.834-5.72-6.427-8.38-23.776-13.78l-7.271-2.263-2.14 9.745c-1.178 5.36-6.231 13.588-11.227 18.28l-9.082 8.534-15.131 2.332c-8.323 1.282-21.573 3.89-29.445 5.795l-14.315 3.463c-11.539 24.557-17.154 36.422-34.54 47.244-32.584 11.79-49.282-4.514-53.513-25.098l-7.898 11.633c-9.286 13.665-34.52 31.2-52.754 36.662l-12.875 3.86-3.959-3.957-3.959-3.96 18.756-19.306 18.756-19.303 6.324-18.14 6.33-18.147 13.451-8.492c17.42-11.004 37.303-16.935 70.615-21.055 14.796-1.83 36.203-6.372 47.569-10.095l20.666-6.772 9.4-17.01-49.812-5.07zM282.75 82.75a21 21 0 0 0-21 21 21 21 0 0 0 21 21 21 21 0 0 0 21-21 21 21 0 0 0-21-21z" transform="scale(.26458)"/></svg>