<svg width="512" height="512" viewBox="0 0 135.467 135.467" xmlns="http://www.w3.org/2000/svg"><path style="opacity:1;fill:#000;stroke-width:.548366" d="M37.622 22.24a10.041 10.041 0 0 0-3.219.608c-3.503 1.262-5.618 4.073-4.724 6.279.686 1.692 2.99 2.591 5.753 2.243l3.725 16.46-8.604 2.569-.398-2.026-2.774.178-3.04 6.105 5.979 3.173 2.52-1.515-.284-2.246 6.239-1.852 5.333 11.595-26.71.045S11.36 62.514 7.706 63c-3.25.433-5.085 1.712-5.275 2.936-.235 1.515.327 1.774 2.535.75 6.644-3.085 14.901-.223 29.382 10.466 7.36 5.433 15.46 9.361 20.768 10.341l12.353 25.734-7.282-28.145c.25-.249 14.559-.106 14.559-.106l-7.277 28.251 12.588-26.222c8.011-1.867 11.761-3.556 21.456-10.108 14.473-9.78 22.473-12.751 28.75-9.975 2.517 1.114 3.145.26 2.682-1.203-.269-.847-2.416-2.728-6.575-2.983-3.459-.213-7.503.947-7.503.947l-28.02.048 5.296-11.515 6.239 1.852-.284 2.245 2.52 1.516 5.978-3.173-3.04-6.105-2.774-.178-.397 2.026-8.604-2.568 3.725-16.46c2.762.347 5.067-.552 5.753-2.244.894-2.206-1.222-5.017-4.725-6.28-3.503-1.261-7.068-.496-7.962 1.71-.677 1.668.364 3.753 2.61 5.23l-7.518 15.357-8.194-2.678.456-2.406-2.223-1.118-6.2 2.161 2.58 6.57 3.55-.043.84-1.956 6.297 2.065-4.342 16.01-25.906.044-4.354-16.054 6.297-2.065.84 1.956 3.549.043 2.58-6.57-6.2-2.161-2.222 1.118.455 2.406-8.193 2.678-7.519-15.357c2.247-1.477 3.288-3.562 2.61-5.23-.614-1.517-2.492-2.352-4.743-2.317zM23.466 66.17h21.747l4.911 10.676c-3.967-.03-7.652-.522-14.87-4.533-1.64-.912-11.788-6.143-11.788-6.143zm31.7 0h24.605l-3.39 12.497c-.813.288 0 0 0 0l-17.769.204s.441.15 0 0zm34.558 0h22.33l-8.878 4.336c-7.074 3.617-12.109 6.977-18.305 6.215-.266.033.256-.035 0 0z"/></svg>