<svg width="512" height="512" viewBox="0 0 135.467 135.467" xmlns="http://www.w3.org/2000/svg"><path style="opacity:1;fill:#000;stroke-width:.546951" d="m67.684 29.524-6.763 14.443 5.36-3.282V58.83l-.75.024-6.767-11.425 6.284.092-13.18-8.979 1.433 15.938 3.11-5.657 6.002 10.134-1.472.048-2.36-1.204c-4.646-3.394-12.227-.378-24.966 9.304C20.093 77.38 12.22 79.979 5.655 77.305c-2.469-1.005-3.274-1.355-3.274.45 0 1.045 1.5 2.697 5.77 3.001 4.309.307 11.755-1.122 11.755-1.122h37.445l-3.594 6.067-6.602 1.175-6.635 12.598 7.91-1.902 2.347 7.977 7.765-11.928-2.432-6.527 4.418-7.46h5.753v5.901l-5.082 4.376.712 14.22 5.837-5.667 6.084 5.668.602-14.221-5.419-4.376v-5.9h5.646l4.606 7.775-2.43 6.527 7.763 11.929 2.347-7.978 7.91 1.902-6.634-12.598-6.602-1.175-3.78-6.383h40.239s3.2 1.376 6.35 1.246c3.151-.13 5.922-.633 7.033-1.505 2.988-2.348 1.595-4.509-2.107-2.184-2.954 1.856-8.082 1.009-12.503-.78-4.551-1.843-7.925-3.81-16.255-9.942-9.054-6.664-14.982-10.092-19.879-10.174-4.733.527-3.558 1.418-6.323 2.268l-1.413.046 5.984-10.103 3.11 5.657 1.433-15.938-13.18 8.979 6.284-.092-6.873 11.604-.726.023V40.686l5.559 3.281zM50.777 105.55l-.815-.231c.181.365.336.624.412.624.047 0 .19-.143.403-.393zm24.159-41.01s1.057 2.73 6.264 2.482c8.496-.153 12.527 1.237 18.346 4.462 5.006 2.855 5.831 3.74 11.077 5.417H76.22l-7.036-11.878.24-.405zm-9.14.129.21.354L58.97 76.9H24.875s3.52-1.628 8.986-4.42c10.137-6.144 10.881-5.132 19.861-5.546 5.102.467 6.496-2.187 6.496-2.187zm.485 5.256V76.9h-4.132zm2.734.178 4.027 6.798h-4.027z"/></svg>