<svg width="512" height="512" viewBox="0 0 135.467 135.467" xmlns="http://www.w3.org/2000/svg"><path style="fill:#000;stroke-width:.730978" d="M39.718 120.374c-37.528-10.566-49.64-51.972-23.02-78.69C30.113 28.22 53.01 24.195 67.74 32.71c2.3 1.33 3.193 1.553 3.41.851 5.886-18.932 26.595-25.758 41.048-13.53 7.932 6.71 11.657 26.348 7.14 37.638-1.122 2.806-1.624 4.944-1.195 5.087 11.483 3.828 18.28 22.16 13.275 35.799-6.02 16.4-30.857 21.585-44.473 9.284l-2.832-2.559-3.42 3.657c-9.331 9.975-27.827 15.138-40.975 11.436zm21.982-9.891c15.279-5.274 21.418-18.086 15.779-32.928-8.274-21.775-31.816-25.632-42.523-6.966-5.898 10.282-1.644 19.815 9.232 20.688 10.171.817 14.336-5.662 10.97-17.065L54.1 70.623l1.827 2.193c12.159 14.59 7.268 27.655-10.309 27.536-22.88-.155-30.413-24.322-12.995-41.692 20.999-20.94 55.697-2.902 55.75 28.982.022 13.783 11.353 21.372 24.817 16.622 13.64-4.813 14.986-24.613 2.201-32.362-8.595-5.209-16.002 2.41-11.26 11.581 3.38 6.536 12.489 2.847 9.964-4.034l-.825-2.247 2.13 2.558c6.632 7.968 2.816 16.737-6.931 15.929-15.258-1.266-20.385-22.184-7.738-31.57 11.837-8.783 14.499-16.77 9.918-29.755-5.953-16.873-30.33-13.788-30.605 3.874l-.07 4.505 3.17 2.245c10.228 7.244 22.818.686 16.508-8.599l-1.886-2.776 2.774 1.756c7.998 5.062 7.812 15.368-.343 19.001-8.873 3.953-19.022 1.416-28.645-7.16-25.089-22.359-61.168-3.593-59.804 31.107.877 22.306 27.97 39.753 49.952 32.166z"/></svg>