<svg width="512" height="512" viewBox="0 0 135.467 135.467" xmlns="http://www.w3.org/2000/svg"><path style="opacity:1;fill:#000;stroke-width:.812071" d="M64.792 131.356c-12.65-7.43-21.891-13.485-34.039-22.174-6.628-6.978-17.445-17.969-18.705-21.577-1.526-4.37-.504-8.53-.08-10.24 3.085-12.396 4.866-19.76 7.906-30.385l9.61 11.096c7.588 9.078 14.897 15.064 23.595 21.591 7.692 5.773 14.254 10.495 14.584 10.495.69 0 16.089-11.24 24.099-17.59 2.975-2.36 9.54-9.099 14.59-14.977l9.181-10.688c2.774 10.3 6.427 20.43 7.844 30.668.42 3.365 1.694 6.417-.016 10.172-4.14 9.1-11.125 13.677-18.133 20.355-13.32 9.949-25.271 18.368-37.634 24.983l-2.802-1.73zm-9.92-80.459c-.377-11.697-.098-19.418-.098-19.418H80.79s.357 11-.314 21.101c-.892 12.793-6.185 23.426-12.992 23.777-10.255-3.237-11.402-14.752-12.613-25.46zM21.948 39.408l3.417-14.211c1.879-7.816 4.045-15.398 4.813-16.848.466-.879.663-1.966 1.398-2.636 1.56-1.423 3.774-2.027 5.844-2.442 9.986-2.002 30.556.001 30.556.001l30.557.001c2.118 0 4.756.936 5.684 2.84l1.385 2.842c.762 1.564 2.853 9.055 4.646 16.648l3.26 13.805-9.484 8.199c-1.66-5.021-2.646-8.932-4.142-14.37l-4.274-5.604H39.74l-4.042 5.3-3.766 15.586z"/></svg>