<svg width="512" height="512" viewBox="0 0 135.467 135.467" xmlns="http://www.w3.org/2000/svg"><path style="fill:#000;stroke-width:.675963" d="M91.27 112.637c-1.3-.663-7.843-4.834-14.537-9.267-6.695-4.433-14.202-9.278-16.683-10.765l-4.51-2.704-1.055-2.205-1.055-2.205-5.583 3.584c-3.071 1.971-6.706 4.27-8.077 5.107l-2.493 1.524 3.748-11.223c2.062-6.173 3.596-11.376 3.41-11.562-.186-.186-3.836 1.516-8.112 3.78l-7.775 4.12-7.783 2.614-7.784 2.615 5.758-9.566c3.166-5.26 7.723-12.41 10.125-15.886 2.403-3.476 4.516-6.705 4.696-7.175l.328-.854-11.022-.506c-6.062-.28-13.15-.7-15.753-.937l-4.732-.43 11.677-8.062c6.422-4.434 11.44-8.262 11.153-8.507-.288-.245-3.807-3.117-7.822-6.383-4.014-3.266-7.208-6.027-7.097-6.137.11-.109 4.307.527 9.326 1.414 5.02.887 12.472 1.955 16.561 2.372 8.912.909 23.998 4.204 40.503 8.845l12.111 3.406 1.162 1.435c.64.79 1.688 3.726 2.33 6.526l1.169 5.09 11.583 3.27c6.37 1.798 15.063 4.553 19.317 6.121l7.735 2.853.498 1.862.498 1.862-6.543 7.134L120 80.932l-5.746 4.406c-3.16 2.424-6.095 4.682-6.523 5.02l-.778.611-1.16-6.448c-1.375-7.634-.785-7.464-7.086-2.039-6.22 5.356-5.463 5.482-8.102-1.345l-2.213-5.722-1.095.597c-.602.328-2.143 1.687-3.425 3.019-2.592 2.694-3.414 2.992-3.42 1.238-.002-.65-.317-2.312-.7-3.693l-.697-2.51-6.566 5.469c-3.611 3.007-7.015 5.89-7.564 6.404l-.998.937 3.026-.407 3.026-.408L77.75 90.4c4.276 2.386 9.94 5.498 12.587 6.916l4.814 2.578 1.725-.433c.949-.238 2.66-1.22 3.805-2.183 1.144-.962 2.08-1.579 2.08-1.37 0 2.234-7.71 18.042-8.761 17.964-.2-.015-1.43-.57-2.73-1.234z"/></svg>